<svg width="84" height="59" viewBox="0 0 84 59" fill="none" xmlns="http://www.w3.org/2000/svg">
<path d="M12.3121 0C4.71014 7.55769 0 17.9927 0 29.5C0 41.0073 4.71014 51.4423 12.3121 59L17.7113 53.635C11.4877 47.4508 7.63636 38.913 7.63636 29.5C7.63636 20.087 11.4877 11.5492 17.7113 5.36498L12.3121 0ZM71.6879 0L66.2887 5.36498C72.5123 11.5492 76.3636 20.087 76.3636 29.5C76.3636 38.913 72.5123 47.4508 66.2887 53.635L71.6879 59C79.2899 51.4423 84 41.0073 84 29.5C84 17.9927 79.2899 7.55769 71.6879 0ZM23.1104 10.73C18.269 15.537 15.2727 22.1775 15.2727 29.5C15.2727 36.8225 18.269 43.463 23.1104 48.27L28.5096 42.905C25.0503 39.4715 22.9091 34.7282 22.9091 29.5C22.9091 24.2718 25.0541 19.5323 28.5096 16.095L23.1104 10.73ZM60.8896 10.73L55.4904 16.095C58.9497 19.5285 61.0909 24.2718 61.0909 29.5C61.0909 34.7282 58.9459 39.4677 55.4904 42.905L60.8896 48.27C65.7272 43.4592 68.7273 36.8225 68.7273 29.5C68.7273 22.1775 65.731 15.537 60.8896 10.73ZM42 18.1179C38.9621 18.1179 36.0486 19.3171 33.9004 21.4517C31.7523 23.5862 30.5455 26.4813 30.5455 29.5C30.5455 32.5187 31.7523 35.4138 33.9004 37.5483C36.0486 39.6829 38.9621 40.8821 42 40.8821C45.0379 40.8821 47.9514 39.6829 50.0996 37.5483C52.2477 35.4138 53.4545 32.5187 53.4545 29.5C53.4545 26.4813 52.2477 23.5862 50.0996 21.4517C47.9514 19.3171 45.0379 18.1179 42 18.1179Z" fill="url(#paint0_linear_1767_74)"/>
<defs>
<linearGradient id="paint0_linear_1767_74" x1="42" y1="0" x2="42" y2="59" gradientUnits="userSpaceOnUse">
<stop stop-color="#0083D4"/>
<stop offset="0.4999" stop-color="#0083D4"/>
<stop offset="0.5" stop-color="#0067A7"/>
<stop offset="0.979167" stop-color="#0083D4"/>
</linearGradient>
</defs>
</svg>
