<svg width="102" height="103" viewBox="0 0 102 103" fill="none" xmlns="http://www.w3.org/2000/svg">
<path d="M9.1479 51.6319C9.11656 62.3514 13.1647 73.0607 21.3015 81.1975C29.4384 89.3344 40.1477 93.3825 50.8672 93.3512L50.8914 85.7398C42.1176 85.7676 33.3572 82.4538 26.7013 75.7978C20.0453 69.1418 16.7314 60.3814 16.7593 51.6077L9.1479 51.6319ZM51.1329 9.64693L51.1087 17.2583C59.8824 17.2305 68.6428 20.5443 75.2988 27.2003C81.9548 33.8563 85.2686 42.6167 85.2408 51.3904L92.8522 51.3662C92.8835 40.6467 88.8354 29.9374 80.6985 21.8006C72.5616 13.6637 61.8524 9.61559 51.1329 9.64693ZM24.3707 51.5836C24.3463 58.4061 26.9232 65.2203 32.101 70.3981C37.2788 75.5759 44.093 78.1528 50.9155 78.1284L50.9397 70.517C46.0657 70.5352 41.1976 68.6952 37.5007 64.9984C33.8038 61.3015 31.9693 56.4334 31.9821 51.5594L24.3707 51.5836ZM51.0845 24.8697L51.0604 32.4811C55.9344 32.4629 60.8025 34.3029 64.4993 37.9997C68.1962 41.6966 70.0308 46.5647 70.018 51.4387L77.6294 51.4145C77.6483 44.592 75.0768 37.7778 69.8991 32.6C64.7213 27.4223 57.907 24.8454 51.0845 24.8697ZM42.9517 43.4507C40.8036 45.5989 39.5913 48.507 39.5817 51.5353C39.5721 54.5636 40.7659 57.4641 42.9004 59.5986C45.035 61.7332 47.9355 62.927 50.9638 62.9174C53.9921 62.9078 56.9002 61.6955 59.0484 59.5474C61.1965 57.3992 62.4087 54.4911 62.4183 51.4628C62.4279 48.4345 61.2342 45.534 59.0996 43.3995C56.9651 41.2649 54.0646 40.0711 51.0363 40.0808C48.0079 40.0904 45.0998 41.3026 42.9517 43.4507Z" fill="#3EB1F9"/>
</svg>
