<svg width="72" height="72" viewBox="0 0 72 72" fill="none" xmlns="http://www.w3.org/2000/svg">
<mask id="path-1-outside-1_14_23" maskUnits="userSpaceOnUse" x="0" y="0.000976562" width="72" height="72" fill="black">
<rect fill="white" y="0.000976562" width="72" height="72"/>
<path fill-rule="evenodd" clip-rule="evenodd" d="M42.6184 9.24243C42.6183 8.87126 42.4708 8.51533 42.2083 8.25288C41.9459 7.99042 41.59 7.84291 41.2188 7.84277H3.39243C3.07815 7.8427 2.76693 7.90457 2.47656 8.02485C2.1862 8.14512 1.92239 8.32143 1.7002 8.54372C1.47802 8.766 1.30182 9.02989 1.18167 9.32031C1.06153 9.61072 0.999794 9.92197 1 10.2363V68.608C1 68.9221 1.06189 69.2332 1.18212 69.5234C1.30236 69.8137 1.47859 70.0774 1.70076 70.2995C1.92292 70.5216 2.18667 70.6978 2.47693 70.818C2.76719 70.9381 3.07828 71 3.39243 70.9999H61.7637C62.0778 71 62.3889 70.9381 62.6792 70.818C62.9694 70.6978 63.2332 70.5216 63.4553 70.2995C63.6775 70.0774 63.8537 69.8137 63.974 69.5234C64.0942 69.2332 64.1561 68.9221 64.1561 68.608V30.7816C64.1561 30.4103 64.0086 30.0542 63.746 29.7916C63.4834 29.529 63.1273 29.3815 62.7559 29.3815H59.8159C59.4446 29.3816 59.0886 29.5292 58.8262 29.7918C58.5637 30.0543 58.4162 30.4104 58.4162 30.7816V62.8666C58.4165 63.1812 58.3546 63.4927 58.2342 63.7834C58.1139 64.074 57.9373 64.3381 57.7147 64.5604C57.4922 64.7827 57.2279 64.959 56.9371 65.079C56.6464 65.1991 56.3347 65.2606 56.0201 65.26H9.13385C8.81969 65.2601 8.5086 65.1983 8.21834 65.0781C7.92808 64.958 7.66434 64.7818 7.44217 64.5597C7.22001 64.3375 7.04378 64.0738 6.92354 63.7836C6.8033 63.4934 6.74142 63.1823 6.74142 62.8681V15.9777C6.74142 15.6635 6.8033 15.3524 6.92354 15.0622C7.04378 14.772 7.22001 14.5083 7.44217 14.2861C7.66434 14.064 7.92808 13.8879 8.21834 13.7677C8.5086 13.6475 8.81969 13.5857 9.13385 13.5858H41.2188C41.59 13.5856 41.946 13.438 42.2085 13.1755C42.471 12.9129 42.6184 12.5568 42.6184 12.1856V9.24243Z"/>
<path fill-rule="evenodd" clip-rule="evenodd" d="M27.7935 44.2075L37.9428 40.8244L31.1766 34.0571L27.7935 44.2075ZM63.3282 15.4374L56.562 8.67172L32.8797 32.354L39.6459 39.1207L63.3282 15.4374ZM70.4367 8.3289C70.7974 7.9679 71.0001 7.47844 71.0001 6.96809C71.0001 6.45775 70.7974 5.96829 70.4367 5.60729L66.3942 1.56478C66.2155 1.38604 66.0034 1.24425 65.7699 1.14751C65.5364 1.05077 65.2861 1.00098 65.0334 1.00098C64.7806 1.00098 64.5304 1.05077 64.2969 1.14751C64.0634 1.24425 63.8513 1.38604 63.6726 1.56478L58.2651 6.97229L65.0313 13.7385L70.4388 8.331L70.4367 8.3289Z"/>
</mask>
<path fill-rule="evenodd" clip-rule="evenodd" d="M42.6184 9.24243C42.6183 8.87126 42.4708 8.51533 42.2083 8.25288C41.9459 7.99042 41.59 7.84291 41.2188 7.84277H3.39243C3.07815 7.8427 2.76693 7.90457 2.47656 8.02485C2.1862 8.14512 1.92239 8.32143 1.7002 8.54372C1.47802 8.766 1.30182 9.02989 1.18167 9.32031C1.06153 9.61072 0.999794 9.92197 1 10.2363V68.608C1 68.9221 1.06189 69.2332 1.18212 69.5234C1.30236 69.8137 1.47859 70.0774 1.70076 70.2995C1.92292 70.5216 2.18667 70.6978 2.47693 70.818C2.76719 70.9381 3.07828 71 3.39243 70.9999H61.7637C62.0778 71 62.3889 70.9381 62.6792 70.818C62.9694 70.6978 63.2332 70.5216 63.4553 70.2995C63.6775 70.0774 63.8537 69.8137 63.974 69.5234C64.0942 69.2332 64.1561 68.9221 64.1561 68.608V30.7816C64.1561 30.4103 64.0086 30.0542 63.746 29.7916C63.4834 29.529 63.1273 29.3815 62.7559 29.3815H59.8159C59.4446 29.3816 59.0886 29.5292 58.8262 29.7918C58.5637 30.0543 58.4162 30.4104 58.4162 30.7816V62.8666C58.4165 63.1812 58.3546 63.4927 58.2342 63.7834C58.1139 64.074 57.9373 64.3381 57.7147 64.5604C57.4922 64.7827 57.2279 64.959 56.9371 65.079C56.6464 65.1991 56.3347 65.2606 56.0201 65.26H9.13385C8.81969 65.2601 8.5086 65.1983 8.21834 65.0781C7.92808 64.958 7.66434 64.7818 7.44217 64.5597C7.22001 64.3375 7.04378 64.0738 6.92354 63.7836C6.8033 63.4934 6.74142 63.1823 6.74142 62.8681V15.9777C6.74142 15.6635 6.8033 15.3524 6.92354 15.0622C7.04378 14.772 7.22001 14.5083 7.44217 14.2861C7.66434 14.064 7.92808 13.8879 8.21834 13.7677C8.5086 13.6475 8.81969 13.5857 9.13385 13.5858H41.2188C41.59 13.5856 41.946 13.438 42.2085 13.1755C42.471 12.9129 42.6184 12.5568 42.6184 12.1856V9.24243Z" fill="#3EB1F9"/>
<path fill-rule="evenodd" clip-rule="evenodd" d="M27.7935 44.2075L37.9428 40.8244L31.1766 34.0571L27.7935 44.2075ZM63.3282 15.4374L56.562 8.67172L32.8797 32.354L39.6459 39.1207L63.3282 15.4374ZM70.4367 8.3289C70.7974 7.9679 71.0001 7.47844 71.0001 6.96809C71.0001 6.45775 70.7974 5.96829 70.4367 5.60729L66.3942 1.56478C66.2155 1.38604 66.0034 1.24425 65.7699 1.14751C65.5364 1.05077 65.2861 1.00098 65.0334 1.00098C64.7806 1.00098 64.5304 1.05077 64.2969 1.14751C64.0634 1.24425 63.8513 1.38604 63.6726 1.56478L58.2651 6.97229L65.0313 13.7385L70.4388 8.331L70.4367 8.3289Z" fill="#3EB1F9"/>
<path d="M42.6184 9.24243H43.6184V9.24205L42.6184 9.24243ZM41.2188 7.84277L41.2192 6.84277H41.2188V7.84277ZM3.39243 7.84277L3.39221 8.84277H3.39243V7.84277ZM1 10.2363H2L2 10.2356L1 10.2363ZM1 68.608H2H1ZM3.39243 70.9999V69.9999H3.39221L3.39243 70.9999ZM61.7637 70.9999L61.7639 69.9999H61.7637V70.9999ZM64.1561 68.608H63.1561H64.1561ZM64.1561 30.7816H65.1561H64.1561ZM62.7559 29.3815V28.3815V29.3815ZM59.8159 29.3815V28.3815H59.8155L59.8159 29.3815ZM58.4162 30.7816H59.4162H58.4162ZM58.4162 62.8666H57.4162V62.8672L58.4162 62.8666ZM56.0201 65.26L56.0219 64.26H56.0201V65.26ZM9.13385 65.26V64.26H9.13363L9.13385 65.26ZM6.74142 62.8681H7.74142H6.74142ZM6.74142 15.9777H7.74142H6.74142ZM9.13385 13.5858L9.13363 14.5858H9.13385V13.5858ZM41.2188 13.5858V14.5858H41.2192L41.2188 13.5858ZM42.6184 12.1856H41.6184H42.6184ZM27.7935 44.2075L26.8448 43.8913L26.2124 45.7886L28.1097 45.1562L27.7935 44.2075ZM37.9428 40.8244L38.259 41.7731L39.7939 41.2614L38.6499 40.1173L37.9428 40.8244ZM31.1766 34.0571L31.8837 33.3501L30.7396 32.2057L30.2279 33.7409L31.1766 34.0571ZM63.3282 15.4374L64.0353 16.1445L64.7424 15.4374L64.0353 14.7303L63.3282 15.4374ZM56.562 8.67172L57.269 7.96459L56.5619 7.25754L55.8549 7.96462L56.562 8.67172ZM32.8797 32.354L32.1726 31.6469L31.4655 32.354L32.1725 33.0611L32.8797 32.354ZM39.6459 39.1207L38.9388 39.8278L39.6459 40.535L40.353 39.8278L39.6459 39.1207ZM70.4367 8.3289L69.7293 7.62205L69.023 8.32892L69.7294 9.03576L70.4367 8.3289ZM70.4367 5.60729L71.1441 4.90044L71.1438 4.90018L70.4367 5.60729ZM66.3942 1.56478L65.687 2.27176L65.6871 2.27189L66.3942 1.56478ZM65.0334 1.00098V2.00098V1.00098ZM63.6726 1.56478L64.3797 2.27189L64.3798 2.27176L63.6726 1.56478ZM58.2651 6.97229L57.558 6.26519L56.8509 6.97229L57.558 7.6794L58.2651 6.97229ZM65.0313 13.7385L64.3242 14.4456L65.0313 15.1527L65.7384 14.4456L65.0313 13.7385ZM70.4388 8.331L71.1459 9.0381L71.8528 8.33124L71.1461 7.62413L70.4388 8.331ZM43.6184 9.24205C43.6182 8.6058 43.3653 7.99567 42.9154 7.54577L41.5012 8.95998C41.5762 9.03499 41.6184 9.13672 41.6184 9.2428L43.6184 9.24205ZM42.9154 7.54577C42.4655 7.09587 41.8554 6.84301 41.2192 6.84277L41.2184 8.84277C41.3245 8.84281 41.4262 8.88497 41.5012 8.95998L42.9154 7.54577ZM41.2188 6.84277H3.39243V8.84277H41.2188V6.84277ZM3.39265 6.84277C2.94697 6.84268 2.50564 6.93041 2.09388 7.10097L2.85925 8.94873C3.02822 8.87874 3.20932 8.84273 3.39221 8.84277L3.39265 6.84277ZM2.09388 7.10097C1.68212 7.27152 1.30802 7.52155 0.99294 7.83677L2.40746 9.25067C2.53676 9.12132 2.69028 9.01872 2.85925 8.94873L2.09388 7.10097ZM0.99294 7.83677C0.677865 8.15198 0.427999 8.5262 0.257624 8.93803L2.10572 9.70258C2.17563 9.53358 2.27817 9.38002 2.40746 9.25067L0.99294 7.83677ZM0.257624 8.93803C0.0872496 9.34986 -0.000292778 9.79123 7.15256e-07 10.2369L2 10.2356C1.99988 10.0527 2.0358 9.87158 2.10572 9.70258L0.257624 8.93803ZM5.36442e-07 10.2363V68.608H2V10.2363H5.36442e-07ZM5.36442e-07 68.608C5.36442e-07 69.0535 0.0877602 69.4946 0.258265 69.9062L2.10598 69.1407C2.03601 68.9718 2 68.7908 2 68.608H5.36442e-07ZM0.258265 69.9062C0.428771 70.3177 0.678684 70.6917 0.99373 71.0067L2.40779 69.5923C2.27851 69.4631 2.17595 69.3096 2.10598 69.1407L0.258265 69.9062ZM0.99373 71.0067C1.30877 71.3217 1.68278 71.5715 2.0944 71.7419L2.85946 69.894C2.69056 69.8241 2.53708 69.7216 2.40779 69.5923L0.99373 71.0067ZM2.0944 71.7419C2.50602 71.9123 2.94717 72 3.39265 71.9999L3.39221 69.9999C3.20938 69.9999 3.02835 69.964 2.85946 69.894L2.0944 71.7419ZM3.39243 71.9999H61.7637V69.9999H3.39243V71.9999ZM61.7634 71.9999C62.2089 72 62.6501 71.9123 63.0617 71.7419L62.2966 69.894C62.1277 69.964 61.9467 69.9999 61.7639 69.9999L61.7634 71.9999ZM63.0617 71.7419C63.4733 71.5715 63.8473 71.3216 64.1624 71.0067L62.7483 69.5923C62.619 69.7216 62.4655 69.8241 62.2966 69.894L63.0617 71.7419ZM64.1624 71.0067C64.4774 70.6917 64.7273 70.3178 64.8978 69.9062L63.0501 69.1407C62.9801 69.3096 62.8776 69.4631 62.7483 69.5923L64.1624 71.0067ZM64.8978 69.9062C65.0683 69.4946 65.1561 69.0535 65.1561 68.608H63.1561C63.1561 68.7908 63.1201 68.9718 63.0501 69.1407L64.8978 69.9062ZM65.1561 68.608V30.7816H63.1561V68.608H65.1561ZM65.1561 30.7816C65.1561 30.1451 64.9032 29.5346 64.4531 29.0845L63.0389 30.4987C63.1139 30.5737 63.1561 30.6755 63.1561 30.7816H65.1561ZM64.4531 29.0845C64.003 28.6343 63.3925 28.3815 62.7559 28.3815V30.3815C62.862 30.3815 62.9638 30.4236 63.0389 30.4987L64.4531 29.0845ZM62.7559 28.3815H59.8159V30.3815H62.7559V28.3815ZM59.8155 28.3815C59.1791 28.3817 58.5689 28.6347 58.1189 29.0848L59.5334 30.4987C59.6084 30.4237 59.7102 30.3815 59.8163 30.3815L59.8155 28.3815ZM58.1189 29.0848C57.669 29.5349 57.4162 30.1452 57.4162 30.7816H59.4162C59.4162 30.6755 59.4584 30.5738 59.5334 30.4987L58.1189 29.0848ZM57.4162 30.7816V62.8666H59.4162V30.7816H57.4162ZM57.4162 62.8672C57.4164 63.0503 57.3804 63.2316 57.3103 63.4007L59.1581 64.166C59.3288 63.7538 59.4165 63.312 59.4162 62.8659L57.4162 62.8672ZM57.3103 63.4007C57.2403 63.5699 57.1376 63.7235 57.008 63.8529L58.4215 65.2679C58.7371 64.9526 58.9874 64.5782 59.1581 64.166L57.3103 63.4007ZM57.008 63.8529C56.8785 63.9823 56.7247 64.0849 56.5555 64.1547L57.3188 66.0033C57.7311 65.8331 58.1058 65.5832 58.4215 65.2679L57.008 63.8529ZM56.5555 64.1547C56.3863 64.2246 56.205 64.2604 56.0219 64.26L56.0184 66.26C56.4645 66.2608 56.9064 66.1736 57.3188 66.0033L56.5555 64.1547ZM56.0201 64.26H9.13385V66.26H56.0201V64.26ZM9.13363 64.26C8.95082 64.2601 8.76978 64.2241 8.60087 64.1542L7.83581 66.0021C8.24742 66.1725 8.68857 66.2601 9.13407 66.26L9.13363 64.26ZM8.60087 64.1542C8.43196 64.0842 8.27848 63.9817 8.1492 63.8525L6.73515 65.2668C7.05019 65.5818 7.4242 65.8317 7.83581 66.0021L8.60087 64.1542ZM8.1492 63.8525C8.01992 63.7232 7.91737 63.5698 7.8474 63.4009L5.99968 64.1663C6.17019 64.5779 6.4201 64.9519 6.73515 65.2668L8.1492 63.8525ZM7.8474 63.4009C7.77743 63.232 7.74142 63.051 7.74142 62.8681H5.74142C5.74142 63.3136 5.82917 63.7548 5.99968 64.1663L7.8474 63.4009ZM7.74142 62.8681V15.9777H5.74142V62.8681H7.74142ZM7.74142 15.9777C7.74142 15.7949 7.77743 15.6138 7.8474 15.4449L5.99968 14.6795C5.82917 15.091 5.74142 15.5322 5.74142 15.9777H7.74142ZM7.8474 15.4449C7.91737 15.276 8.01992 15.1226 8.1492 14.9933L6.73515 13.579C6.4201 13.8939 6.17019 14.2679 5.99968 14.6795L7.8474 15.4449ZM8.1492 14.9933C8.27849 14.8641 8.43196 14.7616 8.60087 14.6916L7.83581 12.8437C7.4242 13.0142 7.05019 13.264 6.73515 13.579L8.1492 14.9933ZM8.60087 14.6916C8.76978 14.6217 8.95081 14.5857 9.13363 14.5858L9.13407 12.5858C8.68857 12.5857 8.24742 12.6733 7.83581 12.8437L8.60087 14.6916ZM9.13385 14.5858H41.2188V12.5858H9.13385V14.5858ZM41.2192 14.5858C41.8556 14.5855 42.4658 14.3325 42.9158 13.8824L41.5013 12.4685C41.4263 12.5435 41.3245 12.5857 41.2184 12.5858L41.2192 14.5858ZM42.9158 13.8824C43.3657 13.4324 43.6184 12.822 43.6184 12.1856H41.6184C41.6184 12.2917 41.5763 12.3935 41.5013 12.4685L42.9158 13.8824ZM43.6184 12.1856V9.24243H41.6184V12.1856H43.6184ZM28.1097 45.1562L38.259 41.7731L37.6266 39.8757L27.4772 43.2588L28.1097 45.1562ZM38.6499 40.1173L31.8837 33.3501L30.4694 34.7642L37.2356 41.5314L38.6499 40.1173ZM30.2279 33.7409L26.8448 43.8913L28.7421 44.5237L32.1253 34.3733L30.2279 33.7409ZM64.0353 14.7303L57.269 7.96459L55.8549 9.37886L62.6211 16.1445L64.0353 14.7303ZM55.8549 7.96462L32.1726 31.6469L33.5868 33.0611L57.2691 9.37883L55.8549 7.96462ZM32.1725 33.0611L38.9388 39.8278L40.353 38.4137L33.5868 31.6469L32.1725 33.0611ZM40.353 39.8278L64.0353 16.1445L62.6211 14.7303L38.9388 38.4137L40.353 39.8278ZM71.1441 9.03574C71.6922 8.48723 72.0001 7.74353 72.0001 6.96809H70.0001C70.0001 7.21335 69.9027 7.44857 69.7293 7.62205L71.1441 9.03574ZM72.0001 6.96809C72.0001 6.19266 71.6922 5.44896 71.1441 4.90044L69.7293 6.31413C69.9027 6.48762 70.0001 6.72284 70.0001 6.96809H72.0001ZM71.1438 4.90018L67.1013 0.857673L65.6871 2.27189L69.7296 6.3144L71.1438 4.90018ZM67.1014 0.857796C66.8299 0.586151 66.5075 0.370673 66.1526 0.223661L65.3871 2.07135C65.4993 2.11782 65.6011 2.18592 65.687 2.27176L67.1014 0.857796ZM66.1526 0.223661C65.7978 0.0766469 65.4175 0.000976562 65.0334 0.000976562V2.00098C65.1548 2.00098 65.275 2.02489 65.3871 2.07135L66.1526 0.223661ZM65.0334 0.000976562C64.6493 0.000976562 64.269 0.0766454 63.9141 0.223661L64.6797 2.07135C64.7918 2.02489 64.912 2.00098 65.0334 2.00098V0.000976562ZM63.9141 0.223661C63.5593 0.370675 63.2369 0.586155 62.9654 0.857796L64.3798 2.27176C64.4656 2.18592 64.5675 2.11782 64.6797 2.07135L63.9141 0.223661ZM62.9655 0.857673L57.558 6.26519L58.9722 7.6794L64.3797 2.27189L62.9655 0.857673ZM57.558 7.6794L64.3242 14.4456L65.7384 13.0314L58.9722 6.26519L57.558 7.6794ZM65.7384 14.4456L71.1459 9.0381L69.7317 7.62389L64.3242 13.0314L65.7384 14.4456ZM71.1461 7.62413L71.144 7.62203L69.7294 9.03576L69.7315 9.03786L71.1461 7.62413Z" fill="#3EB1F9" mask="url(#path-1-outside-1_14_23)"/>
</svg>
