<svg width="83" height="82" viewBox="0 0 83 82" fill="none" xmlns="http://www.w3.org/2000/svg">
<path d="M29.148 36.1139L28.9007 35.8697V30.496L29.148 30.2518H30.1369L30.3841 30.496V35.8697L30.1369 36.1139H29.148Z" fill="#3EB1F9"/>
<path d="M52.8824 54.1888L52.6352 53.9446V48.5709L52.8824 48.3267H53.8714L54.1186 48.5709V53.9446L53.8714 54.1888H52.8824Z" fill="#3EB1F9"/>
<path fill-rule="evenodd" clip-rule="evenodd" d="M70.8449 12.0076L41.5 -0.000976562L12.1551 12.0076L0 40.999L12.1551 69.9904L41.5 81.999L70.8449 69.9904L83 40.999L70.8449 12.0076ZM21.9782 28.2977V38.068L26.1811 41.7318H33.0543L37.3067 38.068V28.2977L33.0543 24.6339H26.1811L21.9782 28.2977ZM45.7126 46.3726V56.1429L49.9156 59.8067H56.7887L61.0412 56.1429V46.3726L56.7887 42.7088H49.9156L45.7126 46.3726ZM36.565 59.3182L53.8714 25.1224H46.4543L29.148 59.3182H36.565Z" fill="#3EB1F9"/>
</svg>
