<svg width="654" height="216" viewBox="0 0 654 216" fill="none" xmlns="http://www.w3.org/2000/svg">
<path d="M0 36C0 22.7452 10.7452 12 24 12H630C643.255 12 654 22.7452 654 36V134H0V36Z" fill="#DD2225"/>
<path d="M0 192C0 205.255 10.7452 216 24 216H630C643.255 216 654 205.255 654 192V134H0V192Z" fill="#0083D4"/>
<path d="M168.624 115H113.569V94.43H128.089V50.87H113.569V30.3H154.104V94.43H168.624V115ZM177.661 78.7L193.391 64.18H215.776L220.011 60.55V53.895L216.986 50.87H180.081V30.3H233.321L246.026 41.795V69.02L230.296 83.54H207.911L203.676 87.17V94.43H243.001V115H177.661V78.7ZM255.059 78.7L270.789 64.18H293.174L297.409 60.55V53.895L294.384 50.87H257.479V30.3H310.719L323.424 41.795V69.02L307.694 83.54H285.309L281.074 87.17V94.43H320.399V115H255.059V78.7ZM331.851 70.23V56.315H340.321V44.82L356.051 30.3H405.056V49.66H368.756L366.336 52.08V56.315H391.746V70.23H366.336V75.07H391.746V88.985H366.336V93.22L368.756 95.64H405.056V115H356.051L340.321 100.48V88.985H331.851V75.07H340.321V70.23H331.851Z" fill="url(#paint0_linear_1767_78)"/>
<path d="M36.6548 168.56L35.9348 169.28V181.52L36.6548 182.24H42.0548L42.7748 181.52V169.28L42.0548 168.56H36.6548ZM32.8748 162.44H45.8348L50.5148 166.76V184.04L45.8348 188.36H32.8748L28.1948 184.04V166.76L32.8748 162.44ZM69.6117 174.32V162.8H77.3517V188H69.7917L62.9517 176.48H62.7717V188H55.0317V162.8H62.6277L69.4317 174.32H69.6117ZM102.55 188H94.8103V180.62L86.7103 162.8H94.6303L98.5903 172.16H98.7703L102.73 162.8H110.65L102.55 180.62V188ZM119.624 168.56L118.904 169.28V181.52L119.624 182.24H125.024L125.744 181.52V169.28L125.024 168.56H119.624ZM115.844 162.44H128.804L133.484 166.76V184.04L128.804 188.36H115.844L111.164 184.04V166.76L115.844 162.44ZM151.86 181.52V162.8H159.6V184.04L154.92 188.36H142.68L138 184.04V162.8H145.74V181.52L146.46 182.24H151.14L151.86 181.52ZM179.049 188L174.909 180.62H172.389V188H164.649V162.8H181.209L185.529 166.76V175.76L181.929 179L186.969 188H179.049ZM177.789 169.64L177.069 168.92H172.389V174.5H177.069L177.789 173.78V169.64ZM198.153 162.8H217.413V168.92H205.893V173.24H213.993V179.36H205.893V188H198.153V162.8ZM235.057 188H219.397V181.88H223.357V168.92H219.397V162.8H235.057V168.92H231.097V181.88H235.057V188ZM253.404 188L249.264 180.62H246.744V188H239.004V162.8H255.564L259.884 166.76V175.76L256.284 179L261.324 188H253.404ZM252.144 169.64L251.424 168.92H246.744V174.5H251.424L252.144 173.78V169.64ZM267.451 178.1L263.131 174.14V166.76L267.451 162.8H283.111V168.92H271.591L270.871 169.64V171.26L271.591 171.98H280.051L284.371 175.94V184.04L280.051 188H263.311V181.88H275.911L276.631 181.16V178.82L275.911 178.1H267.451ZM299.681 188H291.941V168.92H286.001V162.8H305.621V168.92H299.681V188ZM316.067 188V162.8H333.167L337.847 167.12V183.68L333.167 188H316.067ZM323.807 181.88H329.387L330.107 181.16V169.64L329.387 168.92H323.807V181.88ZM342.364 162.8H361.444V168.92H350.104V172.52H358.204V178.28H350.104V181.88H361.804V188H342.364V162.8ZM382.135 181.34H372.955V188H365.215V162.8H382.135L386.455 166.76V177.38L382.135 181.34ZM378.715 169.64L377.995 168.92H372.955V175.22H377.995L378.715 174.5V169.64ZM398.342 168.56L397.622 169.28V181.52L398.342 182.24H403.742L404.462 181.52V169.28L403.742 168.56H398.342ZM394.562 162.44H407.522L412.202 166.76V184.04L407.522 188.36H394.562L389.882 184.04V166.76L394.562 162.44ZM419.959 178.1L415.639 174.14V166.76L419.959 162.8H435.619V168.92H424.099L423.379 169.64V171.26L424.099 171.98H432.559L436.879 175.94V184.04L432.559 188H415.819V181.88H428.419L429.139 181.16V178.82L428.419 178.1H419.959ZM455.241 188H439.581V181.88H443.541V168.92H439.581V162.8H455.241V168.92H451.281V181.88H455.241V188ZM471.068 188H463.328V168.92H457.388V162.8H477.008V168.92H471.068V188ZM487.627 162.8V173.24L486.367 179.72H481.147L479.887 173.24V162.8H487.627ZM487.267 188H480.247V181.88H487.267V188Z" fill="url(#paint1_linear_1767_78)"/>
<path d="M620.003 121.162C619.292 120.448 618.44 120.102 617.435 120.102H577.061V181H613.637C617.82 181 621 177.393 621 173.189V123.799C621 122.789 620.713 121.876 620.003 121.162Z" fill="url(#paint2_linear_1767_78)"/>
<path d="M564.939 120.102H524.901C522.809 120.102 521 121.697 521 123.799V173.189C521 177.392 524.516 181 528.699 181H564.939V120.102Z" fill="url(#paint3_linear_1767_78)"/>
<path d="M564.939 80.5179H528.756C524.566 80.5179 521.001 83.9312 521.001 88.1408V105.881C521.001 110.091 524.566 113.504 528.756 113.504H564.94L564.939 80.5179Z" fill="url(#paint4_linear_1767_78)"/>
<path d="M613.581 80.5179H577.061V113.504H613.581C617.771 113.504 621 110.091 621 105.881V88.1408C621 83.9307 617.771 80.5179 613.581 80.5179Z" fill="url(#paint5_linear_1767_78)"/>
<path d="M591.321 50.1484C588.635 48.0596 585.954 47 583.351 47C578.148 47 574.064 50.8787 571.177 58.5351C568.29 50.8787 564.207 47 559.004 47C556.402 47 553.72 48.0596 551.034 50.1484C545.923 54.1241 545.38 58.2631 545.824 61.0355C547.488 71.4237 566.184 78.557 569.915 79.882C570.326 80.0282 570.753 80.0997 571.177 80.0997H571.178C571.602 80.0997 572.028 80.0282 572.439 79.882C576.17 78.5575 594.866 71.4232 596.53 61.0355C596.974 58.2631 596.431 54.1246 591.321 50.1484ZM562.632 68.2362C554.505 63.743 553.437 60.662 553.303 59.8252C553.132 58.7544 553.929 57.5237 555.671 56.1682C556.98 55.1502 558.132 54.6123 559.004 54.6123C560.625 54.6123 563.093 57.2096 565.162 64.4996C565.717 66.4545 566.148 68.4255 566.478 70.1946C565.261 69.6217 563.949 68.964 562.632 68.2362ZM589.051 59.8247C588.525 63.1218 582.106 67.269 575.849 70.2307C577.333 62.4281 580.205 54.6123 583.351 54.6123C584.223 54.6123 585.375 55.1502 586.683 56.1682C588.425 57.5232 589.222 58.7534 589.051 59.8247Z" fill="url(#paint6_linear_1767_78)"/>
<defs>
<linearGradient id="paint0_linear_1767_78" x1="257.5" y1="30.5" x2="257.5" y2="115" gradientUnits="userSpaceOnUse">
<stop stop-color="white"/>
<stop offset="0.484275" stop-color="#FBFBFB"/>
<stop offset="0.484375" stop-color="#DCDCDC"/>
<stop offset="0.901042" stop-color="white"/>
</linearGradient>
<linearGradient id="paint1_linear_1767_78" x1="258" y1="163.899" x2="258" y2="185.784" gradientUnits="userSpaceOnUse">
<stop stop-color="white"/>
<stop offset="0.484275" stop-color="#FBFBFB"/>
<stop offset="0.484375" stop-color="#DCDCDC"/>
<stop offset="0.901042" stop-color="white"/>
</linearGradient>
<linearGradient id="paint2_linear_1767_78" x1="611.306" y1="50.6077" x2="611.306" y2="181" gradientUnits="userSpaceOnUse">
<stop offset="0.357421" stop-color="white"/>
<stop offset="0.70328" stop-color="#DCDCDC"/>
<stop offset="0.933981" stop-color="white"/>
</linearGradient>
<linearGradient id="paint3_linear_1767_78" x1="611.306" y1="50.6077" x2="611.306" y2="181" gradientUnits="userSpaceOnUse">
<stop offset="0.357421" stop-color="white"/>
<stop offset="0.70328" stop-color="#DCDCDC"/>
<stop offset="0.933981" stop-color="white"/>
</linearGradient>
<linearGradient id="paint4_linear_1767_78" x1="611.306" y1="50.6077" x2="611.306" y2="181" gradientUnits="userSpaceOnUse">
<stop offset="0.357421" stop-color="white"/>
<stop offset="0.70328" stop-color="#DCDCDC"/>
<stop offset="0.933981" stop-color="white"/>
</linearGradient>
<linearGradient id="paint5_linear_1767_78" x1="611.306" y1="50.6077" x2="611.306" y2="181" gradientUnits="userSpaceOnUse">
<stop offset="0.357421" stop-color="white"/>
<stop offset="0.70328" stop-color="#DCDCDC"/>
<stop offset="0.933981" stop-color="white"/>
</linearGradient>
<linearGradient id="paint6_linear_1767_78" x1="611.306" y1="50.6077" x2="611.306" y2="181" gradientUnits="userSpaceOnUse">
<stop offset="0.357421" stop-color="white"/>
<stop offset="0.70328" stop-color="#DCDCDC"/>
<stop offset="0.933981" stop-color="white"/>
</linearGradient>
</defs>
</svg>
