<svg width="654" height="216" viewBox="0 0 654 216" fill="none" xmlns="http://www.w3.org/2000/svg">
<path d="M0 36C0 22.7452 10.7452 12 24 12H630C643.255 12 654 22.7452 654 36V134H0V36Z" fill="#DD2225"/>
<path d="M0 192C0 205.255 10.7452 216 24 216H630C643.255 216 654 205.255 654 192V134H0V192Z" fill="#0083D4"/>
<path d="M168.624 115H113.569V94.43H128.089V50.87H113.569V30.3H154.104V94.43H168.624V115ZM177.661 78.7L193.391 64.18H215.776L220.011 60.55V53.895L216.986 50.87H180.081V30.3H233.321L246.026 41.795V69.02L230.296 83.54H207.911L203.676 87.17V94.43H243.001V115H177.661V78.7ZM255.059 78.7L270.789 64.18H293.174L297.409 60.55V53.895L294.384 50.87H257.479V30.3H310.719L323.424 41.795V69.02L307.694 83.54H285.309L281.074 87.17V94.43H320.399V115H255.059V78.7ZM331.851 70.23V56.315H340.321V44.82L356.051 30.3H405.056V49.66H368.756L366.336 52.08V56.315H391.746V70.23H366.336V75.07H391.746V88.985H366.336V93.22L368.756 95.64H405.056V115H356.051L340.321 100.48V88.985H331.851V75.07H340.321V70.23H331.851Z" fill="url(#paint0_linear_1777_816)"/>
<path d="M110.8 146.2H128.82V151.98H118.11V155.38H125.76V160.82H118.11V164.22H129.16V170H110.8V146.2ZM146.152 157.08V146.2H153.462V170H146.322L139.862 159.12H139.692V170H132.382V146.2H139.556L145.982 157.08H146.152ZM161.274 160.65L157.194 156.91V149.94L161.274 146.2H176.064V151.98H165.184L164.504 152.66V154.19L165.184 154.87H173.174L177.254 158.61V166.26L173.174 170H157.364V164.22H169.264L169.944 163.54V161.33L169.264 160.65H161.274ZM194.595 170H179.805V164.22H183.545V151.98H179.805V146.2H194.595V151.98H190.855V164.22H194.595V170ZM212.773 165.24H208.863L205.803 159.29H205.633V170H198.323V146.2H205.633L210.733 155.89H210.903L216.003 146.2H223.313V170H216.003V159.29H215.833L212.773 165.24ZM242.523 165.24H238.613L235.553 159.29H235.383V170H228.073V146.2H235.383L240.483 155.89H240.653L245.753 146.2H253.063V170H245.753V159.29H245.583L242.523 165.24ZM271.253 165.24H264.453L262.923 170H255.443L263.093 146.2H272.613L280.263 170H272.783L271.253 165.24ZM267.853 154.19L266.323 159.46H269.383L267.853 154.19ZM267.003 143.31H261.223V138.55H267.003V143.31ZM274.483 143.31H268.703V138.55H274.483V143.31ZM296.429 170H281.639V164.22H285.379V151.98H281.639V146.2H296.429V151.98H292.689V164.22H296.429V170ZM303.217 160.65L299.137 156.91V149.94L303.217 146.2H318.007V151.98H307.127L306.447 152.66V154.19L307.127 154.87H315.117L319.197 158.61V166.26L315.117 170H299.307V164.22H311.207L311.887 163.54V161.33L311.207 160.65H303.217ZM322.769 146.2H340.789V151.98H330.079V155.38H337.729V160.82H330.079V164.22H341.129V170H322.769V146.2ZM344.351 146.2H351.661V164.22H361.691V170H344.351V146.2ZM364.737 146.2H372.047V164.22H382.077V170H364.737V146.2ZM398.554 165.24H391.754L390.224 170H382.744L390.394 146.2H399.914L407.564 170H400.084L398.554 165.24ZM395.154 154.19L393.624 159.46H396.684L395.154 154.19ZM394.304 143.31H388.524V138.55H394.304V143.31ZM401.784 143.31H396.004V138.55H401.784V143.31ZM123.879 204H116.569V185.98H110.959V180.2H129.489V185.98H123.879V204ZM144.617 199.24H137.817L136.287 204H128.807L136.457 180.2H145.977L153.627 204H146.147L144.617 199.24ZM141.217 188.19L139.687 193.46H142.747L141.217 188.19ZM156.023 180.2H163.333V198.22H173.363V204H156.023V180.2ZM176.409 180.2H183.719V198.22H193.749V204H176.409V180.2ZM196.796 180.2H214.816V185.98H204.106V189.38H211.756V194.82H204.106V198.22H215.156V204H196.796V180.2ZM229.598 204H222.288V185.98H216.678V180.2H235.208V185.98H229.598V204ZM251.357 197.88V180.2H258.667V200.26L254.247 204.34H242.687L238.267 200.26V180.2H245.577V197.88L246.257 198.56H250.677L251.357 197.88ZM270.745 194.99V204H263.435V180.2H270.745V189.21H271.255L276.355 180.2H284.175L277.375 191.76L284.855 204H277.035L271.765 194.99H270.745ZM289.969 194.65L285.889 190.91V183.94L289.969 180.2H304.759V185.98H293.879L293.199 186.66V188.19L293.879 188.87H301.869L305.949 192.61V200.26L301.869 204H286.059V198.22H297.959L298.639 197.54V195.33L297.959 194.65H289.969ZM309.521 180.2H327.541V185.98H316.831V189.38H324.481V194.82H316.831V198.22H327.881V204H309.521V180.2ZM331.103 180.2H338.413V198.22H348.443V204H331.103V180.2ZM351.489 180.2H358.799V198.22H368.829V204H351.489V180.2ZM385.306 199.24H378.506L376.976 204H369.496L377.146 180.2H386.666L394.316 204H386.836L385.306 199.24ZM381.906 188.19L380.376 193.46H383.436L381.906 188.19ZM403.682 180.2V190.06L402.492 196.18H397.562L396.372 190.06V180.2H403.682ZM403.342 204H396.712V198.22H403.342V204Z" fill="url(#paint1_linear_1777_816)"/>
<path d="M580.003 121.162C579.292 120.448 578.44 120.102 577.435 120.102H537.061V181H573.637C577.82 181 581 177.393 581 173.189V123.799C581 122.789 580.713 121.876 580.003 121.162Z" fill="url(#paint2_linear_1777_816)"/>
<path d="M524.939 120.102H484.901C482.809 120.102 481 121.697 481 123.799V173.189C481 177.392 484.516 181 488.699 181H524.939V120.102Z" fill="url(#paint3_linear_1777_816)"/>
<path d="M524.939 80.5179H488.756C484.566 80.5179 481.001 83.9312 481.001 88.1408V105.881C481.001 110.091 484.566 113.504 488.756 113.504H524.94L524.939 80.5179Z" fill="url(#paint4_linear_1777_816)"/>
<path d="M573.581 80.5179H537.061V113.504H573.581C577.771 113.504 581 110.091 581 105.881V88.1408C581 83.9307 577.771 80.5179 573.581 80.5179Z" fill="url(#paint5_linear_1777_816)"/>
<path d="M551.321 50.1484C548.635 48.0596 545.954 47 543.351 47C538.148 47 534.064 50.8787 531.177 58.5351C528.29 50.8787 524.207 47 519.004 47C516.402 47 513.72 48.0596 511.034 50.1484C505.923 54.1241 505.38 58.2631 505.824 61.0355C507.488 71.4237 526.184 78.557 529.915 79.882C530.326 80.0282 530.753 80.0997 531.177 80.0997H531.178C531.602 80.0997 532.028 80.0282 532.439 79.882C536.17 78.5575 554.866 71.4232 556.53 61.0355C556.974 58.2631 556.431 54.1246 551.321 50.1484ZM522.632 68.2362C514.505 63.743 513.437 60.662 513.303 59.8252C513.132 58.7544 513.929 57.5237 515.671 56.1682C516.98 55.1502 518.132 54.6123 519.004 54.6123C520.625 54.6123 523.093 57.2096 525.162 64.4996C525.717 66.4545 526.148 68.4255 526.478 70.1946C525.261 69.6217 523.949 68.964 522.632 68.2362ZM549.051 59.8247C548.525 63.1218 542.106 67.269 535.849 70.2307C537.333 62.4281 540.205 54.6123 543.351 54.6123C544.223 54.6123 545.375 55.1502 546.683 56.1682C548.425 57.5232 549.222 58.7534 549.051 59.8247Z" fill="url(#paint6_linear_1777_816)"/>
<defs>
<linearGradient id="paint0_linear_1777_816" x1="257.5" y1="30.5" x2="257.5" y2="115" gradientUnits="userSpaceOnUse">
<stop stop-color="white"/>
<stop offset="0.484275" stop-color="#FBFBFB"/>
<stop offset="0.484375" stop-color="#DCDCDC"/>
<stop offset="0.901042" stop-color="white"/>
</linearGradient>
<linearGradient id="paint1_linear_1777_816" x1="258" y1="154.921" x2="258" y2="196.259" gradientUnits="userSpaceOnUse">
<stop stop-color="white"/>
<stop offset="0.484275" stop-color="#FBFBFB"/>
<stop offset="0.484375" stop-color="#DCDCDC"/>
<stop offset="0.901042" stop-color="white"/>
</linearGradient>
<linearGradient id="paint2_linear_1777_816" x1="571.306" y1="50.6077" x2="571.306" y2="181" gradientUnits="userSpaceOnUse">
<stop offset="0.357421" stop-color="white"/>
<stop offset="0.70328" stop-color="#DCDCDC"/>
<stop offset="0.933981" stop-color="white"/>
</linearGradient>
<linearGradient id="paint3_linear_1777_816" x1="571.306" y1="50.6077" x2="571.306" y2="181" gradientUnits="userSpaceOnUse">
<stop offset="0.357421" stop-color="white"/>
<stop offset="0.70328" stop-color="#DCDCDC"/>
<stop offset="0.933981" stop-color="white"/>
</linearGradient>
<linearGradient id="paint4_linear_1777_816" x1="571.306" y1="50.6077" x2="571.306" y2="181" gradientUnits="userSpaceOnUse">
<stop offset="0.357421" stop-color="white"/>
<stop offset="0.70328" stop-color="#DCDCDC"/>
<stop offset="0.933981" stop-color="white"/>
</linearGradient>
<linearGradient id="paint5_linear_1777_816" x1="571.306" y1="50.6077" x2="571.306" y2="181" gradientUnits="userSpaceOnUse">
<stop offset="0.357421" stop-color="white"/>
<stop offset="0.70328" stop-color="#DCDCDC"/>
<stop offset="0.933981" stop-color="white"/>
</linearGradient>
<linearGradient id="paint6_linear_1777_816" x1="571.306" y1="50.6077" x2="571.306" y2="181" gradientUnits="userSpaceOnUse">
<stop offset="0.357421" stop-color="white"/>
<stop offset="0.70328" stop-color="#DCDCDC"/>
<stop offset="0.933981" stop-color="white"/>
</linearGradient>
</defs>
</svg>
