<svg width="654" height="216" viewBox="0 0 654 216" fill="none" xmlns="http://www.w3.org/2000/svg">
<path d="M0 36C0 22.7452 10.7452 12 24 12H630C643.255 12 654 22.7452 654 36V134H0V36Z" fill="#DD2225"/>
<path d="M0 192C0 205.255 10.7452 216 24 216H630C643.255 216 654 205.255 654 192V134H0V192Z" fill="#0083D4"/>
<path d="M168.624 115H113.569V94.43H128.089V50.87H113.569V30.3H154.104V94.43H168.624V115ZM177.661 78.7L193.391 64.18H215.776L220.011 60.55V53.895L216.986 50.87H180.081V30.3H233.321L246.026 41.795V69.02L230.296 83.54H207.911L203.676 87.17V94.43H243.001V115H177.661V78.7ZM255.059 78.7L270.789 64.18H293.174L297.409 60.55V53.895L294.384 50.87H257.479V30.3H310.719L323.424 41.795V69.02L307.694 83.54H285.309L281.074 87.17V94.43H320.399V115H255.059V78.7ZM331.851 70.23V56.315H340.321V44.82L356.051 30.3H405.056V49.66H368.756L366.336 52.08V56.315H391.746V70.23H366.336V75.07H391.746V88.985H366.336V93.22L368.756 95.64H405.056V115H356.051L340.321 100.48V88.985H331.851V75.07H340.321V70.23H331.851Z" fill="url(#paint0_linear_1777_1165)"/>
<path d="M60.8441 182.23H50.1341V190H41.1041V160.6H60.8441L65.8841 165.22V177.61L60.8441 182.23ZM56.8541 168.58L56.0141 167.74H50.1341V175.09H56.0141L56.8541 174.25V168.58ZM87.3123 190L82.4823 181.39H79.5423V190H70.5123V160.6H89.8323L94.8723 165.22V175.72L90.6723 179.5L96.5523 190H87.3123ZM85.8423 168.58L85.0023 167.74H79.5423V174.25H85.0023L85.8423 173.41V168.58ZM116.93 190H98.6605V182.86H103.28V167.74H98.6605V160.6H116.93V167.74H112.31V182.86H116.93V190ZM150.955 182.23H140.245V190H131.215V160.6H150.955L155.995 165.22V177.61L150.955 182.23ZM146.965 168.58L146.125 167.74H140.245V175.09H146.125L146.965 174.25V168.58ZM177.424 190L172.594 181.39H169.654V190H160.624V160.6H179.944L184.984 165.22V175.72L180.784 179.5L186.664 190H177.424ZM175.954 168.58L175.114 167.74H169.654V174.25H175.114L175.954 173.41V168.58ZM207.672 190H196.542L187.092 160.6H196.332L202.002 179.71H202.212L207.882 160.6H217.122L207.672 190ZM228.885 167.32L228.045 168.16V182.44L228.885 183.28H235.185L236.025 182.44V168.16L235.185 167.32H228.885ZM224.475 160.18H239.595L245.055 165.22V185.38L239.595 190.42H224.475L219.015 185.38V165.22L224.475 160.18ZM268.175 184.12H263.345L259.565 176.77H259.355V190H250.325V160.6H259.355L265.655 172.57H265.865L272.165 160.6H281.195V190H272.165V176.77H271.955L268.175 184.12ZM313.123 190H301.993L292.543 160.6H301.783L307.453 179.71H307.663L313.333 160.6H322.573L313.123 190ZM334.536 178.87V190H325.506V160.6H334.536V171.73H335.166L341.466 160.6H351.126L342.726 174.88L351.966 190H342.306L335.796 178.87H334.536ZM354.504 160.6H363.534V182.86H375.924V190H354.504V160.6ZM396.278 184.12H387.878L385.988 190H376.748L386.198 160.6H397.958L407.408 190H398.168L396.278 184.12ZM392.078 170.47L390.188 176.98H393.968L392.078 170.47ZM410.368 190V160.6H430.318L435.778 165.64V184.96L430.318 190H410.368ZM419.398 182.86H425.908L426.748 182.02V168.58L425.908 167.74H419.398V182.86ZM441.047 160.6H463.307V167.74H450.077V171.94H459.527V178.66H450.077V182.86H463.727V190H441.047V160.6ZM476.318 160.6V172.78L474.848 180.34H468.758L467.288 172.78V160.6H476.318ZM475.898 190H467.708V182.86H475.898V190Z" fill="url(#paint1_linear_1777_1165)"/>
<path d="M615.003 121.162C614.292 120.448 613.44 120.102 612.435 120.102H572.061V181H608.637C612.82 181 616 177.393 616 173.189V123.799C616 122.789 615.713 121.876 615.003 121.162Z" fill="url(#paint2_linear_1777_1165)"/>
<path d="M559.939 120.102H519.901C517.809 120.102 516 121.697 516 123.799V173.189C516 177.392 519.516 181 523.699 181H559.939V120.102Z" fill="url(#paint3_linear_1777_1165)"/>
<path d="M559.939 80.5179H523.756C519.566 80.5179 516.001 83.9312 516.001 88.1408V105.881C516.001 110.091 519.566 113.504 523.756 113.504H559.94L559.939 80.5179Z" fill="url(#paint4_linear_1777_1165)"/>
<path d="M608.581 80.5179H572.061V113.504H608.581C612.771 113.504 616 110.091 616 105.881V88.1408C616 83.9307 612.771 80.5179 608.581 80.5179Z" fill="url(#paint5_linear_1777_1165)"/>
<path d="M586.321 50.1484C583.635 48.0596 580.954 47 578.351 47C573.148 47 569.064 50.8787 566.177 58.5351C563.29 50.8787 559.207 47 554.004 47C551.402 47 548.72 48.0596 546.034 50.1484C540.923 54.1241 540.38 58.2631 540.824 61.0355C542.488 71.4237 561.184 78.557 564.915 79.882C565.326 80.0282 565.753 80.0997 566.177 80.0997H566.178C566.602 80.0997 567.028 80.0282 567.439 79.882C571.17 78.5575 589.866 71.4232 591.53 61.0355C591.974 58.2631 591.431 54.1246 586.321 50.1484ZM557.632 68.2362C549.505 63.743 548.437 60.662 548.303 59.8252C548.132 58.7544 548.929 57.5237 550.671 56.1682C551.98 55.1502 553.132 54.6123 554.004 54.6123C555.625 54.6123 558.093 57.2096 560.162 64.4996C560.717 66.4545 561.148 68.4255 561.478 70.1946C560.261 69.6217 558.949 68.964 557.632 68.2362ZM584.051 59.8247C583.525 63.1218 577.106 67.269 570.849 70.2307C572.333 62.4281 575.205 54.6123 578.351 54.6123C579.223 54.6123 580.375 55.1502 581.683 56.1682C583.425 57.5232 584.222 58.7534 584.051 59.8247Z" fill="url(#paint6_linear_1777_1165)"/>
<defs>
<linearGradient id="paint0_linear_1777_1165" x1="257.5" y1="30.5" x2="257.5" y2="115" gradientUnits="userSpaceOnUse">
<stop stop-color="white"/>
<stop offset="0.484275" stop-color="#FBFBFB"/>
<stop offset="0.484375" stop-color="#DCDCDC"/>
<stop offset="0.901042" stop-color="white"/>
</linearGradient>
<linearGradient id="paint1_linear_1777_1165" x1="258.5" y1="162.216" x2="258.5" y2="187.748" gradientUnits="userSpaceOnUse">
<stop stop-color="white"/>
<stop offset="0.484275" stop-color="#FBFBFB"/>
<stop offset="0.484375" stop-color="#DCDCDC"/>
<stop offset="0.901042" stop-color="white"/>
</linearGradient>
<linearGradient id="paint2_linear_1777_1165" x1="606.306" y1="50.6077" x2="606.306" y2="181" gradientUnits="userSpaceOnUse">
<stop offset="0.357421" stop-color="white"/>
<stop offset="0.70328" stop-color="#DCDCDC"/>
<stop offset="0.933981" stop-color="white"/>
</linearGradient>
<linearGradient id="paint3_linear_1777_1165" x1="606.306" y1="50.6077" x2="606.306" y2="181" gradientUnits="userSpaceOnUse">
<stop offset="0.357421" stop-color="white"/>
<stop offset="0.70328" stop-color="#DCDCDC"/>
<stop offset="0.933981" stop-color="white"/>
</linearGradient>
<linearGradient id="paint4_linear_1777_1165" x1="606.306" y1="50.6077" x2="606.306" y2="181" gradientUnits="userSpaceOnUse">
<stop offset="0.357421" stop-color="white"/>
<stop offset="0.70328" stop-color="#DCDCDC"/>
<stop offset="0.933981" stop-color="white"/>
</linearGradient>
<linearGradient id="paint5_linear_1777_1165" x1="606.306" y1="50.6077" x2="606.306" y2="181" gradientUnits="userSpaceOnUse">
<stop offset="0.357421" stop-color="white"/>
<stop offset="0.70328" stop-color="#DCDCDC"/>
<stop offset="0.933981" stop-color="white"/>
</linearGradient>
<linearGradient id="paint6_linear_1777_1165" x1="606.306" y1="50.6077" x2="606.306" y2="181" gradientUnits="userSpaceOnUse">
<stop offset="0.357421" stop-color="white"/>
<stop offset="0.70328" stop-color="#DCDCDC"/>
<stop offset="0.933981" stop-color="white"/>
</linearGradient>
</defs>
</svg>
