<svg width="654" height="216" viewBox="0 0 654 216" fill="none" xmlns="http://www.w3.org/2000/svg">
<path d="M0 36C0 22.7452 10.7452 12 24 12H630C643.255 12 654 22.7452 654 36V134H0V36Z" fill="#DD2225"/>
<path d="M0 192C0 205.255 10.7452 216 24 216H630C643.255 216 654 205.255 654 192V134H0V192Z" fill="#0083D4"/>
<path d="M168.624 115H113.569V94.43H128.089V50.87H113.569V30.3H154.104V94.43H168.624V115ZM177.661 78.7L193.391 64.18H215.776L220.011 60.55V53.895L216.986 50.87H180.081V30.3H233.321L246.026 41.795V69.02L230.296 83.54H207.911L203.676 87.17V94.43H243.001V115H177.661V78.7ZM255.059 78.7L270.789 64.18H293.174L297.409 60.55V53.895L294.384 50.87H257.479V30.3H310.719L323.424 41.795V69.02L307.694 83.54H285.309L281.074 87.17V94.43H320.399V115H255.059V78.7ZM331.851 70.23V56.315H340.321V44.82L356.051 30.3H405.056V49.66H368.756L366.336 52.08V56.315H391.746V70.23H366.336V75.07H391.746V88.985H366.336V93.22L368.756 95.64H405.056V115H356.051L340.321 100.48V88.985H331.851V75.07H340.321V70.23H331.851Z" fill="url(#paint0_linear_1777_587)"/>
<path d="M32.6899 162.8H40.4299V181.88H51.0499V188H32.6899V162.8ZM68.4959 182.96H61.2959L59.6759 188H51.7559L59.8559 162.8H69.9359L78.0359 188H70.1159L68.4959 182.96ZM64.8959 171.26L63.2759 176.84H66.5159L64.8959 171.26ZM105.79 181.34H96.6096V188H88.8696V162.8H105.79L110.11 166.76V177.38L105.79 181.34ZM102.37 169.64L101.65 168.92H96.6096V175.22H101.65L102.37 174.5V169.64ZM128.477 188L124.337 180.62H121.817V188H114.077V162.8H130.637L134.957 166.76V175.76L131.357 179L136.397 188H128.477ZM127.217 169.64L126.497 168.92H121.817V174.5H126.497L127.217 173.78V169.64ZM153.864 188H138.204V181.88H142.164V168.92H138.204V162.8H153.864V168.92H149.904V181.88H153.864V188ZM173.111 182.96H168.971L165.731 176.66H165.551V188H157.811V162.8H165.551L170.951 173.06H171.131L176.531 162.8H184.271V188H176.531V176.66H176.351L173.111 182.96ZM203.531 182.96H196.331L194.711 188H186.791L194.891 162.8H204.971L213.071 188H205.151L203.531 182.96ZM199.931 171.26L198.311 176.84H201.551L199.931 171.26ZM234.695 188H226.955V168.92H221.015V162.8H240.635V168.92H234.695V188ZM256.652 182.96H249.452L247.832 188H239.912L248.012 162.8H258.092L266.192 188H258.272L256.652 182.96ZM253.052 171.26L251.432 176.84H254.672L253.052 171.26ZM277.026 188V162.8H294.126L298.806 167.12V183.68L294.126 188H277.026ZM284.766 181.88H290.346L291.066 181.16V169.64L290.346 168.92H284.766V181.88ZM303.323 162.8H322.403V168.92H311.063V172.52H319.163V178.28H311.063V181.88H322.763V188H303.323V162.8ZM343.094 181.34H333.914V188H326.174V162.8H343.094L347.414 166.76V177.38L343.094 181.34ZM339.674 169.64L338.954 168.92H333.914V175.22H338.954L339.674 174.5V169.64ZM365.241 181.52V162.8H372.981V184.04L368.301 188.36H356.061L351.381 184.04V162.8H359.121V181.52L359.841 182.24H364.521L365.241 181.52ZM392.61 174.32V162.8H400.35V188H392.79L385.95 176.48H385.77V188H378.03V162.8H385.626L392.43 174.32H392.61ZM405.381 162.8H424.461V168.92H413.121V172.52H421.221V178.28H413.121V181.88H424.821V188H405.381V162.8ZM442.633 188L438.493 180.62H435.973V188H428.233V162.8H444.793L449.113 166.76V175.76L445.513 179L450.553 188H442.633ZM441.373 169.64L440.653 168.92H435.973V174.5H440.653L441.373 173.78V169.64ZM453.44 162.8H472.52V168.92H461.18V172.52H469.28V178.28H461.18V181.88H472.88V188H453.44V162.8ZM483.671 162.8V173.24L482.411 179.72H477.191L475.931 173.24V162.8H483.671ZM483.311 188H476.291V181.88H483.311V188Z" fill="url(#paint1_linear_1777_587)"/>
<path d="M618.003 121.162C617.292 120.448 616.44 120.102 615.435 120.102H575.061V181H611.637C615.82 181 619 177.393 619 173.189V123.799C619 122.789 618.713 121.876 618.003 121.162Z" fill="url(#paint2_linear_1777_587)"/>
<path d="M562.939 120.102H522.901C520.809 120.102 519 121.697 519 123.799V173.189C519 177.392 522.516 181 526.699 181H562.939V120.102Z" fill="url(#paint3_linear_1777_587)"/>
<path d="M562.939 80.5179H526.756C522.566 80.5179 519.001 83.9312 519.001 88.1408V105.881C519.001 110.091 522.566 113.504 526.756 113.504H562.94L562.939 80.5179Z" fill="url(#paint4_linear_1777_587)"/>
<path d="M611.581 80.5179H575.061V113.504H611.581C615.771 113.504 619 110.091 619 105.881V88.1408C619 83.9307 615.771 80.5179 611.581 80.5179Z" fill="url(#paint5_linear_1777_587)"/>
<path d="M589.321 50.1484C586.635 48.0596 583.954 47 581.351 47C576.148 47 572.064 50.8787 569.177 58.5351C566.29 50.8787 562.207 47 557.004 47C554.402 47 551.72 48.0596 549.034 50.1484C543.923 54.1241 543.38 58.2631 543.824 61.0355C545.488 71.4237 564.184 78.557 567.915 79.882C568.326 80.0282 568.753 80.0997 569.177 80.0997H569.178C569.602 80.0997 570.028 80.0282 570.439 79.882C574.17 78.5575 592.866 71.4232 594.53 61.0355C594.974 58.2631 594.431 54.1246 589.321 50.1484ZM560.632 68.2362C552.505 63.743 551.437 60.662 551.303 59.8252C551.132 58.7544 551.929 57.5237 553.671 56.1682C554.98 55.1502 556.132 54.6123 557.004 54.6123C558.625 54.6123 561.093 57.2096 563.162 64.4996C563.717 66.4545 564.148 68.4255 564.478 70.1946C563.261 69.6217 561.949 68.964 560.632 68.2362ZM587.051 59.8247C586.525 63.1218 580.106 67.269 573.849 70.2307C575.333 62.4281 578.205 54.6123 581.351 54.6123C582.223 54.6123 583.375 55.1502 584.683 56.1682C586.425 57.5232 587.222 58.7534 587.051 59.8247Z" fill="url(#paint6_linear_1777_587)"/>
<defs>
<linearGradient id="paint0_linear_1777_587" x1="257.5" y1="30.5" x2="257.5" y2="115" gradientUnits="userSpaceOnUse">
<stop stop-color="white"/>
<stop offset="0.484275" stop-color="#FBFBFB"/>
<stop offset="0.484375" stop-color="#DCDCDC"/>
<stop offset="0.901042" stop-color="white"/>
</linearGradient>
<linearGradient id="paint1_linear_1777_587" x1="258" y1="163.899" x2="258" y2="185.784" gradientUnits="userSpaceOnUse">
<stop stop-color="white"/>
<stop offset="0.484275" stop-color="#FBFBFB"/>
<stop offset="0.484375" stop-color="#DCDCDC"/>
<stop offset="0.901042" stop-color="white"/>
</linearGradient>
<linearGradient id="paint2_linear_1777_587" x1="609.306" y1="50.6077" x2="609.306" y2="181" gradientUnits="userSpaceOnUse">
<stop offset="0.357421" stop-color="white"/>
<stop offset="0.70328" stop-color="#DCDCDC"/>
<stop offset="0.933981" stop-color="white"/>
</linearGradient>
<linearGradient id="paint3_linear_1777_587" x1="609.306" y1="50.6077" x2="609.306" y2="181" gradientUnits="userSpaceOnUse">
<stop offset="0.357421" stop-color="white"/>
<stop offset="0.70328" stop-color="#DCDCDC"/>
<stop offset="0.933981" stop-color="white"/>
</linearGradient>
<linearGradient id="paint4_linear_1777_587" x1="609.306" y1="50.6077" x2="609.306" y2="181" gradientUnits="userSpaceOnUse">
<stop offset="0.357421" stop-color="white"/>
<stop offset="0.70328" stop-color="#DCDCDC"/>
<stop offset="0.933981" stop-color="white"/>
</linearGradient>
<linearGradient id="paint5_linear_1777_587" x1="609.306" y1="50.6077" x2="609.306" y2="181" gradientUnits="userSpaceOnUse">
<stop offset="0.357421" stop-color="white"/>
<stop offset="0.70328" stop-color="#DCDCDC"/>
<stop offset="0.933981" stop-color="white"/>
</linearGradient>
<linearGradient id="paint6_linear_1777_587" x1="609.306" y1="50.6077" x2="609.306" y2="181" gradientUnits="userSpaceOnUse">
<stop offset="0.357421" stop-color="white"/>
<stop offset="0.70328" stop-color="#DCDCDC"/>
<stop offset="0.933981" stop-color="white"/>
</linearGradient>
</defs>
</svg>
