<svg width="512" height="160" viewBox="0 0 512 160" fill="none" xmlns="http://www.w3.org/2000/svg">
<path d="M0 18.6885C0 8.36714 8.41212 0 18.789 0H493.211C503.588 0 512 8.36714 512 18.6885V95H0V18.6885Z" fill="#DD2225"/>
<path d="M0 140.976C0 151.482 8.41212 160 18.789 160H493.211C503.588 160 512 151.482 512 140.976V95H0V140.976Z" fill="#0083D4"/>
<path d="M132.064 82H89V65.4857H100.357V30.5143H89V14H120.706V65.4857H132.064V82Z" fill="url(#paint0_linear_0_17)"/>
<path d="M139.133 52.8571L151.437 41.2H168.946L172.259 38.2857V32.9429L169.892 30.5143H141.026V14H182.67L192.607 23.2286V45.0857L180.304 56.7429H162.794L159.481 59.6571V65.4857H190.241V82H139.133V52.8571Z" fill="url(#paint1_linear_0_17)"/>
<path d="M199.673 52.8571L211.977 41.2H229.486L232.799 38.2857V32.9429L230.432 30.5143H201.566V14H243.21L253.147 23.2286V45.0857L240.844 56.7429H223.334L220.021 59.6571V65.4857H250.781V82H199.673V52.8571Z" fill="url(#paint2_linear_0_17)"/>
<path d="M259.739 46.0571V34.8857H266.365V25.6571L278.669 14H317V29.5429H288.606L286.713 31.4857V34.8857H306.589V46.0571H286.713V49.9429H306.589V61.1143H286.713V64.5143L288.606 66.4571H317V82H278.669L266.365 70.3429V61.1143H259.739V49.9429H266.365V46.0571H259.739Z" fill="url(#paint3_linear_0_17)"/>
<path d="M29.5922 122.722L29.0312 123.278V132.722L29.5922 133.278H33.8L34.3611 132.722V123.278L33.8 122.722H29.5922ZM26.6468 118H36.7455L40.3923 121.333V134.667L36.7455 138H26.6468L23 134.667V121.333L26.6468 118Z" fill="url(#paint4_linear_0_17)"/>
<path d="M55.273 127.167V118.278H61.3042V137.722H55.4133L50.0834 128.833H49.9431V137.722H43.9119V118.278H49.8309L55.1327 127.167H55.273Z" fill="url(#paint5_linear_0_17)"/>
<path d="M80.9395 137.722H74.9083V132.028L68.5966 118.278H74.7681L77.8538 125.5H77.9941L81.0798 118.278H87.2512L80.9395 132.028V137.722Z" fill="url(#paint6_linear_0_17)"/>
<path d="M94.2434 122.722L93.6824 123.278V132.722L94.2434 133.278H98.4512L99.0123 132.722V123.278L98.4512 122.722H94.2434ZM91.298 118H101.397L105.043 121.333V134.667L101.397 138H91.298L87.6512 134.667V121.333L91.298 118Z" fill="url(#paint7_linear_0_17)"/>
<path d="M119.363 132.722V118.278H125.394V134.667L121.748 138H112.21L108.563 134.667V118.278H114.594V132.722L115.155 133.278H118.802L119.363 132.722Z" fill="url(#paint8_linear_0_17)"/>
<path d="M140.549 137.722L137.323 132.028H135.359V137.722H129.328V118.278H142.232L145.598 121.333V128.278L142.793 130.778L146.72 137.722H140.549ZM139.567 123.556L139.006 123H135.359V127.306H139.006L139.567 126.75V123.556Z" fill="url(#paint9_linear_0_17)"/>
<path d="M155.435 118.278H170.443V123H161.466V126.333H167.778V131.056H161.466V137.722H155.435V118.278Z" fill="url(#paint10_linear_0_17)"/>
<path d="M184.192 137.722H171.989V133H175.075V123H171.989V118.278H184.192V123H181.106V133H184.192V137.722Z" fill="url(#paint11_linear_0_17)"/>
<path d="M198.489 137.722L195.263 132.028H193.299V137.722H187.268V118.278H200.172L203.538 121.333V128.278L200.733 130.778L204.66 137.722H198.489ZM197.507 123.556L196.946 123H193.299V127.306H196.946L197.507 126.75V123.556Z" fill="url(#paint12_linear_0_17)"/>
<path d="M209.434 130.083L206.068 127.028V121.333L209.434 118.278H221.637V123H212.66L212.099 123.556V124.806L212.66 125.361H219.253L222.619 128.417V134.667L219.253 137.722H206.208V133H216.027L216.588 132.444V130.639L216.027 130.083H209.434Z" fill="url(#paint13_linear_0_17)"/>
<path d="M234.549 137.722H228.517V123H223.889V118.278H239.177V123H234.549V137.722Z" fill="url(#paint14_linear_0_17)"/>
<path d="M247.317 137.722V118.278H260.641L264.288 121.611V134.389L260.641 137.722H247.317ZM253.348 133H257.696L258.257 132.444V123.556L257.696 123H253.348V133Z" fill="url(#paint15_linear_0_17)"/>
<path d="M267.808 118.278H282.675V123H273.839V125.778H280.151V130.222H273.839V133H282.956V137.722H267.808V118.278Z" fill="url(#paint16_linear_0_17)"/>
<path d="M298.799 132.583H291.645V137.722H285.614V118.278H298.799L302.165 121.333V129.528L298.799 132.583ZM296.134 123.556L295.573 123H291.645V127.861H295.573L296.134 127.306V123.556Z" fill="url(#paint17_linear_0_17)"/>
<path d="M311.428 122.722L310.867 123.278V132.722L311.428 133.278H315.635L316.196 132.722V123.278L315.635 122.722H311.428ZM308.482 118H318.581L322.228 121.333V134.667L318.581 138H308.482L304.835 134.667V121.333L308.482 118Z" fill="url(#paint18_linear_0_17)"/>
<path d="M328.272 130.083L324.906 127.028V121.333L328.272 118.278H340.475V123H331.498L330.937 123.556V124.806L331.498 125.361H338.09L341.456 128.417V134.667L338.09 137.722H325.046V133H334.864L335.425 132.444V130.639L334.864 130.083H328.272Z" fill="url(#paint19_linear_0_17)"/>
<path d="M355.764 137.722H343.561V133H346.647V123H343.561V118.278H355.764V123H352.678V133H355.764V137.722Z" fill="url(#paint20_linear_0_17)"/>
<path d="M368.097 137.722H362.066V123H357.437V118.278H372.726V123H368.097V137.722Z" fill="url(#paint21_linear_0_17)"/>
<path d="M381 118.278V126.333L380.018 131.333H375.951L374.969 126.333V118.278H381ZM380.719 137.722H375.249V133H380.719V137.722Z" fill="url(#paint22_linear_0_17)"/>
<path d="M485.222 85.6654C484.668 85.1009 484.004 84.8268 483.22 84.8268H451.727V133H480.257C483.52 133 486 130.147 486 126.821V87.7513C486 86.9528 485.776 86.2302 485.222 85.6654Z" fill="url(#paint23_linear_0_17)"/>
<path d="M442.273 84.8268H411.043C409.411 84.8268 408 86.0889 408 87.7517V126.821C408 130.146 410.743 133 414.006 133H442.273V84.8268Z" fill="url(#paint24_linear_0_17)"/>
<path d="M442.273 53.5141H414.05C410.781 53.5141 408 56.2143 408 59.5442V73.5775C408 76.9079 410.782 79.608 414.05 79.608H442.273L442.273 53.5141Z" fill="url(#paint25_linear_0_17)"/>
<path d="M480.213 53.5141H451.727V79.608H480.213C483.482 79.608 486 76.9079 486 73.5775V59.5442C486 56.2139 483.482 53.5141 480.213 53.5141Z" fill="url(#paint26_linear_0_17)"/>
<path d="M462.85 29.4906C460.755 27.8382 458.664 27 456.634 27C452.576 27 449.39 30.0682 447.138 36.1248C444.887 30.0682 441.701 27 437.643 27C435.613 27 433.521 27.8382 431.427 29.4906C427.44 32.6355 427.017 35.9096 427.363 38.1027C428.661 46.3203 443.244 51.963 446.154 53.0111C446.474 53.1268 446.807 53.1834 447.138 53.1834H447.139C447.469 53.1834 447.802 53.1268 448.123 53.0111C451.033 51.9634 465.616 46.3199 466.914 38.1027C467.26 35.9096 466.836 32.6359 462.85 29.4906ZM440.473 43.7988C434.134 40.2444 433.301 37.8073 433.196 37.1453C433.063 36.2982 433.684 35.3247 435.044 34.2525C436.064 33.4472 436.963 33.0217 437.643 33.0217C438.907 33.0217 440.833 35.0762 442.446 40.843C442.879 42.3893 443.216 43.9486 443.473 45.348C442.524 44.8948 441.5 44.3745 440.473 43.7988ZM461.08 37.1449C460.669 39.7531 455.663 43.0337 450.782 45.3765C451.94 39.2043 454.18 33.0217 456.634 33.0217C457.314 33.0217 458.213 33.4472 459.233 34.2525C460.592 35.3243 461.213 36.2974 461.08 37.1449Z" fill="url(#paint27_linear_0_17)"/>
<defs>
<linearGradient id="paint0_linear_0_17" x1="203" y1="28.9209" x2="203" y2="70.259" gradientUnits="userSpaceOnUse">
<stop stop-color="white"/>
<stop offset="0.484275" stop-color="#FBFBFB"/>
<stop offset="0.484375" stop-color="#DCDCDC"/>
<stop offset="0.901042" stop-color="white"/>
</linearGradient>
<linearGradient id="paint1_linear_0_17" x1="203" y1="28.9209" x2="203" y2="70.259" gradientUnits="userSpaceOnUse">
<stop stop-color="white"/>
<stop offset="0.484275" stop-color="#FBFBFB"/>
<stop offset="0.484375" stop-color="#DCDCDC"/>
<stop offset="0.901042" stop-color="white"/>
</linearGradient>
<linearGradient id="paint2_linear_0_17" x1="203" y1="28.9209" x2="203" y2="70.259" gradientUnits="userSpaceOnUse">
<stop stop-color="white"/>
<stop offset="0.484275" stop-color="#FBFBFB"/>
<stop offset="0.484375" stop-color="#DCDCDC"/>
<stop offset="0.901042" stop-color="white"/>
</linearGradient>
<linearGradient id="paint3_linear_0_17" x1="203" y1="28.9209" x2="203" y2="70.259" gradientUnits="userSpaceOnUse">
<stop stop-color="white"/>
<stop offset="0.484275" stop-color="#FBFBFB"/>
<stop offset="0.484375" stop-color="#DCDCDC"/>
<stop offset="0.901042" stop-color="white"/>
</linearGradient>
<linearGradient id="paint4_linear_0_17" x1="202" y1="122.388" x2="202" y2="134.547" gradientUnits="userSpaceOnUse">
<stop stop-color="white"/>
<stop offset="0.484275" stop-color="#FBFBFB"/>
<stop offset="0.484375" stop-color="#DCDCDC"/>
<stop offset="0.901042" stop-color="white"/>
</linearGradient>
<linearGradient id="paint5_linear_0_17" x1="202" y1="122.388" x2="202" y2="134.547" gradientUnits="userSpaceOnUse">
<stop stop-color="white"/>
<stop offset="0.484275" stop-color="#FBFBFB"/>
<stop offset="0.484375" stop-color="#DCDCDC"/>
<stop offset="0.901042" stop-color="white"/>
</linearGradient>
<linearGradient id="paint6_linear_0_17" x1="202" y1="122.388" x2="202" y2="134.547" gradientUnits="userSpaceOnUse">
<stop stop-color="white"/>
<stop offset="0.484275" stop-color="#FBFBFB"/>
<stop offset="0.484375" stop-color="#DCDCDC"/>
<stop offset="0.901042" stop-color="white"/>
</linearGradient>
<linearGradient id="paint7_linear_0_17" x1="202" y1="122.388" x2="202" y2="134.547" gradientUnits="userSpaceOnUse">
<stop stop-color="white"/>
<stop offset="0.484275" stop-color="#FBFBFB"/>
<stop offset="0.484375" stop-color="#DCDCDC"/>
<stop offset="0.901042" stop-color="white"/>
</linearGradient>
<linearGradient id="paint8_linear_0_17" x1="202" y1="122.388" x2="202" y2="134.547" gradientUnits="userSpaceOnUse">
<stop stop-color="white"/>
<stop offset="0.484275" stop-color="#FBFBFB"/>
<stop offset="0.484375" stop-color="#DCDCDC"/>
<stop offset="0.901042" stop-color="white"/>
</linearGradient>
<linearGradient id="paint9_linear_0_17" x1="202" y1="122.388" x2="202" y2="134.547" gradientUnits="userSpaceOnUse">
<stop stop-color="white"/>
<stop offset="0.484275" stop-color="#FBFBFB"/>
<stop offset="0.484375" stop-color="#DCDCDC"/>
<stop offset="0.901042" stop-color="white"/>
</linearGradient>
<linearGradient id="paint10_linear_0_17" x1="202" y1="122.388" x2="202" y2="134.547" gradientUnits="userSpaceOnUse">
<stop stop-color="white"/>
<stop offset="0.484275" stop-color="#FBFBFB"/>
<stop offset="0.484375" stop-color="#DCDCDC"/>
<stop offset="0.901042" stop-color="white"/>
</linearGradient>
<linearGradient id="paint11_linear_0_17" x1="202" y1="122.388" x2="202" y2="134.547" gradientUnits="userSpaceOnUse">
<stop stop-color="white"/>
<stop offset="0.484275" stop-color="#FBFBFB"/>
<stop offset="0.484375" stop-color="#DCDCDC"/>
<stop offset="0.901042" stop-color="white"/>
</linearGradient>
<linearGradient id="paint12_linear_0_17" x1="202" y1="122.388" x2="202" y2="134.547" gradientUnits="userSpaceOnUse">
<stop stop-color="white"/>
<stop offset="0.484275" stop-color="#FBFBFB"/>
<stop offset="0.484375" stop-color="#DCDCDC"/>
<stop offset="0.901042" stop-color="white"/>
</linearGradient>
<linearGradient id="paint13_linear_0_17" x1="202" y1="122.388" x2="202" y2="134.547" gradientUnits="userSpaceOnUse">
<stop stop-color="white"/>
<stop offset="0.484275" stop-color="#FBFBFB"/>
<stop offset="0.484375" stop-color="#DCDCDC"/>
<stop offset="0.901042" stop-color="white"/>
</linearGradient>
<linearGradient id="paint14_linear_0_17" x1="202" y1="122.388" x2="202" y2="134.547" gradientUnits="userSpaceOnUse">
<stop stop-color="white"/>
<stop offset="0.484275" stop-color="#FBFBFB"/>
<stop offset="0.484375" stop-color="#DCDCDC"/>
<stop offset="0.901042" stop-color="white"/>
</linearGradient>
<linearGradient id="paint15_linear_0_17" x1="202" y1="122.388" x2="202" y2="134.547" gradientUnits="userSpaceOnUse">
<stop stop-color="white"/>
<stop offset="0.484275" stop-color="#FBFBFB"/>
<stop offset="0.484375" stop-color="#DCDCDC"/>
<stop offset="0.901042" stop-color="white"/>
</linearGradient>
<linearGradient id="paint16_linear_0_17" x1="202" y1="122.388" x2="202" y2="134.547" gradientUnits="userSpaceOnUse">
<stop stop-color="white"/>
<stop offset="0.484275" stop-color="#FBFBFB"/>
<stop offset="0.484375" stop-color="#DCDCDC"/>
<stop offset="0.901042" stop-color="white"/>
</linearGradient>
<linearGradient id="paint17_linear_0_17" x1="202" y1="122.388" x2="202" y2="134.547" gradientUnits="userSpaceOnUse">
<stop stop-color="white"/>
<stop offset="0.484275" stop-color="#FBFBFB"/>
<stop offset="0.484375" stop-color="#DCDCDC"/>
<stop offset="0.901042" stop-color="white"/>
</linearGradient>
<linearGradient id="paint18_linear_0_17" x1="202" y1="122.388" x2="202" y2="134.547" gradientUnits="userSpaceOnUse">
<stop stop-color="white"/>
<stop offset="0.484275" stop-color="#FBFBFB"/>
<stop offset="0.484375" stop-color="#DCDCDC"/>
<stop offset="0.901042" stop-color="white"/>
</linearGradient>
<linearGradient id="paint19_linear_0_17" x1="202" y1="122.388" x2="202" y2="134.547" gradientUnits="userSpaceOnUse">
<stop stop-color="white"/>
<stop offset="0.484275" stop-color="#FBFBFB"/>
<stop offset="0.484375" stop-color="#DCDCDC"/>
<stop offset="0.901042" stop-color="white"/>
</linearGradient>
<linearGradient id="paint20_linear_0_17" x1="202" y1="122.388" x2="202" y2="134.547" gradientUnits="userSpaceOnUse">
<stop stop-color="white"/>
<stop offset="0.484275" stop-color="#FBFBFB"/>
<stop offset="0.484375" stop-color="#DCDCDC"/>
<stop offset="0.901042" stop-color="white"/>
</linearGradient>
<linearGradient id="paint21_linear_0_17" x1="202" y1="122.388" x2="202" y2="134.547" gradientUnits="userSpaceOnUse">
<stop stop-color="white"/>
<stop offset="0.484275" stop-color="#FBFBFB"/>
<stop offset="0.484375" stop-color="#DCDCDC"/>
<stop offset="0.901042" stop-color="white"/>
</linearGradient>
<linearGradient id="paint22_linear_0_17" x1="202" y1="122.388" x2="202" y2="134.547" gradientUnits="userSpaceOnUse">
<stop stop-color="white"/>
<stop offset="0.484275" stop-color="#FBFBFB"/>
<stop offset="0.484375" stop-color="#DCDCDC"/>
<stop offset="0.901042" stop-color="white"/>
</linearGradient>
<linearGradient id="paint23_linear_0_17" x1="478.439" y1="29.8538" x2="478.439" y2="133" gradientUnits="userSpaceOnUse">
<stop offset="0.357421" stop-color="white"/>
<stop offset="0.70328" stop-color="#DCDCDC"/>
<stop offset="0.933981" stop-color="white"/>
</linearGradient>
<linearGradient id="paint24_linear_0_17" x1="478.439" y1="29.8538" x2="478.439" y2="133" gradientUnits="userSpaceOnUse">
<stop offset="0.357421" stop-color="white"/>
<stop offset="0.70328" stop-color="#DCDCDC"/>
<stop offset="0.933981" stop-color="white"/>
</linearGradient>
<linearGradient id="paint25_linear_0_17" x1="478.439" y1="29.8538" x2="478.439" y2="133" gradientUnits="userSpaceOnUse">
<stop offset="0.357421" stop-color="white"/>
<stop offset="0.70328" stop-color="#DCDCDC"/>
<stop offset="0.933981" stop-color="white"/>
</linearGradient>
<linearGradient id="paint26_linear_0_17" x1="478.439" y1="29.8538" x2="478.439" y2="133" gradientUnits="userSpaceOnUse">
<stop offset="0.357421" stop-color="white"/>
<stop offset="0.70328" stop-color="#DCDCDC"/>
<stop offset="0.933981" stop-color="white"/>
</linearGradient>
<linearGradient id="paint27_linear_0_17" x1="478.439" y1="29.8538" x2="478.439" y2="133" gradientUnits="userSpaceOnUse">
<stop offset="0.357421" stop-color="white"/>
<stop offset="0.70328" stop-color="#DCDCDC"/>
<stop offset="0.933981" stop-color="white"/>
</linearGradient>
</defs>
</svg>
