<svg width="654" height="216" viewBox="0 0 654 216" fill="none" xmlns="http://www.w3.org/2000/svg">
<path d="M0 36C0 22.7452 10.7452 12 24 12H630C643.255 12 654 22.7452 654 36V134H0V36Z" fill="#DD2225"/>
<path d="M0 192C0 205.255 10.7452 216 24 216H630C643.255 216 654 205.255 654 192V134H0V192Z" fill="#0083D4"/>
<path d="M168.624 115H113.569V94.43H128.089V50.87H113.569V30.3H154.104V94.43H168.624V115ZM177.661 78.7L193.391 64.18H215.776L220.011 60.55V53.895L216.986 50.87H180.081V30.3H233.321L246.026 41.795V69.02L230.296 83.54H207.911L203.676 87.17V94.43H243.001V115H177.661V78.7ZM255.059 78.7L270.789 64.18H293.174L297.409 60.55V53.895L294.384 50.87H257.479V30.3H310.719L323.424 41.795V69.02L307.694 83.54H285.309L281.074 87.17V94.43H320.399V115H255.059V78.7ZM331.851 70.23V56.315H340.321V44.82L356.051 30.3H405.056V49.66H368.756L366.336 52.08V56.315H391.746V70.23H366.336V75.07H391.746V88.985H366.336V93.22L368.756 95.64H405.056V115H356.051L340.321 100.48V88.985H331.851V75.07H340.321V70.23H331.851Z" fill="url(#paint0_linear_1770_321)"/>
<path d="M42.9406 161H64.1406V167.8H51.5406V171.8H60.5406V178.2H51.5406V182.2H64.5406V189H42.9406V161ZM85.3313 183.4H80.7313L77.1313 176.4H76.9313V189H68.3313V161H76.9313L82.9313 172.4H83.1313L89.1313 161H97.7313V189H89.1313V176.4H88.9313L85.3313 183.4ZM128.35 183.4H120.35L118.55 189H109.75L118.75 161H129.95L138.95 189H130.15L128.35 183.4ZM124.35 170.4L122.55 176.6H126.15L124.35 170.4ZM160.569 181.6H150.369V189H141.769V161H160.569L165.369 165.4V177.2L160.569 181.6ZM156.769 168.6L155.969 167.8H150.369V174.8H155.969L156.769 174V168.6ZM178.577 167.4L177.777 168.2V181.8L178.577 182.6H184.577L185.377 181.8V168.2L184.577 167.4H178.577ZM174.377 160.6H188.777L193.977 165.4V184.6L188.777 189.4H174.377L169.177 184.6V165.4L174.377 160.6ZM202.595 178L197.795 173.6V165.4L202.595 161H219.995V167.8H207.195L206.395 168.6V170.4L207.195 171.2H216.595L221.395 175.6V184.6L216.595 189H197.995V182.2H211.995L212.795 181.4V178.8L211.995 178H202.595ZM238.406 189H229.806V167.8H223.206V161H245.006V167.8H238.406V189ZM262.803 183.4H254.803L253.003 189H244.203L253.203 161H264.403L273.403 189H264.603L262.803 183.4ZM258.803 170.4L257.003 176.6H260.603L258.803 170.4ZM279.822 178L275.022 173.6V165.4L279.822 161H297.222V167.8H284.422L283.622 168.6V170.4L284.422 171.2H293.822L298.622 175.6V184.6L293.822 189H275.222V182.2H289.222L290.022 181.4V178.8L289.222 178H279.822ZM328.042 181.4V177.8H324.442V171.4H336.242V184.2L331.042 189H316.642L311.442 184.2V165.8L316.642 161H334.042V167.8H320.842L320.042 168.6V181.4L320.842 182.2H327.242L328.042 181.4ZM356.831 189L352.231 180.8H349.431V189H340.831V161H359.231L364.031 165.4V175.4L360.031 179L365.631 189H356.831ZM355.431 168.6L354.631 167.8H349.431V174H354.631L355.431 173.2V168.6ZM384.639 183.4H376.639L374.839 189H366.039L375.039 161H386.239L395.239 189H386.439L384.639 183.4ZM380.639 170.4L378.839 176.6H382.439L380.639 170.4ZM380.439 151.8H388.639L383.839 157.8H377.639L380.439 151.8ZM408.875 189H400.275V167.8H393.675V161H415.475V167.8H408.875V189ZM435.273 189H417.873V182.2H422.273V167.8H417.873V161H435.273V167.8H430.873V182.2H435.273V189ZM443.259 178L438.459 173.6V165.4L443.259 161H460.659V167.8H447.859L447.059 168.6V170.4L447.859 171.2H457.259L462.059 175.6V184.6L457.259 189H438.659V182.2H452.659L453.459 181.4V178.8L452.659 178H443.259ZM474.461 161V172.6L473.061 179.8H467.261L465.861 172.6V161H474.461ZM474.061 189H466.261V182.2H474.061V189Z" fill="url(#paint1_linear_1770_321)"/>
<path d="M614.003 121.162C613.292 120.448 612.44 120.102 611.435 120.102H571.061V181H607.637C611.82 181 615 177.393 615 173.189V123.799C615 122.789 614.713 121.876 614.003 121.162Z" fill="url(#paint2_linear_1770_321)"/>
<path d="M558.939 120.102H518.901C516.809 120.102 515 121.697 515 123.799V173.189C515 177.392 518.516 181 522.699 181H558.939V120.102Z" fill="url(#paint3_linear_1770_321)"/>
<path d="M558.939 80.5179H522.756C518.566 80.5179 515.001 83.9312 515.001 88.1408V105.881C515.001 110.091 518.566 113.504 522.756 113.504H558.94L558.939 80.5179Z" fill="url(#paint4_linear_1770_321)"/>
<path d="M607.581 80.5179H571.061V113.504H607.581C611.771 113.504 615 110.091 615 105.881V88.1408C615 83.9307 611.771 80.5179 607.581 80.5179Z" fill="url(#paint5_linear_1770_321)"/>
<path d="M585.321 50.1484C582.635 48.0596 579.954 47 577.351 47C572.148 47 568.064 50.8787 565.177 58.5351C562.29 50.8787 558.207 47 553.004 47C550.402 47 547.72 48.0596 545.034 50.1484C539.923 54.1241 539.38 58.2631 539.824 61.0355C541.488 71.4237 560.184 78.557 563.915 79.882C564.326 80.0282 564.753 80.0997 565.177 80.0997H565.178C565.602 80.0997 566.028 80.0282 566.439 79.882C570.17 78.5575 588.866 71.4232 590.53 61.0355C590.974 58.2631 590.431 54.1246 585.321 50.1484ZM556.632 68.2362C548.505 63.743 547.437 60.662 547.303 59.8252C547.132 58.7544 547.929 57.5237 549.671 56.1682C550.98 55.1502 552.132 54.6123 553.004 54.6123C554.625 54.6123 557.093 57.2096 559.162 64.4996C559.717 66.4545 560.148 68.4255 560.478 70.1946C559.261 69.6217 557.949 68.964 556.632 68.2362ZM583.051 59.8247C582.525 63.1218 576.106 67.269 569.849 70.2307C571.333 62.4281 574.205 54.6123 577.351 54.6123C578.223 54.6123 579.375 55.1502 580.683 56.1682C582.425 57.5232 583.222 58.7534 583.051 59.8247Z" fill="url(#paint6_linear_1770_321)"/>
<defs>
<linearGradient id="paint0_linear_1770_321" x1="257.5" y1="30.5" x2="257.5" y2="115" gradientUnits="userSpaceOnUse">
<stop stop-color="white"/>
<stop offset="0.484275" stop-color="#FBFBFB"/>
<stop offset="0.484375" stop-color="#DCDCDC"/>
<stop offset="0.901042" stop-color="white"/>
</linearGradient>
<linearGradient id="paint1_linear_1770_321" x1="258.5" y1="162.777" x2="258.5" y2="187.094" gradientUnits="userSpaceOnUse">
<stop stop-color="white"/>
<stop offset="0.484275" stop-color="#FBFBFB"/>
<stop offset="0.484375" stop-color="#DCDCDC"/>
<stop offset="0.901042" stop-color="white"/>
</linearGradient>
<linearGradient id="paint2_linear_1770_321" x1="605.306" y1="50.6077" x2="605.306" y2="181" gradientUnits="userSpaceOnUse">
<stop offset="0.357421" stop-color="white"/>
<stop offset="0.70328" stop-color="#DCDCDC"/>
<stop offset="0.933981" stop-color="white"/>
</linearGradient>
<linearGradient id="paint3_linear_1770_321" x1="605.306" y1="50.6077" x2="605.306" y2="181" gradientUnits="userSpaceOnUse">
<stop offset="0.357421" stop-color="white"/>
<stop offset="0.70328" stop-color="#DCDCDC"/>
<stop offset="0.933981" stop-color="white"/>
</linearGradient>
<linearGradient id="paint4_linear_1770_321" x1="605.306" y1="50.6077" x2="605.306" y2="181" gradientUnits="userSpaceOnUse">
<stop offset="0.357421" stop-color="white"/>
<stop offset="0.70328" stop-color="#DCDCDC"/>
<stop offset="0.933981" stop-color="white"/>
</linearGradient>
<linearGradient id="paint5_linear_1770_321" x1="605.306" y1="50.6077" x2="605.306" y2="181" gradientUnits="userSpaceOnUse">
<stop offset="0.357421" stop-color="white"/>
<stop offset="0.70328" stop-color="#DCDCDC"/>
<stop offset="0.933981" stop-color="white"/>
</linearGradient>
<linearGradient id="paint6_linear_1770_321" x1="605.306" y1="50.6077" x2="605.306" y2="181" gradientUnits="userSpaceOnUse">
<stop offset="0.357421" stop-color="white"/>
<stop offset="0.70328" stop-color="#DCDCDC"/>
<stop offset="0.933981" stop-color="white"/>
</linearGradient>
</defs>
</svg>
