<svg width="654" height="216" viewBox="0 0 654 216" fill="none" xmlns="http://www.w3.org/2000/svg">
<path d="M0 36C0 22.7452 10.7452 12 24 12H630C643.255 12 654 22.7452 654 36V134H0V36Z" fill="#DD2225"/>
<path d="M0 192C0 205.255 10.7452 216 24 216H630C643.255 216 654 205.255 654 192V134H0V192Z" fill="#0083D4"/>
<path d="M168.624 115H113.569V94.43H128.089V50.87H113.569V30.3H154.104V94.43H168.624V115ZM177.661 78.7L193.391 64.18H215.776L220.011 60.55V53.895L216.986 50.87H180.081V30.3H233.321L246.026 41.795V69.02L230.296 83.54H207.911L203.676 87.17V94.43H243.001V115H177.661V78.7ZM255.059 78.7L270.789 64.18H293.174L297.409 60.55V53.895L294.384 50.87H257.479V30.3H310.719L323.424 41.795V69.02L307.694 83.54H285.309L281.074 87.17V94.43H320.399V115H255.059V78.7ZM331.851 70.23V56.315H340.321V44.82L356.051 30.3H405.056V49.66H368.756L366.336 52.08V56.315H391.746V70.23H366.336V75.07H391.746V88.985H366.336V93.22L368.756 95.64H405.056V115H356.051L340.321 100.48V88.985H331.851V75.07H340.321V70.23H331.851Z" fill="url(#paint0_linear_1777_1263)"/>
<path d="M32.9464 188V183.835L40.6464 174.91L33.2614 166.93V163.01H51.2164V167.35H42.9914C42.5248 167.35 41.9998 167.338 41.4164 167.315C40.8564 167.292 40.2498 167.245 39.5964 167.175L45.8614 174.105V175.435L38.5464 183.835C39.3631 183.765 40.1098 183.718 40.7864 183.695C41.4864 183.648 42.2331 183.625 43.0264 183.625H51.5314V188H32.9464ZM69.91 188H55.525V163.01H69.91V167.35H60.81V172.845H69.28V177.185H60.81V183.625H69.91V188ZM80.3764 188V185.13L88.4964 162.905H94.9714L103.161 185.235V188H80.3764ZM86.4664 183.555H97.0364L93.2914 171.795C93.1747 171.398 93.0114 170.897 92.8014 170.29C92.6147 169.683 92.4164 169.065 92.2064 168.435C92.0197 167.805 91.868 167.257 91.7514 166.79C91.6347 167.257 91.4714 167.84 91.2614 168.54C91.0514 169.217 90.853 169.87 90.6664 170.5C90.4797 171.107 90.3397 171.538 90.2464 171.795L86.4664 183.555ZM104.698 188V183.555H109.983C108.886 182.878 107.953 182.062 107.183 181.105C106.436 180.125 105.864 179.028 105.468 177.815C105.094 176.578 104.908 175.237 104.908 173.79C104.908 171.667 105.386 169.765 106.343 168.085C107.323 166.405 108.699 165.075 110.473 164.095C112.269 163.115 114.381 162.625 116.808 162.625C119.258 162.625 121.369 163.115 123.143 164.095C124.916 165.075 126.281 166.417 127.238 168.12C128.218 169.8 128.708 171.702 128.708 173.825C128.708 175.272 128.509 176.602 128.113 177.815C127.739 179.028 127.168 180.125 126.398 181.105C125.628 182.062 124.683 182.878 123.563 183.555H128.918V188H118.628V183.24C119.911 182.633 120.879 181.863 121.533 180.93C122.209 179.973 122.664 178.947 122.898 177.85C123.131 176.73 123.248 175.622 123.248 174.525C123.248 172.962 122.979 171.632 122.443 170.535C121.929 169.415 121.194 168.552 120.238 167.945C119.281 167.338 118.138 167.035 116.808 167.035C115.478 167.035 114.323 167.338 113.343 167.945C112.386 168.552 111.651 169.415 111.138 170.535C110.624 171.655 110.368 172.997 110.368 174.56C110.368 175.657 110.508 176.753 110.788 177.85C111.068 178.947 111.534 179.962 112.188 180.895C112.864 181.828 113.774 182.61 114.918 183.24V188H104.698ZM141.23 163.01C144.45 163.01 146.795 163.71 148.265 165.11C149.758 166.487 150.505 168.388 150.505 170.815C150.505 171.912 150.341 172.962 150.015 173.965C149.688 174.945 149.14 175.832 148.37 176.625C147.623 177.395 146.631 178.002 145.395 178.445C144.158 178.888 142.63 179.11 140.81 179.11H138.535V188H133.25V163.01H141.23ZM140.95 167.35H138.535V174.77H140.285C141.288 174.77 142.151 174.642 142.875 174.385C143.598 174.128 144.158 173.72 144.555 173.16C144.951 172.6 145.15 171.877 145.15 170.99C145.15 169.753 144.811 168.843 144.135 168.26C143.458 167.653 142.396 167.35 140.95 167.35ZM169.612 188H155.227V163.01H169.612V167.35H160.512V172.845H168.982V177.185H160.512V183.625H169.612V188ZM193.957 188L192.137 182.05H183.037L181.217 188H175.512L184.332 162.905H190.807L199.662 188H193.957ZM189.057 171.795C188.94 171.398 188.789 170.897 188.602 170.29C188.415 169.683 188.229 169.065 188.042 168.435C187.855 167.805 187.704 167.257 187.587 166.79C187.47 167.257 187.307 167.84 187.097 168.54C186.91 169.217 186.724 169.87 186.537 170.5C186.374 171.107 186.245 171.538 186.152 171.795L184.367 177.605H190.877L189.057 171.795ZM172.012 168.96V168.505L173.657 163.01H179.502V163.36L175.512 168.96H172.012ZM224.96 188H218.24L207.355 169.1H207.215C207.239 169.683 207.262 170.278 207.285 170.885C207.309 171.468 207.332 172.063 207.355 172.67C207.402 173.253 207.437 173.848 207.46 174.455C207.484 175.038 207.507 175.633 207.53 176.24V188H202.805V163.01H209.49L220.34 181.735H220.445C220.422 181.152 220.399 180.58 220.375 180.02C220.352 179.437 220.329 178.865 220.305 178.305C220.305 177.722 220.294 177.15 220.27 176.59C220.247 176.007 220.224 175.423 220.2 174.84V163.01H224.96V188ZM237.033 188V183.835L244.733 174.91L237.348 166.93V163.01H255.303V167.35H247.078C246.612 167.35 246.087 167.338 245.503 167.315C244.943 167.292 244.337 167.245 243.683 167.175L249.948 174.105V175.435L242.633 183.835C243.45 183.765 244.197 183.718 244.873 183.695C245.573 183.648 246.32 183.625 247.113 183.625H255.618V188H237.033ZM269.237 188H263.952V167.42H257.162V163.01H276.027V167.42H269.237V188ZM301.877 175.47C301.877 177.407 301.632 179.168 301.142 180.755C300.675 182.318 299.952 183.672 298.972 184.815C298.015 185.958 296.779 186.833 295.262 187.44C293.769 188.047 292.007 188.35 289.977 188.35C287.947 188.35 286.174 188.047 284.657 187.44C283.164 186.81 281.927 185.935 280.947 184.815C279.99 183.672 279.267 182.307 278.777 180.72C278.31 179.133 278.077 177.372 278.077 175.435C278.077 172.845 278.497 170.593 279.337 168.68C280.2 166.767 281.507 165.285 283.257 164.235C285.03 163.162 287.282 162.625 290.012 162.625C292.719 162.625 294.947 163.162 296.697 164.235C298.447 165.285 299.742 166.778 300.582 168.715C301.445 170.628 301.877 172.88 301.877 175.47ZM283.642 175.47C283.642 177.22 283.864 178.725 284.307 179.985C284.75 181.245 285.439 182.213 286.372 182.89C287.305 183.567 288.507 183.905 289.977 183.905C291.494 183.905 292.707 183.567 293.617 182.89C294.55 182.213 295.227 181.245 295.647 179.985C296.09 178.725 296.312 177.22 296.312 175.47C296.312 172.833 295.822 170.768 294.842 169.275C293.862 167.782 292.252 167.035 290.012 167.035C288.519 167.035 287.305 167.373 286.372 168.05C285.439 168.727 284.75 169.695 284.307 170.955C283.864 172.215 283.642 173.72 283.642 175.47ZM316.398 188H305.023V184.99L308.068 183.59V167.42L305.023 166.02V163.01H316.398V166.02L313.353 167.42V183.59L316.398 184.99V188ZM340.852 188H334.797L328.987 178.55L323.177 188H317.507L325.802 175.12L318.032 163.01H323.877L329.267 172.005L334.552 163.01H340.257L332.417 175.4L340.852 188ZM372.317 188H367.032V177.22H357.127V188H351.842V163.01H357.127V172.81H367.032V163.01H372.317V188ZM341.202 168.96V168.505L342.847 163.01H348.692V163.36L344.702 168.96H341.202ZM389.196 188L383.176 168.4H383.036C383.059 168.867 383.094 169.567 383.141 170.5C383.187 171.433 383.234 172.437 383.281 173.51C383.327 174.56 383.351 175.517 383.351 176.38V188H378.626V163.01H385.836L391.751 182.12H391.856L398.121 163.01H405.331V188H400.396V176.17C400.396 175.377 400.407 174.467 400.431 173.44C400.477 172.413 400.512 171.445 400.536 170.535C400.582 169.602 400.617 168.902 400.641 168.435H400.501L394.061 188H389.196ZM426.938 188L425.118 182.05H416.018L414.198 188H408.493L417.313 162.905H423.788L432.643 188H426.938ZM422.038 171.795C421.921 171.398 421.77 170.897 421.583 170.29C421.396 169.683 421.21 169.065 421.023 168.435C420.836 167.805 420.685 167.257 420.568 166.79C420.451 167.257 420.288 167.84 420.078 168.54C419.891 169.217 419.705 169.87 419.518 170.5C419.355 171.107 419.226 171.538 419.133 171.795L417.348 177.605H423.858L422.038 171.795ZM442.972 188H437.687V167.42H430.897V163.01H449.762V167.42H442.972V188ZM466.45 188L464.63 182.05H455.53L453.71 188H448.005L456.825 162.905H463.3L472.155 188H466.45ZM461.55 171.795C461.433 171.398 461.282 170.897 461.095 170.29C460.908 169.683 460.722 169.065 460.535 168.435C460.348 167.805 460.197 167.257 460.08 166.79C459.963 167.257 459.8 167.84 459.59 168.54C459.403 169.217 459.217 169.87 459.03 170.5C458.867 171.107 458.738 171.538 458.645 171.795L456.86 177.605H463.37L461.55 171.795ZM481.795 163.5V173.65L480.57 179.95H475.495L474.27 173.65V163.5H481.795ZM481.445 188H474.62V182.05H481.445V188Z" fill="url(#paint1_linear_1777_1263)"/>
<path d="M618.003 121.162C617.292 120.448 616.44 120.102 615.435 120.102H575.061V181H611.637C615.82 181 619 177.393 619 173.189V123.799C619 122.789 618.713 121.876 618.003 121.162Z" fill="url(#paint2_linear_1777_1263)"/>
<path d="M562.939 120.102H522.901C520.809 120.102 519 121.697 519 123.799V173.189C519 177.392 522.516 181 526.699 181H562.939V120.102Z" fill="url(#paint3_linear_1777_1263)"/>
<path d="M562.939 80.5179H526.756C522.566 80.5179 519.001 83.9312 519.001 88.1408V105.881C519.001 110.091 522.566 113.504 526.756 113.504H562.94L562.939 80.5179Z" fill="url(#paint4_linear_1777_1263)"/>
<path d="M611.581 80.5179H575.061V113.504H611.581C615.771 113.504 619 110.091 619 105.881V88.1408C619 83.9307 615.771 80.5179 611.581 80.5179Z" fill="url(#paint5_linear_1777_1263)"/>
<path d="M589.321 50.1484C586.635 48.0596 583.954 47 581.351 47C576.148 47 572.064 50.8787 569.177 58.5351C566.29 50.8787 562.207 47 557.004 47C554.402 47 551.72 48.0596 549.034 50.1484C543.923 54.1241 543.38 58.2631 543.824 61.0355C545.488 71.4237 564.184 78.557 567.915 79.882C568.326 80.0282 568.753 80.0997 569.177 80.0997H569.178C569.602 80.0997 570.028 80.0282 570.439 79.882C574.17 78.5575 592.866 71.4232 594.53 61.0355C594.974 58.2631 594.431 54.1246 589.321 50.1484ZM560.632 68.2362C552.505 63.743 551.437 60.662 551.303 59.8252C551.132 58.7544 551.929 57.5237 553.671 56.1682C554.98 55.1502 556.132 54.6123 557.004 54.6123C558.625 54.6123 561.093 57.2096 563.162 64.4996C563.717 66.4545 564.148 68.4255 564.478 70.1946C563.261 69.6217 561.949 68.964 560.632 68.2362ZM587.051 59.8247C586.525 63.1218 580.106 67.269 573.849 70.2307C575.333 62.4281 578.205 54.6123 581.351 54.6123C582.223 54.6123 583.375 55.1502 584.683 56.1682C586.425 57.5232 587.222 58.7534 587.051 59.8247Z" fill="url(#paint6_linear_1777_1263)"/>
<defs>
<linearGradient id="paint0_linear_1777_1263" x1="257.5" y1="30.5" x2="257.5" y2="115" gradientUnits="userSpaceOnUse">
<stop stop-color="white"/>
<stop offset="0.484275" stop-color="#FBFBFB"/>
<stop offset="0.484375" stop-color="#DCDCDC"/>
<stop offset="0.901042" stop-color="white"/>
</linearGradient>
<linearGradient id="paint1_linear_1777_1263" x1="258" y1="164.68" x2="258" y2="185.957" gradientUnits="userSpaceOnUse">
<stop stop-color="white"/>
<stop offset="0.484275" stop-color="#FBFBFB"/>
<stop offset="0.484375" stop-color="#DCDCDC"/>
<stop offset="0.901042" stop-color="white"/>
</linearGradient>
<linearGradient id="paint2_linear_1777_1263" x1="609.306" y1="50.6077" x2="609.306" y2="181" gradientUnits="userSpaceOnUse">
<stop offset="0.357421" stop-color="white"/>
<stop offset="0.70328" stop-color="#DCDCDC"/>
<stop offset="0.933981" stop-color="white"/>
</linearGradient>
<linearGradient id="paint3_linear_1777_1263" x1="609.306" y1="50.6077" x2="609.306" y2="181" gradientUnits="userSpaceOnUse">
<stop offset="0.357421" stop-color="white"/>
<stop offset="0.70328" stop-color="#DCDCDC"/>
<stop offset="0.933981" stop-color="white"/>
</linearGradient>
<linearGradient id="paint4_linear_1777_1263" x1="609.306" y1="50.6077" x2="609.306" y2="181" gradientUnits="userSpaceOnUse">
<stop offset="0.357421" stop-color="white"/>
<stop offset="0.70328" stop-color="#DCDCDC"/>
<stop offset="0.933981" stop-color="white"/>
</linearGradient>
<linearGradient id="paint5_linear_1777_1263" x1="609.306" y1="50.6077" x2="609.306" y2="181" gradientUnits="userSpaceOnUse">
<stop offset="0.357421" stop-color="white"/>
<stop offset="0.70328" stop-color="#DCDCDC"/>
<stop offset="0.933981" stop-color="white"/>
</linearGradient>
<linearGradient id="paint6_linear_1777_1263" x1="609.306" y1="50.6077" x2="609.306" y2="181" gradientUnits="userSpaceOnUse">
<stop offset="0.357421" stop-color="white"/>
<stop offset="0.70328" stop-color="#DCDCDC"/>
<stop offset="0.933981" stop-color="white"/>
</linearGradient>
</defs>
</svg>
