<svg width="654" height="213" viewBox="0 0 654 213" fill="none" xmlns="http://www.w3.org/2000/svg">
<path d="M0 82H654V24C654 10.7452 643.255 0 630 0H24C10.7452 0 0 10.7452 0 24V82Z" fill="#DD2225"/>
<path d="M0 82H654V180C654 193.255 643.255 204 630 204H24C10.7452 204 0 193.255 0 180V82Z" fill="#0083D4"/>
<path d="M168.624 189H113.569V168.43H128.089V124.87H113.569V104.3H154.104V168.43H168.624V189ZM177.661 152.7L193.391 138.18H215.776L220.011 134.55V127.895L216.986 124.87H180.081V104.3H233.321L246.026 115.795V143.02L230.296 157.54H207.911L203.676 161.17V168.43H243.001V189H177.661V152.7ZM255.059 152.7L270.789 138.18H293.174L297.409 134.55V127.895L294.384 124.87H257.479V104.3H310.719L323.424 115.795V143.02L307.694 157.54H285.309L281.074 161.17V168.43H320.399V189H255.059V152.7ZM331.851 144.23V130.315H340.321V118.82L356.051 104.3H405.056V123.66H368.756L366.336 126.08V130.315H391.746V144.23H366.336V149.07H391.746V162.985H366.336V167.22L368.756 169.64H405.056V189H356.051L340.321 174.48V162.985H331.851V149.07H340.321V144.23H331.851Z" fill="url(#paint0_linear_1755_106)"/>
<path d="M83.0998 26.1L78.7798 22.14V14.76L83.0998 10.8H98.7598V16.92H87.2398L86.5198 17.64V19.26L87.2398 19.98H95.6998L100.02 23.94V32.04L95.6998 36H78.9598V29.88H91.5598L92.2798 29.16V26.82L91.5598 26.1H83.0998ZM118.381 36H102.721V29.88H106.681V16.92H102.721V10.8H118.381V16.92H114.421V29.88H118.381V36ZM122.329 10.8H141.409V16.92H130.069V20.52H138.169V26.28H130.069V29.88H141.769V36H122.329V10.8ZM167.877 29.16V25.92H164.637V20.16H175.257V31.68L170.577 36H157.617L152.937 31.68V15.12L157.617 10.8H173.277V16.92H161.397L160.677 17.64V29.16L161.397 29.88H167.157L167.877 29.16ZM193.787 36L189.647 28.62H187.127V36H179.387V10.8H195.947L200.267 14.76V23.76L196.667 27L201.707 36H193.787ZM192.527 17.64L191.807 16.92H187.127V22.5H191.807L192.527 21.78V17.64ZM218.814 30.96H211.614L209.994 36H202.074L210.174 10.8H220.254L228.354 36H220.434L218.814 30.96ZM215.214 19.26L213.594 24.84H216.834L215.214 19.26ZM240.627 36H232.887V16.92H226.947V10.8H246.567V16.92H240.627V36ZM264.385 36H248.725V29.88H252.685V16.92H248.725V10.8H264.385V16.92H260.425V29.88H264.385V36ZM271.573 26.1L267.253 22.14V14.76L271.573 10.8H287.233V16.92H275.713L274.993 17.64V19.26L275.713 19.98H284.173L288.493 23.94V32.04L284.173 36H267.433V29.88H280.033L280.753 29.16V26.82L280.033 26.1H271.573ZM311.542 10.8L313.702 25.56H313.882L316.402 10.8H324.142L318.742 36H309.022L307.042 22.32H306.862L304.882 36H295.162L289.762 10.8H297.502L300.022 25.56H300.202L302.362 10.8H311.542ZM327.008 10.8H346.088V16.92H334.748V20.52H342.848V26.28H334.748V29.88H346.448V36H327.008V10.8ZM361.74 36H354V16.92H348.06V10.8H367.68V16.92H361.74V36ZM382.798 36H375.058V16.92H369.118V10.8H388.738V16.92H382.798V36ZM391.977 10.8H411.057V16.92H399.717V20.52H407.817V26.28H399.717V29.88H411.417V36H391.977V10.8ZM429.409 22.32V10.8H437.149V36H429.589L422.749 24.48H422.569V36H414.829V10.8H422.425L429.229 22.32H429.409Z" fill="url(#paint1_linear_1755_106)"/>
<path d="M152.307 72H136.647V65.88H140.607V52.92H136.647V46.8H152.307V52.92H148.347V65.88H152.307V72ZM171.554 66.96H167.414L164.174 60.66H163.994V72H156.254V46.8H163.994L169.394 57.06H169.574L174.974 46.8H182.714V72H174.974V60.66H174.794L171.554 66.96ZM214.581 46.8L216.741 61.56H216.921L219.441 46.8H227.181L221.781 72H212.061L210.081 58.32H209.901L207.921 72H198.201L192.801 46.8H200.541L203.061 61.56H203.241L205.401 46.8H214.581ZM230.047 46.8H249.127V52.92H237.787V56.52H245.887V62.28H237.787V65.88H249.487V72H230.047V46.8ZM267.299 72L263.159 64.62H260.639V72H252.899V46.8H269.459L273.779 50.76V59.76L270.179 63L275.219 72H267.299ZM266.039 53.64L265.319 52.92H260.639V58.5H265.319L266.039 57.78V53.64ZM289.986 72H282.246V52.92H276.306V46.8H295.926V52.92H289.986V72ZM320.402 72H310.862L302.762 46.8H310.682L315.542 63.18H315.722L320.582 46.8H328.502L320.402 72ZM338.585 52.56L337.865 53.28V65.52L338.585 66.24H343.985L344.705 65.52V53.28L343.985 52.56H338.585ZM334.805 46.44H347.765L352.445 50.76V68.04L347.765 72.36H334.805L330.125 68.04V50.76L334.805 46.44ZM371.541 58.32V46.8H379.281V72H371.721L364.881 60.48H364.701V72H356.961V46.8H364.557L371.361 58.32H371.541Z" fill="url(#paint2_linear_1755_106)"/>
<path d="M620.003 109.162C619.292 108.448 618.44 108.102 617.435 108.102H577.061V169H613.637C617.82 169 621 165.393 621 161.189V111.799C621 110.789 620.713 109.876 620.003 109.162Z" fill="url(#paint3_linear_1755_106)"/>
<path d="M564.939 108.102H524.901C522.809 108.102 521 109.697 521 111.799V161.189C521 165.392 524.516 169 528.699 169H564.939V108.102Z" fill="url(#paint4_linear_1755_106)"/>
<path d="M564.939 68.5179H528.756C524.566 68.5179 521.001 71.9312 521.001 76.1408V93.881C521.001 98.0911 524.566 101.504 528.756 101.504H564.94L564.939 68.5179Z" fill="url(#paint5_linear_1755_106)"/>
<path d="M613.581 68.5179H577.061V101.504H613.581C617.771 101.504 621 98.0911 621 93.881V76.1408C621 71.9307 617.771 68.5179 613.581 68.5179Z" fill="url(#paint6_linear_1755_106)"/>
<path d="M591.321 38.1484C588.635 36.0596 585.954 35 583.351 35C578.148 35 574.064 38.8787 571.177 46.5351C568.29 38.8787 564.207 35 559.004 35C556.402 35 553.72 36.0596 551.034 38.1484C545.923 42.1241 545.38 46.2631 545.824 49.0355C547.488 59.4237 566.184 66.557 569.915 67.882C570.326 68.0282 570.753 68.0997 571.177 68.0997H571.178C571.602 68.0997 572.028 68.0282 572.439 67.882C576.17 66.5575 594.866 59.4232 596.53 49.0355C596.974 46.2631 596.431 42.1246 591.321 38.1484ZM562.632 56.2362C554.505 51.743 553.437 48.662 553.303 47.8252C553.132 46.7544 553.929 45.5237 555.671 44.1682C556.98 43.1502 558.132 42.6123 559.004 42.6123C560.625 42.6123 563.093 45.2096 565.162 52.4996C565.717 54.4545 566.148 56.4255 566.478 58.1946C565.261 57.6217 563.949 56.964 562.632 56.2362ZM589.051 47.8247C588.525 51.1218 582.106 55.269 575.849 58.2307C577.333 50.4281 580.205 42.6123 583.351 42.6123C584.223 42.6123 585.375 43.1502 586.683 44.1682C588.425 45.5232 589.222 46.7534 589.051 47.8247Z" fill="url(#paint7_linear_1755_106)"/>
<defs>
<linearGradient id="paint0_linear_1755_106" x1="257.5" y1="104.5" x2="257.5" y2="189" gradientUnits="userSpaceOnUse">
<stop stop-color="white"/>
<stop offset="0.484275" stop-color="#FBFBFB"/>
<stop offset="0.484375" stop-color="#DCDCDC"/>
<stop offset="0.901042" stop-color="white"/>
</linearGradient>
<linearGradient id="paint1_linear_1755_106" x1="258" y1="10.5" x2="258" y2="36" gradientUnits="userSpaceOnUse">
<stop stop-color="white"/>
<stop offset="0.484275" stop-color="#FBFBFB"/>
<stop offset="0.484375" stop-color="#DCDCDC"/>
<stop offset="0.901042" stop-color="white"/>
</linearGradient>
<linearGradient id="paint2_linear_1755_106" x1="258.5" y1="46.5" x2="258.5" y2="72" gradientUnits="userSpaceOnUse">
<stop stop-color="white"/>
<stop offset="0.484275" stop-color="#FBFBFB"/>
<stop offset="0.484375" stop-color="#DCDCDC"/>
<stop offset="0.901042" stop-color="white"/>
</linearGradient>
<linearGradient id="paint3_linear_1755_106" x1="611.306" y1="38.6077" x2="611.306" y2="169" gradientUnits="userSpaceOnUse">
<stop offset="0.357421" stop-color="white"/>
<stop offset="0.70328" stop-color="#DCDCDC"/>
<stop offset="0.933981" stop-color="white"/>
</linearGradient>
<linearGradient id="paint4_linear_1755_106" x1="611.306" y1="38.6077" x2="611.306" y2="169" gradientUnits="userSpaceOnUse">
<stop offset="0.357421" stop-color="white"/>
<stop offset="0.70328" stop-color="#DCDCDC"/>
<stop offset="0.933981" stop-color="white"/>
</linearGradient>
<linearGradient id="paint5_linear_1755_106" x1="611.306" y1="38.6077" x2="611.306" y2="169" gradientUnits="userSpaceOnUse">
<stop offset="0.357421" stop-color="white"/>
<stop offset="0.70328" stop-color="#DCDCDC"/>
<stop offset="0.933981" stop-color="white"/>
</linearGradient>
<linearGradient id="paint6_linear_1755_106" x1="611.306" y1="38.6077" x2="611.306" y2="169" gradientUnits="userSpaceOnUse">
<stop offset="0.357421" stop-color="white"/>
<stop offset="0.70328" stop-color="#DCDCDC"/>
<stop offset="0.933981" stop-color="white"/>
</linearGradient>
<linearGradient id="paint7_linear_1755_106" x1="611.306" y1="38.6077" x2="611.306" y2="169" gradientUnits="userSpaceOnUse">
<stop offset="0.357421" stop-color="white"/>
<stop offset="0.70328" stop-color="#DCDCDC"/>
<stop offset="0.933981" stop-color="white"/>
</linearGradient>
</defs>
</svg>
