<svg width="654" height="216" viewBox="0 0 654 216" fill="none" xmlns="http://www.w3.org/2000/svg">
<path d="M0 36C0 22.7452 10.7452 12 24 12H630C643.255 12 654 22.7452 654 36V134H0V36Z" fill="#DD2225"/>
<path d="M0 192C0 205.255 10.7452 216 24 216H630C643.255 216 654 205.255 654 192V134H0V192Z" fill="#0083D4"/>
<path d="M168.624 115H113.569V94.43H128.089V50.87H113.569V30.3H154.104V94.43H168.624V115ZM177.661 78.7L193.391 64.18H215.776L220.011 60.55V53.895L216.986 50.87H180.081V30.3H233.321L246.026 41.795V69.02L230.296 83.54H207.911L203.676 87.17V94.43H243.001V115H177.661V78.7ZM255.059 78.7L270.789 64.18H293.174L297.409 60.55V53.895L294.384 50.87H257.479V30.3H310.719L323.424 41.795V69.02L307.694 83.54H285.309L281.074 87.17V94.43H320.399V115H255.059V78.7ZM331.851 70.23V56.315H340.321V44.82L356.051 30.3H405.056V49.66H368.756L366.336 52.08V56.315H391.746V70.23H366.336V75.07H391.746V88.985H366.336V93.22L368.756 95.64H405.056V115H356.051L340.321 100.48V88.985H331.851V75.07H340.321V70.23H331.851Z" fill="url(#paint0_linear_1777_930)"/>
<path d="M46.655 180.08H38.495V186H31.615V163.6H46.655L50.495 167.12V176.56L46.655 180.08ZM43.615 169.68L42.975 169.04H38.495V174.64H42.975L43.615 174V169.68ZM65.0675 181.52H58.6675L57.2275 186H50.1875L57.3875 163.6H66.3475L73.5475 186H66.5075L65.0675 181.52ZM61.8675 171.12L60.4275 176.08H63.3075L61.8675 171.12ZM60.9075 159.12L61.2275 159.44H62.5075L62.8275 159.12V158.16L62.5075 157.84H61.2275L60.9075 158.192V159.12ZM57.3875 160.24V157.04L59.6275 155.12H64.1075L66.3475 157.04V160.24L64.1075 162.16H59.6275L57.3875 160.24ZM83.1775 186V163.6H98.3775L102.538 167.44V182.16L98.3775 186H83.1775ZM90.0575 180.56H95.0175L95.6575 179.92V169.68L95.0175 169.04H90.0575V180.56ZM119.513 186H105.593V180.56H109.113V169.04H105.593V163.6H119.513V169.04H115.993V180.56H119.513V186ZM133.581 186H126.701V169.04H121.421V163.6H138.861V169.04H133.581V186ZM152.3 186H145.42V169.04H140.14V163.6H157.58V169.04H152.3V186ZM166.865 163.6H183.985V169.04H173.745V172.88H180.945V178.32H173.745V186H166.865V163.6ZM189.764 163.28H201.284L202.084 164.08L202.724 163.28H207.204L204.644 166.32L205.444 167.12V182.48L201.284 186.32H189.764L188.964 185.52L188.324 186.32H183.844L186.404 183.28L185.604 182.48V167.12L189.764 163.28ZM197.924 180.88L198.564 180.24V173.84L192.804 180.88H197.924ZM193.124 168.72L192.484 169.36V175.76L198.244 168.72H193.124ZM222.259 186L218.579 179.44H216.339V186H209.459V163.6H224.179L228.019 167.12V175.12L224.819 178L229.299 186H222.259ZM221.139 169.68L220.499 169.04H216.339V174H220.499L221.139 173.36V169.68ZM234.745 177.2L230.905 173.68V167.12L234.745 163.6H248.665V169.04H238.425L237.785 169.68V171.12L238.425 171.76H245.945L249.785 175.28V182.48L245.945 186H231.065V180.56H242.265L242.905 179.92V177.84L242.265 177.2H234.745ZM263.394 186H256.514V169.04H251.234V163.6H268.674V169.04H263.394V186ZM271.553 163.6H288.513V169.04H278.433V172.24H285.633V177.36H278.433V180.56H288.833V186H271.553V163.6ZM312.2 186H298.28V180.56H301.8V169.04H298.28V163.6H312.2V169.04H308.68V180.56H312.2V186ZM328.669 173.84V163.6H335.549V186H328.829L322.749 175.76H322.589V186H315.709V163.6H322.461L328.509 173.84H328.669ZM352.981 173.84V163.6H359.861V186H353.141L347.061 175.76H346.901V186H340.021V163.6H346.773L352.821 173.84H352.981ZM367.214 177.2L363.374 173.68V167.12L367.214 163.6H381.134V169.04H370.894L370.254 169.68V171.12L370.894 171.76H378.414L382.254 175.28V182.48L378.414 186H363.534V180.56H374.734L375.374 179.92V177.84L374.734 177.2H367.214ZM392.495 177.52V186H385.615V163.6H392.495V172.08H392.975L397.775 163.6H405.135L398.735 174.48L405.775 186H398.415L393.455 177.52H392.495ZM420.029 180.24V163.6H426.909V182.48L422.749 186.32H411.869L407.709 182.48V163.6H414.589V180.24L415.229 180.88H419.389L420.029 180.24ZM431.396 186V163.6H446.596L450.756 167.44V182.16L446.596 186H431.396ZM438.276 180.56H443.236L443.876 179.92V169.68L443.236 169.04H438.276V180.56ZM454.771 186V163.6H469.971L474.131 167.44V182.16L469.971 186H454.771ZM461.651 180.56H466.611L467.251 179.92V169.68L466.611 169.04H461.651V180.56ZM484.706 163.6V172.88L483.586 178.64H478.946L477.826 172.88V163.6H484.706ZM484.386 186H478.146V180.56H484.386V186Z" fill="url(#paint1_linear_1777_930)"/>
<path d="M619.003 121.162C618.292 120.448 617.44 120.102 616.435 120.102H576.061V181H612.637C616.82 181 620 177.393 620 173.189V123.799C620 122.789 619.713 121.876 619.003 121.162Z" fill="url(#paint2_linear_1777_930)"/>
<path d="M563.939 120.102H523.901C521.809 120.102 520 121.697 520 123.799V173.189C520 177.392 523.516 181 527.699 181H563.939V120.102Z" fill="url(#paint3_linear_1777_930)"/>
<path d="M563.939 80.5179H527.756C523.566 80.5179 520.001 83.9312 520.001 88.1408V105.881C520.001 110.091 523.566 113.504 527.756 113.504H563.94L563.939 80.5179Z" fill="url(#paint4_linear_1777_930)"/>
<path d="M612.581 80.5179H576.061V113.504H612.581C616.771 113.504 620 110.091 620 105.881V88.1408C620 83.9307 616.771 80.5179 612.581 80.5179Z" fill="url(#paint5_linear_1777_930)"/>
<path d="M590.321 50.1484C587.635 48.0596 584.954 47 582.351 47C577.148 47 573.064 50.8787 570.177 58.5351C567.29 50.8787 563.207 47 558.004 47C555.402 47 552.72 48.0596 550.034 50.1484C544.923 54.1241 544.38 58.2631 544.824 61.0355C546.488 71.4237 565.184 78.557 568.915 79.882C569.326 80.0282 569.753 80.0997 570.177 80.0997H570.178C570.602 80.0997 571.028 80.0282 571.439 79.882C575.17 78.5575 593.866 71.4232 595.53 61.0355C595.974 58.2631 595.431 54.1246 590.321 50.1484ZM561.632 68.2362C553.505 63.743 552.437 60.662 552.303 59.8252C552.132 58.7544 552.929 57.5237 554.671 56.1682C555.98 55.1502 557.132 54.6123 558.004 54.6123C559.625 54.6123 562.093 57.2096 564.162 64.4996C564.717 66.4545 565.148 68.4255 565.478 70.1946C564.261 69.6217 562.949 68.964 561.632 68.2362ZM588.051 59.8247C587.525 63.1218 581.106 67.269 574.849 70.2307C576.333 62.4281 579.205 54.6123 582.351 54.6123C583.223 54.6123 584.375 55.1502 585.683 56.1682C587.425 57.5232 588.222 58.7534 588.051 59.8247Z" fill="url(#paint6_linear_1777_930)"/>
<defs>
<linearGradient id="paint0_linear_1777_930" x1="257.5" y1="30.5" x2="257.5" y2="115" gradientUnits="userSpaceOnUse">
<stop stop-color="white"/>
<stop offset="0.484275" stop-color="#FBFBFB"/>
<stop offset="0.484375" stop-color="#DCDCDC"/>
<stop offset="0.901042" stop-color="white"/>
</linearGradient>
<linearGradient id="paint1_linear_1777_930" x1="258" y1="165.022" x2="258" y2="184.475" gradientUnits="userSpaceOnUse">
<stop stop-color="white"/>
<stop offset="0.484275" stop-color="#FBFBFB"/>
<stop offset="0.484375" stop-color="#DCDCDC"/>
<stop offset="0.901042" stop-color="white"/>
</linearGradient>
<linearGradient id="paint2_linear_1777_930" x1="610.306" y1="50.6077" x2="610.306" y2="181" gradientUnits="userSpaceOnUse">
<stop offset="0.357421" stop-color="white"/>
<stop offset="0.70328" stop-color="#DCDCDC"/>
<stop offset="0.933981" stop-color="white"/>
</linearGradient>
<linearGradient id="paint3_linear_1777_930" x1="610.306" y1="50.6077" x2="610.306" y2="181" gradientUnits="userSpaceOnUse">
<stop offset="0.357421" stop-color="white"/>
<stop offset="0.70328" stop-color="#DCDCDC"/>
<stop offset="0.933981" stop-color="white"/>
</linearGradient>
<linearGradient id="paint4_linear_1777_930" x1="610.306" y1="50.6077" x2="610.306" y2="181" gradientUnits="userSpaceOnUse">
<stop offset="0.357421" stop-color="white"/>
<stop offset="0.70328" stop-color="#DCDCDC"/>
<stop offset="0.933981" stop-color="white"/>
</linearGradient>
<linearGradient id="paint5_linear_1777_930" x1="610.306" y1="50.6077" x2="610.306" y2="181" gradientUnits="userSpaceOnUse">
<stop offset="0.357421" stop-color="white"/>
<stop offset="0.70328" stop-color="#DCDCDC"/>
<stop offset="0.933981" stop-color="white"/>
</linearGradient>
<linearGradient id="paint6_linear_1777_930" x1="610.306" y1="50.6077" x2="610.306" y2="181" gradientUnits="userSpaceOnUse">
<stop offset="0.357421" stop-color="white"/>
<stop offset="0.70328" stop-color="#DCDCDC"/>
<stop offset="0.933981" stop-color="white"/>
</linearGradient>
</defs>
</svg>
