<svg width="654" height="216" viewBox="0 0 654 216" fill="none" xmlns="http://www.w3.org/2000/svg">
<path d="M0 36C0 22.7452 10.7452 12 24 12H630C643.255 12 654 22.7452 654 36V134H0V36Z" fill="#DD2225"/>
<path d="M0 192C0 205.255 10.7452 216 24 216H630C643.255 216 654 205.255 654 192V134H0V192Z" fill="#0083D4"/>
<path d="M168.624 115H113.569V94.43H128.089V50.87H113.569V30.3H154.104V94.43H168.624V115ZM177.661 78.7L193.391 64.18H215.776L220.011 60.55V53.895L216.986 50.87H180.081V30.3H233.321L246.026 41.795V69.02L230.296 83.54H207.911L203.676 87.17V94.43H243.001V115H177.661V78.7ZM255.059 78.7L270.789 64.18H293.174L297.409 60.55V53.895L294.384 50.87H257.479V30.3H310.719L323.424 41.795V69.02L307.694 83.54H285.309L281.074 87.17V94.43H320.399V115H255.059V78.7ZM331.851 70.23V56.315H340.321V44.82L356.051 30.3H405.056V49.66H368.756L366.336 52.08V56.315H391.746V70.23H366.336V75.07H391.746V88.985H366.336V93.22L368.756 95.64H405.056V115H356.051L340.321 100.48V88.985H331.851V75.07H340.321V70.23H331.851Z" fill="url(#paint0_linear_1773_438)"/>
<path d="M57.0727 181.6H46.8727V189H38.2727V161H57.0727L61.8727 165.4V177.2L57.0727 181.6ZM53.2727 168.6L52.4727 167.8H46.8727V174.8H52.4727L53.2727 174V168.6ZM82.2805 189L77.6805 180.8H74.8805V189H66.2805V161H84.6805L89.4805 165.4V175.4L85.4805 179L91.0805 189H82.2805ZM80.8805 168.6L80.0805 167.8H74.8805V174H80.0805L80.8805 173.2V168.6ZM80.8005 157.8H74.2005L70.0005 151.8H76.4005L77.4005 153.4H77.6005L78.6005 151.8H85.0005L80.8005 157.8ZM110.488 189H93.0883V182.2H97.4883V167.8H93.0883V161H110.488V167.8H106.088V182.2H110.488V189ZM142.893 181.6H132.693V189H124.093V161H142.893L147.693 165.4V177.2L142.893 181.6ZM139.093 168.6L138.293 167.8H132.693V174.8H138.293L139.093 174V168.6ZM168.101 189L163.501 180.8H160.701V189H152.101V161H170.501L175.301 165.4V175.4L171.301 179L176.901 189H168.101ZM166.701 168.6L165.901 167.8H160.701V174H165.901L166.701 173.2V168.6ZM196.909 189H186.309L177.309 161H186.109L191.509 179.2H191.709L197.109 161H205.909L196.909 189ZM224.902 173.8V161H233.502V189H225.102L217.502 176.2H217.302V189H208.702V161H217.142L224.702 173.8H224.902ZM255.293 189H237.893V182.2H242.293V167.8H237.893V161H255.293V167.8H250.893V182.2H255.293V189ZM246.493 151.8H254.693L249.893 157.8H243.693L246.493 151.8ZM276.679 183.4H272.079L268.479 176.4H268.279V189H259.679V161H268.279L274.279 172.4H274.479L280.479 161H289.079V189H280.479V176.4H280.279L276.679 183.4ZM319.487 189H308.887L299.887 161H308.687L314.087 179.2H314.287L319.687 161H328.487L319.487 189ZM339.88 178.4V189H331.28V161H339.88V171.6H340.48L346.48 161H355.68L347.68 174.6L356.48 189H347.28L341.08 178.4H339.88ZM358.898 161H367.498V182.2H379.298V189H358.898V161ZM398.682 183.4H390.682L388.882 189H380.082L389.082 161H400.282L409.282 189H400.482L398.682 183.4ZM394.682 170.4L392.882 176.6H396.482L394.682 170.4ZM412.101 189V161H431.101L436.301 165.8V184.2L431.101 189H412.101ZM420.701 182.2H426.901L427.701 181.4V168.6L426.901 167.8H420.701V182.2ZM456.72 181.8V161H465.32V184.6L460.12 189.4H446.52L441.32 184.6V161H449.92V181.8L450.72 182.6H455.92L456.72 181.8ZM479.129 161V172.6L477.729 179.8H471.929L470.529 172.6V161H479.129ZM478.729 189H470.929V182.2H478.729V189Z" fill="url(#paint1_linear_1773_438)"/>
<path d="M617.003 121.162C616.292 120.448 615.44 120.102 614.435 120.102H574.061V181H610.637C614.82 181 618 177.393 618 173.189V123.799C618 122.789 617.713 121.876 617.003 121.162Z" fill="url(#paint2_linear_1773_438)"/>
<path d="M561.939 120.102H521.901C519.809 120.102 518 121.697 518 123.799V173.189C518 177.392 521.516 181 525.699 181H561.939V120.102Z" fill="url(#paint3_linear_1773_438)"/>
<path d="M561.939 80.5179H525.756C521.566 80.5179 518.001 83.9312 518.001 88.1408V105.881C518.001 110.091 521.566 113.504 525.756 113.504H561.94L561.939 80.5179Z" fill="url(#paint4_linear_1773_438)"/>
<path d="M610.581 80.5179H574.061V113.504H610.581C614.771 113.504 618 110.091 618 105.881V88.1408C618 83.9307 614.771 80.5179 610.581 80.5179Z" fill="url(#paint5_linear_1773_438)"/>
<path d="M588.321 50.1484C585.635 48.0596 582.954 47 580.351 47C575.148 47 571.064 50.8787 568.177 58.5351C565.29 50.8787 561.207 47 556.004 47C553.402 47 550.72 48.0596 548.034 50.1484C542.923 54.1241 542.38 58.2631 542.824 61.0355C544.488 71.4237 563.184 78.557 566.915 79.882C567.326 80.0282 567.753 80.0997 568.177 80.0997H568.178C568.602 80.0997 569.028 80.0282 569.439 79.882C573.17 78.5575 591.866 71.4232 593.53 61.0355C593.974 58.2631 593.431 54.1246 588.321 50.1484ZM559.632 68.2362C551.505 63.743 550.437 60.662 550.303 59.8252C550.132 58.7544 550.929 57.5237 552.671 56.1682C553.98 55.1502 555.132 54.6123 556.004 54.6123C557.625 54.6123 560.093 57.2096 562.162 64.4996C562.717 66.4545 563.148 68.4255 563.478 70.1946C562.261 69.6217 560.949 68.964 559.632 68.2362ZM586.051 59.8247C585.525 63.1218 579.106 67.269 572.849 70.2307C574.333 62.4281 577.205 54.6123 580.351 54.6123C581.223 54.6123 582.375 55.1502 583.683 56.1682C585.425 57.5232 586.222 58.7534 586.051 59.8247Z" fill="url(#paint6_linear_1773_438)"/>
<defs>
<linearGradient id="paint0_linear_1773_438" x1="257.5" y1="30.5" x2="257.5" y2="115" gradientUnits="userSpaceOnUse">
<stop stop-color="white"/>
<stop offset="0.484275" stop-color="#FBFBFB"/>
<stop offset="0.484375" stop-color="#DCDCDC"/>
<stop offset="0.901042" stop-color="white"/>
</linearGradient>
<linearGradient id="paint1_linear_1773_438" x1="258.5" y1="162.777" x2="258.5" y2="187.094" gradientUnits="userSpaceOnUse">
<stop stop-color="white"/>
<stop offset="0.484275" stop-color="#FBFBFB"/>
<stop offset="0.484375" stop-color="#DCDCDC"/>
<stop offset="0.901042" stop-color="white"/>
</linearGradient>
<linearGradient id="paint2_linear_1773_438" x1="608.306" y1="50.6077" x2="608.306" y2="181" gradientUnits="userSpaceOnUse">
<stop offset="0.357421" stop-color="white"/>
<stop offset="0.70328" stop-color="#DCDCDC"/>
<stop offset="0.933981" stop-color="white"/>
</linearGradient>
<linearGradient id="paint3_linear_1773_438" x1="608.306" y1="50.6077" x2="608.306" y2="181" gradientUnits="userSpaceOnUse">
<stop offset="0.357421" stop-color="white"/>
<stop offset="0.70328" stop-color="#DCDCDC"/>
<stop offset="0.933981" stop-color="white"/>
</linearGradient>
<linearGradient id="paint4_linear_1773_438" x1="608.306" y1="50.6077" x2="608.306" y2="181" gradientUnits="userSpaceOnUse">
<stop offset="0.357421" stop-color="white"/>
<stop offset="0.70328" stop-color="#DCDCDC"/>
<stop offset="0.933981" stop-color="white"/>
</linearGradient>
<linearGradient id="paint5_linear_1773_438" x1="608.306" y1="50.6077" x2="608.306" y2="181" gradientUnits="userSpaceOnUse">
<stop offset="0.357421" stop-color="white"/>
<stop offset="0.70328" stop-color="#DCDCDC"/>
<stop offset="0.933981" stop-color="white"/>
</linearGradient>
<linearGradient id="paint6_linear_1773_438" x1="608.306" y1="50.6077" x2="608.306" y2="181" gradientUnits="userSpaceOnUse">
<stop offset="0.357421" stop-color="white"/>
<stop offset="0.70328" stop-color="#DCDCDC"/>
<stop offset="0.933981" stop-color="white"/>
</linearGradient>
</defs>
</svg>
