<svg width="654" height="216" viewBox="0 0 654 216" fill="none" xmlns="http://www.w3.org/2000/svg">
<path d="M0 36C0 22.7452 10.7452 12 24 12H630C643.255 12 654 22.7452 654 36V134H0V36Z" fill="#DD2225"/>
<path d="M0 192C0 205.255 10.7452 216 24 216H630C643.255 216 654 205.255 654 192V134H0V192Z" fill="#0083D4"/>
<path d="M168.624 115H113.569V94.43H128.089V50.87H113.569V30.3H154.104V94.43H168.624V115ZM177.661 78.7L193.391 64.18H215.776L220.011 60.55V53.895L216.986 50.87H180.081V30.3H233.321L246.026 41.795V69.02L230.296 83.54H207.911L203.676 87.17V94.43H243.001V115H177.661V78.7ZM255.059 78.7L270.789 64.18H293.174L297.409 60.55V53.895L294.384 50.87H257.479V30.3H310.719L323.424 41.795V69.02L307.694 83.54H285.309L281.074 87.17V94.43H320.399V115H255.059V78.7ZM331.851 70.23V56.315H340.321V44.82L356.051 30.3H405.056V49.66H368.756L366.336 52.08V56.315H391.746V70.23H366.336V75.07H391.746V88.985H366.336V93.22L368.756 95.64H405.056V115H356.051L340.321 100.48V88.985H331.851V75.07H340.321V70.23H331.851Z" fill="url(#paint0_linear_1777_1044)"/>
<path d="M46.2063 180.265H38.3013V186H31.6363V164.3H46.2063L49.9263 167.71V176.855L46.2063 180.265ZM43.2613 170.19L42.6413 169.57H38.3013V174.995H42.6413L43.2613 174.375V170.19ZM65.7424 186L62.1774 179.645H60.0074V186H53.3424V164.3H67.6024L71.3224 167.71V175.46L68.2224 178.25L72.5624 186H65.7424ZM64.6574 170.19L64.0374 169.57H60.0074V174.375H64.0374L64.6574 173.755V170.19ZM91.1684 186H73.8084V180.885L83.1084 169.57H74.1184V164.3H90.8584V169.415L81.5584 180.73H91.1684V186ZM105.432 186H98.7671V179.645L91.7921 164.3H98.6121L102.022 172.36H102.177L105.587 164.3H112.407L105.432 179.645V186ZM135.029 180.265H127.124V186H120.459V164.3H135.029L138.749 167.71V176.855L135.029 180.265ZM132.084 170.19L131.464 169.57H127.124V174.995H131.464L132.084 174.375V170.19ZM154.72 186H141.235V180.73H144.645V169.57H141.235V164.3H154.72V169.57H151.31V180.73H154.72V186ZM158.119 164.3H174.549V169.57H164.784V172.67H171.759V177.63H164.784V180.73H174.859V186H158.119V164.3ZM190.196 186L186.631 179.645H184.461V186H177.796V164.3H192.056L195.776 167.71V175.46L192.676 178.25L197.016 186H190.196ZM189.111 170.19L188.491 169.57H184.461V174.375H188.491L189.111 173.755V170.19ZM216.398 164.3L218.258 177.01H218.413L220.583 164.3H227.248L222.598 186H214.228L212.523 174.22H212.368L210.663 186H202.293L197.643 164.3H204.308L206.478 177.01H206.633L208.493 164.3H216.398ZM232.505 177.475L228.785 174.065V167.71L232.505 164.3H245.99V169.57H236.07L235.45 170.19V171.585L236.07 172.205H243.355L247.075 175.615V182.59L243.355 186H228.94V180.73H239.79L240.41 180.11V178.095L239.79 177.475H232.505ZM266.452 186H249.092V180.885L258.392 169.57H249.402V164.3H266.142V169.415L256.842 180.73H266.452V186ZM269.555 164.3H285.985V169.57H276.22V172.67H283.195V177.63H276.22V180.73H286.295V186H269.555V164.3ZM294.813 180.11V164.3H301.478V182.28L297.448 186H287.373V180.73H294.193L294.813 180.11ZM312.967 186V164.3H327.692L331.722 168.02V182.28L327.692 186H312.967ZM319.632 180.73H324.437L325.057 180.11V170.19L324.437 169.57H319.632V180.73ZM335.612 164.3H352.042V169.57H342.277V172.67H349.252V177.63H342.277V180.73H352.352V186H335.612V164.3ZM369.86 180.265H361.955V186H355.29V164.3H369.86L373.58 167.71V176.855L369.86 180.265ZM366.915 170.19L366.295 169.57H361.955V174.995H366.295L366.915 174.375V170.19ZM383.816 169.26L383.196 169.88V180.42L383.816 181.04H388.466L389.086 180.42V169.88L388.466 169.26H383.816ZM380.561 163.99H391.721L395.751 167.71V182.59L391.721 186.31H380.561L376.531 182.59V167.71L380.561 163.99ZM415.155 186H397.795V180.885L407.095 169.57H398.105V164.3H414.845V169.415L405.545 180.73H415.155V186ZM429.418 186H422.753V179.645L415.778 164.3H422.598L426.008 172.36H426.163L429.573 164.3H436.393L429.418 179.645V186ZM448.469 186H441.804V169.57H436.689V164.3H453.584V169.57H448.469V186ZM468.308 180.42V164.3H474.973V182.59L470.943 186.31H460.403L456.373 182.59V164.3H463.038V180.42L463.658 181.04H467.688L468.308 180.42ZM485.675 164.3V173.29L484.59 178.87H480.095L479.01 173.29V164.3H485.675ZM485.365 186H479.32V180.73H485.365V186Z" fill="url(#paint1_linear_1777_1044)"/>
<path d="M620.003 121.162C619.292 120.448 618.44 120.102 617.435 120.102H577.061V181H613.637C617.82 181 621 177.393 621 173.189V123.799C621 122.789 620.713 121.876 620.003 121.162Z" fill="url(#paint2_linear_1777_1044)"/>
<path d="M564.939 120.102H524.901C522.809 120.102 521 121.697 521 123.799V173.189C521 177.392 524.516 181 528.699 181H564.939V120.102Z" fill="url(#paint3_linear_1777_1044)"/>
<path d="M564.939 80.5179H528.756C524.566 80.5179 521.001 83.9312 521.001 88.1408V105.881C521.001 110.091 524.566 113.504 528.756 113.504H564.94L564.939 80.5179Z" fill="url(#paint4_linear_1777_1044)"/>
<path d="M613.581 80.5179H577.061V113.504H613.581C617.771 113.504 621 110.091 621 105.881V88.1408C621 83.9307 617.771 80.5179 613.581 80.5179Z" fill="url(#paint5_linear_1777_1044)"/>
<path d="M591.321 50.1484C588.635 48.0596 585.954 47 583.351 47C578.148 47 574.064 50.8787 571.177 58.5351C568.29 50.8787 564.207 47 559.004 47C556.402 47 553.72 48.0596 551.034 50.1484C545.923 54.1241 545.38 58.2631 545.824 61.0355C547.488 71.4237 566.184 78.557 569.915 79.882C570.326 80.0282 570.753 80.0997 571.177 80.0997H571.178C571.602 80.0997 572.028 80.0282 572.439 79.882C576.17 78.5575 594.866 71.4232 596.53 61.0355C596.974 58.2631 596.431 54.1246 591.321 50.1484ZM562.632 68.2362C554.505 63.743 553.437 60.662 553.303 59.8252C553.132 58.7544 553.929 57.5237 555.671 56.1682C556.98 55.1502 558.132 54.6123 559.004 54.6123C560.625 54.6123 563.093 57.2096 565.162 64.4996C565.717 66.4545 566.148 68.4255 566.478 70.1946C565.261 69.6217 563.949 68.964 562.632 68.2362ZM589.051 59.8247C588.525 63.1218 582.106 67.269 575.849 70.2307C577.333 62.4281 580.205 54.6123 583.351 54.6123C584.223 54.6123 585.375 55.1502 586.683 56.1682C588.425 57.5232 589.222 58.7534 589.051 59.8247Z" fill="url(#paint6_linear_1777_1044)"/>
<defs>
<linearGradient id="paint0_linear_1777_1044" x1="257.5" y1="30.5" x2="257.5" y2="115" gradientUnits="userSpaceOnUse">
<stop stop-color="white"/>
<stop offset="0.484275" stop-color="#FBFBFB"/>
<stop offset="0.484375" stop-color="#DCDCDC"/>
<stop offset="0.901042" stop-color="white"/>
</linearGradient>
<linearGradient id="paint1_linear_1777_1044" x1="258.5" y1="165.802" x2="258.5" y2="184.647" gradientUnits="userSpaceOnUse">
<stop stop-color="white"/>
<stop offset="0.484275" stop-color="#FBFBFB"/>
<stop offset="0.484375" stop-color="#DCDCDC"/>
<stop offset="0.901042" stop-color="white"/>
</linearGradient>
<linearGradient id="paint2_linear_1777_1044" x1="611.306" y1="50.6077" x2="611.306" y2="181" gradientUnits="userSpaceOnUse">
<stop offset="0.357421" stop-color="white"/>
<stop offset="0.70328" stop-color="#DCDCDC"/>
<stop offset="0.933981" stop-color="white"/>
</linearGradient>
<linearGradient id="paint3_linear_1777_1044" x1="611.306" y1="50.6077" x2="611.306" y2="181" gradientUnits="userSpaceOnUse">
<stop offset="0.357421" stop-color="white"/>
<stop offset="0.70328" stop-color="#DCDCDC"/>
<stop offset="0.933981" stop-color="white"/>
</linearGradient>
<linearGradient id="paint4_linear_1777_1044" x1="611.306" y1="50.6077" x2="611.306" y2="181" gradientUnits="userSpaceOnUse">
<stop offset="0.357421" stop-color="white"/>
<stop offset="0.70328" stop-color="#DCDCDC"/>
<stop offset="0.933981" stop-color="white"/>
</linearGradient>
<linearGradient id="paint5_linear_1777_1044" x1="611.306" y1="50.6077" x2="611.306" y2="181" gradientUnits="userSpaceOnUse">
<stop offset="0.357421" stop-color="white"/>
<stop offset="0.70328" stop-color="#DCDCDC"/>
<stop offset="0.933981" stop-color="white"/>
</linearGradient>
<linearGradient id="paint6_linear_1777_1044" x1="611.306" y1="50.6077" x2="611.306" y2="181" gradientUnits="userSpaceOnUse">
<stop offset="0.357421" stop-color="white"/>
<stop offset="0.70328" stop-color="#DCDCDC"/>
<stop offset="0.933981" stop-color="white"/>
</linearGradient>
</defs>
</svg>
