<svg width="654" height="216" viewBox="0 0 654 216" fill="none" xmlns="http://www.w3.org/2000/svg">
<path d="M0 36C0 22.7452 10.7452 12 24 12H630C643.255 12 654 22.7452 654 36V134H0V36Z" fill="#DD2225"/>
<path d="M0 192C0 205.255 10.7452 216 24 216H630C643.255 216 654 205.255 654 192V134H0V192Z" fill="#0083D4"/>
<path d="M168.624 115H113.569V94.43H128.089V50.87H113.569V30.3H154.104V94.43H168.624V115ZM177.661 78.7L193.391 64.18H215.776L220.011 60.55V53.895L216.986 50.87H180.081V30.3H233.321L246.026 41.795V69.02L230.296 83.54H207.911L203.676 87.17V94.43H243.001V115H177.661V78.7ZM255.059 78.7L270.789 64.18H293.174L297.409 60.55V53.895L294.384 50.87H257.479V30.3H310.719L323.424 41.795V69.02L307.694 83.54H285.309L281.074 87.17V94.43H320.399V115H255.059V78.7ZM331.851 70.23V56.315H340.321V44.82L356.051 30.3H405.056V49.66H368.756L366.336 52.08V56.315H391.746V70.23H366.336V75.07H391.746V88.985H366.336V93.22L368.756 95.64H405.056V115H356.051L340.321 100.48V88.985H331.851V75.07H340.321V70.23H331.851Z" fill="url(#paint0_linear_1770_259)"/>
<path d="M36.4708 163.2H54.4908V168.98H43.7808V172.38H51.4308V177.82H43.7808V181.22H54.8308V187H36.4708V163.2ZM71.8229 174.08V163.2H79.1329V187H71.9929L65.5329 176.12H65.3629V187H58.0529V163.2H65.2269L71.6529 174.08H71.8229ZM101.912 187H94.6015V168.98H88.9915V163.2H107.522V168.98H101.912V187ZM123.67 180.88V163.2H130.98V183.26L126.56 187.34H115L110.58 183.26V163.2H117.89V180.88L118.57 181.56H122.99L123.67 180.88ZM159.564 180.71H150.894V187H143.584V163.2H159.564L163.644 166.94V176.97L159.564 180.71ZM156.334 169.66L155.654 168.98H150.894V174.93H155.654L156.334 174.25V169.66ZM180.991 187L177.081 180.03H174.701V187H167.391V163.2H183.031L187.111 166.94V175.44L183.711 178.5L188.471 187H180.991ZM179.801 169.66L179.121 168.98H174.701V174.25H179.121L179.801 173.57V169.66ZM204.967 187H190.177V181.22H193.917V168.98H190.177V163.2H204.967V168.98H201.227V181.22H204.967V187ZM223.145 182.24H219.235L216.175 176.29H216.005V187H208.695V163.2H216.005L221.105 172.89H221.275L226.375 163.2H233.685V187H226.375V176.29H226.205L223.145 182.24ZM238.445 163.2H256.465V168.98H245.755V172.38H253.405V177.82H245.755V181.22H256.805V187H238.445V163.2ZM273.627 187L269.717 180.03H267.337V187H260.027V163.2H275.667L279.747 166.94V175.44L276.347 178.5L281.107 187H273.627ZM272.437 169.66L271.757 168.98H267.337V174.25H271.757L272.437 173.57V169.66ZM291.67 187V163.2H307.82L312.24 167.28V182.92L307.82 187H291.67ZM298.98 181.22H304.25L304.93 180.54V169.66L304.25 168.98H298.98V181.22ZM316.506 163.2H334.526V168.98H323.816V172.38H331.466V177.82H323.816V181.22H334.866V187H316.506V163.2ZM354.068 180.71H345.398V187H338.088V163.2H354.068L358.148 166.94V176.97L354.068 180.71ZM350.838 169.66L350.158 168.98H345.398V174.93H350.158L350.838 174.25V169.66ZM369.375 168.64L368.695 169.32V180.88L369.375 181.56H374.475L375.155 180.88V169.32L374.475 168.64H369.375ZM365.805 162.86H378.045L382.465 166.94V183.26L378.045 187.34H365.805L361.385 183.26V166.94L365.805 162.86ZM371.755 155.38H378.725L374.645 160.48H369.375L371.755 155.38ZM389.791 177.65L385.711 173.91V166.94L389.791 163.2H404.581V168.98H393.701L393.021 169.66V171.19L393.701 171.87H401.691L405.771 175.61V183.26L401.691 187H385.881V181.22H397.781L398.461 180.54V178.33L397.781 177.65H389.791ZM423.112 187H408.322V181.22H412.062V168.98H408.322V163.2H423.112V168.98H419.372V181.22H423.112V187ZM438.06 187H430.75V168.98H425.14V163.2H443.67V168.98H438.06V187ZM453.545 168.64L452.865 169.32V180.88L453.545 181.56H458.645L459.325 180.88V169.32L458.645 168.64H453.545ZM449.975 162.86H462.215L466.635 166.94V183.26L462.215 187.34H449.975L445.555 183.26V166.94L449.975 162.86ZM477.871 163.2V173.06L476.681 179.18H471.751L470.561 173.06V163.2H477.871ZM477.531 187H470.901V181.22H477.531V187Z" fill="url(#paint1_linear_1770_259)"/>
<path d="M615.003 121.162C614.292 120.448 613.44 120.102 612.435 120.102H572.061V181H608.637C612.82 181 616 177.393 616 173.189V123.799C616 122.789 615.713 121.876 615.003 121.162Z" fill="url(#paint2_linear_1770_259)"/>
<path d="M559.939 120.102H519.901C517.809 120.102 516 121.697 516 123.799V173.189C516 177.392 519.516 181 523.699 181H559.939V120.102Z" fill="url(#paint3_linear_1770_259)"/>
<path d="M559.939 80.5179H523.756C519.566 80.5179 516.001 83.9312 516.001 88.1408V105.881C516.001 110.091 519.566 113.504 523.756 113.504H559.94L559.939 80.5179Z" fill="url(#paint4_linear_1770_259)"/>
<path d="M608.581 80.5179H572.061V113.504H608.581C612.771 113.504 616 110.091 616 105.881V88.1408C616 83.9307 612.771 80.5179 608.581 80.5179Z" fill="url(#paint5_linear_1770_259)"/>
<path d="M586.321 50.1484C583.635 48.0596 580.954 47 578.351 47C573.148 47 569.064 50.8787 566.177 58.5351C563.29 50.8787 559.207 47 554.004 47C551.402 47 548.72 48.0596 546.034 50.1484C540.923 54.1241 540.38 58.2631 540.824 61.0355C542.488 71.4237 561.184 78.557 564.915 79.882C565.326 80.0282 565.753 80.0997 566.177 80.0997H566.178C566.602 80.0997 567.028 80.0282 567.439 79.882C571.17 78.5575 589.866 71.4232 591.53 61.0355C591.974 58.2631 591.431 54.1246 586.321 50.1484ZM557.632 68.2362C549.505 63.743 548.437 60.662 548.303 59.8252C548.132 58.7544 548.929 57.5237 550.671 56.1682C551.98 55.1502 553.132 54.6123 554.004 54.6123C555.625 54.6123 558.093 57.2096 560.162 64.4996C560.717 66.4545 561.148 68.4255 561.478 70.1946C560.261 69.6217 558.949 68.964 557.632 68.2362ZM584.051 59.8247C583.525 63.1218 577.106 67.269 570.849 70.2307C572.333 62.4281 575.205 54.6123 578.351 54.6123C579.223 54.6123 580.375 55.1502 581.683 56.1682C583.425 57.5232 584.222 58.7534 584.051 59.8247Z" fill="url(#paint6_linear_1770_259)"/>
<defs>
<linearGradient id="paint0_linear_1770_259" x1="257.5" y1="30.5" x2="257.5" y2="115" gradientUnits="userSpaceOnUse">
<stop stop-color="white"/>
<stop offset="0.484275" stop-color="#FBFBFB"/>
<stop offset="0.484375" stop-color="#DCDCDC"/>
<stop offset="0.901042" stop-color="white"/>
</linearGradient>
<linearGradient id="paint1_linear_1770_259" x1="257" y1="164.46" x2="257" y2="185.129" gradientUnits="userSpaceOnUse">
<stop stop-color="white"/>
<stop offset="0.484275" stop-color="#FBFBFB"/>
<stop offset="0.484375" stop-color="#DCDCDC"/>
<stop offset="0.901042" stop-color="white"/>
</linearGradient>
<linearGradient id="paint2_linear_1770_259" x1="606.306" y1="50.6077" x2="606.306" y2="181" gradientUnits="userSpaceOnUse">
<stop offset="0.357421" stop-color="white"/>
<stop offset="0.70328" stop-color="#DCDCDC"/>
<stop offset="0.933981" stop-color="white"/>
</linearGradient>
<linearGradient id="paint3_linear_1770_259" x1="606.306" y1="50.6077" x2="606.306" y2="181" gradientUnits="userSpaceOnUse">
<stop offset="0.357421" stop-color="white"/>
<stop offset="0.70328" stop-color="#DCDCDC"/>
<stop offset="0.933981" stop-color="white"/>
</linearGradient>
<linearGradient id="paint4_linear_1770_259" x1="606.306" y1="50.6077" x2="606.306" y2="181" gradientUnits="userSpaceOnUse">
<stop offset="0.357421" stop-color="white"/>
<stop offset="0.70328" stop-color="#DCDCDC"/>
<stop offset="0.933981" stop-color="white"/>
</linearGradient>
<linearGradient id="paint5_linear_1770_259" x1="606.306" y1="50.6077" x2="606.306" y2="181" gradientUnits="userSpaceOnUse">
<stop offset="0.357421" stop-color="white"/>
<stop offset="0.70328" stop-color="#DCDCDC"/>
<stop offset="0.933981" stop-color="white"/>
</linearGradient>
<linearGradient id="paint6_linear_1770_259" x1="606.306" y1="50.6077" x2="606.306" y2="181" gradientUnits="userSpaceOnUse">
<stop offset="0.357421" stop-color="white"/>
<stop offset="0.70328" stop-color="#DCDCDC"/>
<stop offset="0.933981" stop-color="white"/>
</linearGradient>
</defs>
</svg>
