<svg width="654" height="216" viewBox="0 0 654 216" fill="none" xmlns="http://www.w3.org/2000/svg">
<path d="M0 36C0 22.7452 10.7452 12 24 12H630C643.255 12 654 22.7452 654 36V134H0V36Z" fill="#DD2225"/>
<path d="M0 192C0 205.255 10.7452 216 24 216H630C643.255 216 654 205.255 654 192V134H0V192Z" fill="#0083D4"/>
<path d="M168.624 115H113.569V94.43H128.089V50.87H113.569V30.3H154.104V94.43H168.624V115ZM177.661 78.7L193.391 64.18H215.776L220.011 60.55V53.895L216.986 50.87H180.081V30.3H233.321L246.026 41.795V69.02L230.296 83.54H207.911L203.676 87.17V94.43H243.001V115H177.661V78.7ZM255.059 78.7L270.789 64.18H293.174L297.409 60.55V53.895L294.384 50.87H257.479V30.3H310.719L323.424 41.795V69.02L307.694 83.54H285.309L281.074 87.17V94.43H320.399V115H255.059V78.7ZM331.851 70.23V56.315H340.321V44.82L356.051 30.3H405.056V49.66H368.756L366.336 52.08V56.315H391.746V70.23H366.336V75.07H391.746V88.985H366.336V93.22L368.756 95.64H405.056V115H356.051L340.321 100.48V88.985H331.851V75.07H340.321V70.23H331.851Z" fill="url(#paint0_linear_1828_6)"/>
<path d="M51.1 182.24H44.3L42.77 187H35.29L42.94 163.2H52.46L60.11 187H52.63L51.1 182.24ZM47.7 171.19L46.17 176.46H49.23L47.7 171.19ZM80.186 187H61.146V181.39L71.346 168.98H61.486V163.2H79.846V168.81L69.646 181.22H80.186V187ZM91.4259 163.2H109.446V168.98H98.7359V172.38H106.386V177.82H98.7359V181.22H109.786V187H91.4259V163.2ZM113.008 163.2H120.318V181.22H130.348V187H113.008V163.2ZM136.455 177.65L132.375 173.91V166.94L136.455 163.2H151.245V168.98H140.365L139.685 169.66V171.19L140.365 171.87H148.355L152.435 175.61V183.26L148.355 187H132.545V181.22H144.445L145.125 180.54V178.33L144.445 177.65H136.455ZM163.486 168.64L162.806 169.32V180.88L163.486 181.56H168.586L169.266 180.88V169.32L168.586 168.64H163.486ZM159.916 162.86H172.156L176.576 166.94V183.26L172.156 187.34H159.916L155.496 183.26V166.94L159.916 162.86ZM162.296 155.38H168.756L164.846 160.48H160.256L162.296 155.38ZM169.436 155.38H175.896L171.986 160.48H167.396L169.436 155.38ZM206.528 174.42L209.418 177.14V182.75L204.828 187H188.678V163.2H203.808L208.398 167.45V172.72L206.528 174.42ZM201.428 181.22L202.108 180.54V178.84L200.748 177.65H195.988V181.22H201.428ZM201.088 169.66L200.408 168.98H195.988V172.21H200.068L201.088 171.36V169.66ZM212.983 163.2H231.003V168.98H220.293V172.38H227.943V177.82H220.293V181.22H231.343V187H212.983V163.2ZM234.565 163.2H252.755V168.98H241.875V173.06H249.525V178.84H241.875V187H234.565V163.2ZM269.419 187H254.629V181.22H258.369V168.98H254.629V163.2H269.419V168.98H265.679V181.22H269.419V187ZM290.827 187H271.787V181.39L281.987 168.98H272.127V163.2H290.487V168.81L280.287 181.22H290.827V187ZM294.231 163.2H312.251V168.98H301.541V172.38H309.191V177.82H301.541V181.22H312.591V187H294.231V163.2ZM327.033 187H319.723V168.98H314.113V163.2H332.643V168.98H327.033V187ZM335.701 163.2H353.721V168.98H343.011V172.38H350.661V177.82H343.011V181.22H354.061V187H335.701V163.2ZM344.541 155.38H351.511L347.431 160.48H342.161L344.541 155.38ZM360.343 177.65L356.263 173.91V166.94L360.343 163.2H375.133V168.98H364.253L363.573 169.66V171.19L364.253 171.87H372.243L376.323 175.61V183.26L372.243 187H356.433V181.22H368.333L369.013 180.54V178.33L368.333 177.65H360.343ZM379.895 163.2H397.915V168.98H387.205V172.38H394.855V177.82H387.205V181.22H398.255V187H379.895V163.2ZM401.477 187V163.2H417.627L422.047 167.28V182.92L417.627 187H401.477ZM408.787 181.22H414.057L414.737 180.54V169.66L414.057 168.98H408.787V181.22ZM439.913 187L436.003 180.03H433.623V187H426.313V163.2H441.953L446.033 166.94V175.44L442.633 178.5L447.393 187H439.913ZM438.723 169.66L438.043 168.98H433.623V174.25H438.043L438.723 173.57V169.66ZM450.119 163.2H468.139V168.98H457.429V172.38H465.079V177.82H457.429V181.22H468.479V187H450.119V163.2ZM478.671 163.2V173.06L477.481 179.18H472.551L471.361 173.06V163.2H478.671ZM478.331 187H471.701V181.22H478.331V187Z" fill="url(#paint1_linear_1828_6)"/>
<path d="M616.003 121.162C615.292 120.448 614.44 120.102 613.435 120.102H573.061V181H609.637C613.82 181 617 177.393 617 173.189V123.799C617 122.789 616.713 121.876 616.003 121.162Z" fill="url(#paint2_linear_1828_6)"/>
<path d="M560.939 120.102H520.901C518.809 120.102 517 121.697 517 123.799V173.189C517 177.392 520.516 181 524.699 181H560.939V120.102Z" fill="url(#paint3_linear_1828_6)"/>
<path d="M560.939 80.5179H524.756C520.566 80.5179 517.001 83.9312 517.001 88.1408V105.881C517.001 110.091 520.566 113.504 524.756 113.504H560.94L560.939 80.5179Z" fill="url(#paint4_linear_1828_6)"/>
<path d="M609.581 80.5179H573.061V113.504H609.581C613.771 113.504 617 110.091 617 105.881V88.1408C617 83.9307 613.771 80.5179 609.581 80.5179Z" fill="url(#paint5_linear_1828_6)"/>
<path d="M587.321 50.1484C584.635 48.0596 581.954 47 579.351 47C574.148 47 570.064 50.8787 567.177 58.5351C564.29 50.8787 560.207 47 555.004 47C552.402 47 549.72 48.0596 547.034 50.1484C541.923 54.1241 541.38 58.2631 541.824 61.0355C543.488 71.4237 562.184 78.557 565.915 79.882C566.326 80.0282 566.753 80.0997 567.177 80.0997H567.178C567.602 80.0997 568.028 80.0282 568.439 79.882C572.17 78.5575 590.866 71.4232 592.53 61.0355C592.974 58.2631 592.431 54.1246 587.321 50.1484ZM558.632 68.2362C550.505 63.743 549.437 60.662 549.303 59.8252C549.132 58.7544 549.929 57.5237 551.671 56.1682C552.98 55.1502 554.132 54.6123 555.004 54.6123C556.625 54.6123 559.093 57.2096 561.162 64.4996C561.717 66.4545 562.148 68.4255 562.478 70.1946C561.261 69.6217 559.949 68.964 558.632 68.2362ZM585.051 59.8247C584.525 63.1218 578.106 67.269 571.849 70.2307C573.333 62.4281 576.205 54.6123 579.351 54.6123C580.223 54.6123 581.375 55.1502 582.683 56.1682C584.425 57.5232 585.222 58.7534 585.051 59.8247Z" fill="url(#paint6_linear_1828_6)"/>
<defs>
<linearGradient id="paint0_linear_1828_6" x1="257.5" y1="30.5" x2="257.5" y2="115" gradientUnits="userSpaceOnUse">
<stop stop-color="white"/>
<stop offset="0.484275" stop-color="#FBFBFB"/>
<stop offset="0.484375" stop-color="#DCDCDC"/>
<stop offset="0.901042" stop-color="white"/>
</linearGradient>
<linearGradient id="paint1_linear_1828_6" x1="258" y1="164.46" x2="258" y2="185.129" gradientUnits="userSpaceOnUse">
<stop stop-color="white"/>
<stop offset="0.484275" stop-color="#FBFBFB"/>
<stop offset="0.484375" stop-color="#DCDCDC"/>
<stop offset="0.901042" stop-color="white"/>
</linearGradient>
<linearGradient id="paint2_linear_1828_6" x1="607.306" y1="50.6077" x2="607.306" y2="181" gradientUnits="userSpaceOnUse">
<stop offset="0.357421" stop-color="white"/>
<stop offset="0.70328" stop-color="#DCDCDC"/>
<stop offset="0.933981" stop-color="white"/>
</linearGradient>
<linearGradient id="paint3_linear_1828_6" x1="607.306" y1="50.6077" x2="607.306" y2="181" gradientUnits="userSpaceOnUse">
<stop offset="0.357421" stop-color="white"/>
<stop offset="0.70328" stop-color="#DCDCDC"/>
<stop offset="0.933981" stop-color="white"/>
</linearGradient>
<linearGradient id="paint4_linear_1828_6" x1="607.306" y1="50.6077" x2="607.306" y2="181" gradientUnits="userSpaceOnUse">
<stop offset="0.357421" stop-color="white"/>
<stop offset="0.70328" stop-color="#DCDCDC"/>
<stop offset="0.933981" stop-color="white"/>
</linearGradient>
<linearGradient id="paint5_linear_1828_6" x1="607.306" y1="50.6077" x2="607.306" y2="181" gradientUnits="userSpaceOnUse">
<stop offset="0.357421" stop-color="white"/>
<stop offset="0.70328" stop-color="#DCDCDC"/>
<stop offset="0.933981" stop-color="white"/>
</linearGradient>
<linearGradient id="paint6_linear_1828_6" x1="607.306" y1="50.6077" x2="607.306" y2="181" gradientUnits="userSpaceOnUse">
<stop offset="0.357421" stop-color="white"/>
<stop offset="0.70328" stop-color="#DCDCDC"/>
<stop offset="0.933981" stop-color="white"/>
</linearGradient>
</defs>
</svg>
