<svg width="215" height="47" viewBox="0 0 215 47" fill="none" xmlns="http://www.w3.org/2000/svg">
<g clip-path="url(#clip0_1414:10)">
<path d="M124.389 14.1C126.31 6.38459 121.624 0 110.146 0H85.2686L75.9479 37.7348L81.3583 47.0168H99.0558C110.652 47.0168 119.636 41.6093 121.945 32.2093C123.108 27.3914 121.759 24.0222 118.725 22.3376V22.2197C121.602 20.357 123.635 17.4424 124.389 14.1ZM109.219 31.9061C108.747 33.8771 107.416 35.8986 101.904 35.8986H90.6116L92.5836 27.8125H103.826C109.27 27.7957 109.674 29.8677 109.152 31.9061H109.219ZM111.478 14.3527C111.073 15.8688 109.91 17.7219 105.157 17.7219H95.0444L96.7299 11.152H106.843C111.646 11.1183 111.882 12.6681 111.478 14.3527Z" fill="#14A0FF"/>
<path d="M140.047 28.8065H162.7L165.278 17.6882H142.777L144.53 11.1183H166.812L169.391 0H132.816L121.22 47H162.649L165.363 35.8817H138.378L140.047 28.8065Z" fill="#14A0FF"/>
<path d="M172.56 0L169.964 11.1183H183.498L174.616 47H188.824L197.724 11.1183H212.219L215 0H172.56Z" fill="#14A0FF"/>
<path d="M14.8659 47H0.539354L6.74193 21.8996L8.17458 18.1093L4.38225 21.8996L0.168548 26.1616L0 13.6283L14.8659 0H26.4452L14.8659 47Z" fill="white"/>
<path d="M66.5934 27.5262L62.0257 19.7939L84.1898 0H63.5427L55.1153 8.08602L26.5295 34.2814L12.8097 47H32.3444L47.025 33.9108L51.9634 42.3337C53.6489 44.4563 56.0254 47.0337 66.1046 47.0337H77.903L66.6103 27.5093L66.5934 27.5262Z" fill="white"/>
<path d="M53.5309 5.49175V5.39068C52.2663 3.62736 50.5788 2.20973 48.6234 1.26785C46.668 0.325969 44.5072 -0.109983 42.3393 -5.08502e-06H27.0857L38.4627 19.3391L53.5309 5.49175Z" fill="white"/>
</g>
<defs>
<clipPath id="clip0_1414:10">
<rect width="215" height="47" fill="white"/>
</clipPath>
</defs>
</svg>
