<svg width="654" height="204" viewBox="0 0 654 204" fill="none" xmlns="http://www.w3.org/2000/svg">
<path d="M0 24C0 10.7452 10.7452 0 24 0H630C643.255 0 654 10.7452 654 24V122H0V24Z" fill="#DD2225"/>
<path d="M0 180C0 193.255 10.7452 204 24 204H630C643.255 204 654 193.255 654 180V122H0V180Z" fill="#0083D4"/>
<path d="M119.011 57.56V29.4H137.931V91H119.451L102.731 62.84H102.291V91H83.3709V29.4H101.939L118.571 57.56H119.011ZM150.23 29.4H196.87V44.36H169.15V53.16H188.95V67.24H169.15V76.04H197.75V91H150.23V29.4ZM173.11 9.15999H191.15L180.59 22.36H166.95L173.11 9.15999ZM251.85 91H202.57V76.48L228.97 44.36H203.45V29.4H250.97V43.92L224.57 76.04H251.85V91ZM306.42 91H257.14V76.48L283.54 44.36H258.02V29.4H305.54V43.92L279.14 76.04H306.42V91ZM315.23 29.4H361.87V44.36H334.15V53.16H353.95V67.24H334.15V76.04H362.75V91H315.23V29.4ZM406.73 57.56V29.4H425.65V91H407.17L390.45 62.84H390.01V91H371.09V29.4H389.658L406.29 57.56H406.73Z" fill="url(#paint0_linear_1777_710)"/>
<path d="M41.3447 167.25L35.3447 161.75V151.5L41.3447 146H63.0947V154.5H47.0947L46.0947 155.5V157.75L47.0947 158.75H58.8447L64.8447 164.25V175.5L58.8447 181H35.5947V172.5H53.0947L54.0947 171.5V168.25L53.0947 167.25H41.3447ZM93.5967 171.75H80.8467V181H70.0967V146H93.5967L99.5967 151.5V166.25L93.5967 171.75ZM88.8467 155.5L87.8467 154.5H80.8467V163.25H87.8467L88.8467 162.25V155.5ZM116.106 154L115.106 155V172L116.106 173H123.606L124.606 172V155L123.606 154H116.106ZM110.856 145.5H128.856L135.356 151.5V175.5L128.856 181.5H110.856L104.356 175.5V151.5L110.856 145.5ZM161.63 181L155.88 170.75H152.38V181H141.63V146H164.63L170.63 151.5V164L165.63 168.5L172.63 181H161.63ZM159.88 155.5L158.88 154.5H152.38V162.25H158.88L159.88 161.25V155.5ZM193.14 181H182.39V154.5H174.14V146H201.39V154.5H193.14V181ZM215.911 154L214.911 155V172L215.911 173H223.411L224.411 172V155L223.411 154H215.911ZM210.661 145.5H228.661L235.161 151.5V175.5L228.661 181.5H210.661L204.161 175.5V151.5L210.661 145.5ZM257.446 181H246.696V154.5H238.446V146H265.696V154.5H257.446V181ZM291.204 154L290.204 155V172L291.204 173H298.704L299.704 172V155L298.704 154H291.204ZM285.954 145.5H303.954L310.454 151.5V175.5L303.954 181.5H285.954L279.454 175.5V151.5L285.954 145.5ZM336.978 162V146H347.728V181H337.228L327.728 165H327.478V181H316.728V146H327.278L336.728 162H336.978ZM354.716 146H365.466V172.5H380.216V181H354.716V146ZM404.946 181H383.196V172.5H388.696V154.5H383.196V146H404.946V154.5H399.446V172.5H404.946V181ZM430.679 162V146H441.429V181H430.929L421.429 165H421.179V181H410.429V146H420.979L430.429 162H430.679ZM448.417 146H474.917V154.5H459.167V159.5H470.417V167.5H459.167V172.5H475.417V181H448.417V146Z" fill="url(#paint1_linear_1777_710)"/>
<path d="M613.203 96.4074C616.932 99.2039 616.932 104.796 613.203 107.593L529.191 170.589C524.58 174.046 518 170.757 518 164.996L518 39.004C518 33.2426 524.58 29.9541 529.191 33.4113L613.203 96.4074Z" fill="url(#paint2_linear_1777_710)"/>
<defs>
<linearGradient id="paint0_linear_1777_710" x1="254.5" y1="29.1619" x2="254.5" y2="90.5612" gradientUnits="userSpaceOnUse">
<stop stop-color="white"/>
<stop offset="0.484275" stop-color="#FBFBFB"/>
<stop offset="0.484375" stop-color="#DCDCDC"/>
<stop offset="0.901042" stop-color="white"/>
</linearGradient>
<linearGradient id="paint1_linear_1777_710" x1="255" y1="145.727" x2="255" y2="180.986" gradientUnits="userSpaceOnUse">
<stop stop-color="white"/>
<stop offset="0.484275" stop-color="#FBFBFB"/>
<stop offset="0.484375" stop-color="#DCDCDC"/>
<stop offset="0.901042" stop-color="white"/>
</linearGradient>
<linearGradient id="paint2_linear_1777_710" x1="529.562" y1="32.0873" x2="529.562" y2="171.913" gradientUnits="userSpaceOnUse">
<stop offset="0.357421" stop-color="white"/>
<stop offset="0.645701" stop-color="#DCDCDC"/>
<stop offset="0.933981" stop-color="white"/>
</linearGradient>
</defs>
</svg>
