<svg width="654" height="216" viewBox="0 0 654 216" fill="none" xmlns="http://www.w3.org/2000/svg">
<path d="M0 36C0 22.7452 10.7452 12 24 12H630C643.255 12 654 22.7452 654 36V134H0V36Z" fill="#DD2225"/>
<path d="M0 192C0 205.255 10.7452 216 24 216H630C643.255 216 654 205.255 654 192V134H0V192Z" fill="#0083D4"/>
<path d="M113.415 30.3L120.675 79.91H121.28L129.75 30.3H155.765L137.615 115H104.945L98.29 69.02H97.685L91.03 115H58.36L40.21 30.3H66.225L74.695 79.91H75.3L82.56 30.3H113.415ZM207.166 98.06H182.966L177.521 115H150.901L178.126 30.3H212.006L239.231 115H212.611L207.166 98.06ZM195.066 58.735L189.621 77.49H200.511L195.066 58.735ZM280.48 115H254.465V50.87H234.5V30.3H300.445V50.87H280.48V115ZM374.855 94.43V115H325.245L309.515 100.48V44.82L325.245 30.3H374.855V50.87H337.95L335.53 53.29V92.01L337.95 94.43H374.855ZM413.561 82.935V115H387.546V30.3H413.561V62.365H433.526V30.3H459.541V115H433.526V82.935H413.561Z" fill="url(#paint0_linear_1767_89)"/>
<path d="M47.08 179.675L39.52 172.745V159.83L47.08 152.9H74.485V163.61H54.325L53.065 164.87V167.705L54.325 168.965H69.13L76.69 175.895V190.07L69.13 197H39.835V186.29H61.885L63.145 185.03V180.935L61.885 179.675H47.08ZM112.917 185.345H96.8525V197H83.3075V152.9H112.917L120.477 159.83V178.415L112.917 185.345ZM106.932 164.87L105.672 163.61H96.8525V174.635H105.672L106.932 173.375V164.87ZM141.28 162.98L140.02 164.24V185.66L141.28 186.92H150.73L151.99 185.66V164.24L150.73 162.98H141.28ZM134.665 152.27H157.345L165.535 159.83V190.07L157.345 197.63H134.665L126.475 190.07V159.83L134.665 152.27ZM198.639 197L191.394 184.085H186.984V197H173.439V152.9H202.419L209.979 159.83V175.58L203.679 181.25L212.499 197H198.639ZM196.434 164.87L195.174 163.61H186.984V173.375H195.174L196.434 172.115V164.87ZM238.342 197H224.797V163.61H214.402V152.9H248.737V163.61H238.342V197ZM260.074 179.675L252.514 172.745V159.83L260.074 152.9H287.479V163.61H267.319L266.059 164.87V167.705L267.319 168.965H282.124L289.684 175.895V190.07L282.124 197H252.829V186.29H274.879L276.139 185.03V180.935L274.879 179.675H260.074ZM310.821 152.9H324.366V186.29H342.951V197H310.821V152.9ZM374.112 197H346.707V186.29H353.637V163.61H346.707V152.9H374.112V163.61H367.182V186.29H374.112V197ZM407.479 197H390.784L376.609 152.9H390.469L398.974 181.565H399.289L407.794 152.9H421.654L407.479 197ZM426.055 152.9H459.445V163.61H439.6V169.91H453.775V179.99H439.6V186.29H460.075V197H426.055V152.9Z" fill="url(#paint1_linear_1767_89)"/>
<path d="M611.535 108.4C615.268 111.2 615.268 116.8 611.535 119.6L527.45 182.674C522.836 186.136 516.25 182.843 516.25 177.075L516.25 50.9252C516.25 45.1567 522.836 41.864 527.45 45.3256L611.535 108.4Z" fill="url(#paint2_linear_1767_89)"/>
<defs>
<linearGradient id="paint0_linear_1767_89" x1="254" y1="30.5" x2="254" y2="115" gradientUnits="userSpaceOnUse">
<stop stop-color="white"/>
<stop offset="0.484275" stop-color="#FBFBFB"/>
<stop offset="0.484375" stop-color="#DCDCDC"/>
<stop offset="0.901042" stop-color="white"/>
</linearGradient>
<linearGradient id="paint1_linear_1767_89" x1="249.5" y1="152.799" x2="249.5" y2="196.568" gradientUnits="userSpaceOnUse">
<stop stop-color="white"/>
<stop offset="0.484275" stop-color="#FBFBFB"/>
<stop offset="0.484375" stop-color="#DCDCDC"/>
<stop offset="0.901042" stop-color="white"/>
</linearGradient>
<linearGradient id="paint2_linear_1767_89" x1="505.655" y1="46" x2="505.655" y2="186.5" gradientUnits="userSpaceOnUse">
<stop offset="0.357421" stop-color="white"/>
<stop offset="0.645701" stop-color="#DCDCDC"/>
<stop offset="0.933981" stop-color="white"/>
</linearGradient>
</defs>
</svg>
