<svg width="1055" height="304" viewBox="0 0 1055 304" fill="none" xmlns="http://www.w3.org/2000/svg">
<path d="M913.586 4L54 4C24.1766 4 0 28.1766 0 58V250C0 279.823 24.1766 304 54 304H931.166C931.11 304 931.055 304 931 304C848.157 304 781 235.843 781 153C781 76.0475 838.947 12.6292 913.586 4Z" fill="#E43107"/>
<mask id="mask0_1414:67" style="mask-type:alpha" maskUnits="userSpaceOnUse" x="0" y="4" width="932" height="300">
<path d="M913.586 4L54 4C24.1766 4 0 28.1766 0 58V250C0 279.823 24.1766 304 54 304H931.166C931.11 304 931.055 304 931 304C848.157 304 781 235.843 781 153C781 76.0475 838.947 12.6292 913.586 4Z" fill="#E43107"/>
</mask>
<g mask="url(#mask0_1414:67)">
<ellipse cx="458.5" cy="11.5" rx="620.5" ry="102.5" fill="url(#paint0_linear_1414:67)"/>
</g>
<path d="M783.602 181L0 181V250C0 279.823 24.1766 304 54 304H931C857.713 304 796.702 250.66 783.602 181Z" fill="#3156EA"/>
<circle cx="934" cy="154" r="121" fill="#E43107"/>
<mask id="mask1_1414:67" style="mask-type:alpha" maskUnits="userSpaceOnUse" x="813" y="33" width="242" height="242">
<circle cx="934" cy="154" r="121" fill="#E43107"/>
</mask>
<g mask="url(#mask1_1414:67)">
<ellipse cx="1095.5" cy="53.5" rx="382.5" ry="111.5" fill="url(#paint1_linear_1414:67)"/>
</g>
<path d="M981.892 148.775C986.957 151.379 986.957 158.621 981.892 161.225L901.451 202.583C896.792 204.978 891.25 201.596 891.25 196.358L891.25 113.642C891.25 108.404 896.792 105.022 901.451 107.417L981.892 148.775Z" fill="white"/>
<path d="M117.086 253.298C116.89 257.553 115.742 261.318 113.643 264.594C111.543 267.841 108.59 270.361 104.782 272.152C101.003 273.944 96.6777 274.84 91.8066 274.84C83.7721 274.84 77.4453 272.222 72.8262 266.987C68.207 261.752 65.8975 254.362 65.8975 244.815V241.792C65.8975 235.801 66.9333 230.566 69.0049 226.087C71.1045 221.58 74.1139 218.108 78.0332 215.673C81.9525 213.209 86.4876 211.978 91.6387 211.978C99.0573 211.978 105.02 213.937 109.527 217.856C114.035 221.748 116.596 227.123 117.212 233.981H102.515C102.403 230.258 101.465 227.585 99.7012 225.961C97.9375 224.337 95.25 223.525 91.6387 223.525C87.9714 223.525 85.2839 224.897 83.5762 227.641C81.8685 230.384 80.9727 234.765 80.8887 240.784V245.109C80.8887 251.632 81.7005 256.293 83.3242 259.093C84.9759 261.892 87.8034 263.292 91.8066 263.292C95.194 263.292 97.7835 262.494 99.5752 260.898C101.367 259.303 102.319 256.769 102.431 253.298H117.086ZM175.413 274H160.674V224.239H138.712V274H123.973V212.859H175.413V274ZM236.386 244.689C236.386 250.652 235.28 255.929 233.068 260.521C230.857 265.112 227.707 268.653 223.62 271.145C219.561 273.608 214.928 274.84 209.721 274.84C204.514 274.84 199.895 273.65 195.863 271.271C191.832 268.863 188.683 265.434 186.415 260.982C184.175 256.531 183 251.422 182.888 245.655V242.212C182.888 236.221 183.979 230.944 186.163 226.381C188.375 221.79 191.524 218.248 195.611 215.757C199.727 213.265 204.402 212.02 209.637 212.02C214.816 212.02 219.435 213.251 223.494 215.715C227.553 218.178 230.703 221.692 232.942 226.255C235.21 230.79 236.358 235.997 236.386 241.876V244.689ZM221.395 242.128C221.395 236.053 220.373 231.448 218.329 228.312C216.313 225.149 213.416 223.567 209.637 223.567C202.246 223.567 198.341 229.11 197.921 240.196L197.879 244.689C197.879 250.68 198.873 255.285 200.86 258.505C202.848 261.724 205.801 263.334 209.721 263.334C213.444 263.334 216.313 261.752 218.329 258.589C220.345 255.425 221.367 250.876 221.395 244.941V242.128ZM258.726 253.256V274H243.986V212.859H268.384C273.059 212.859 277.188 213.727 280.771 215.463C284.383 217.171 287.168 219.62 289.128 222.812C291.116 225.975 292.109 229.572 292.109 233.604C292.109 239.566 289.968 244.34 285.685 247.923C281.429 251.478 275.578 253.256 268.132 253.256H258.726ZM258.726 241.876H268.384C271.239 241.876 273.409 241.162 274.893 239.734C276.404 238.307 277.16 236.291 277.16 233.688C277.16 230.832 276.39 228.55 274.851 226.843C273.311 225.135 271.211 224.267 268.552 224.239H258.726V241.876ZM348.001 224.239H329.65V274H314.911V224.239H296.896V212.859H348.001V224.239ZM424.931 244.689C424.931 250.652 423.825 255.929 421.613 260.521C419.402 265.112 416.252 268.653 412.165 271.145C408.106 273.608 403.473 274.84 398.266 274.84C393.059 274.84 388.439 273.65 384.408 271.271C380.377 268.863 377.228 265.434 374.96 260.982C372.72 256.531 371.545 251.422 371.433 245.655V242.212C371.433 236.221 372.524 230.944 374.708 226.381C376.92 221.79 380.069 218.248 384.156 215.757C388.271 213.265 392.947 212.02 398.182 212.02C403.361 212.02 407.98 213.251 412.039 215.715C416.098 218.178 419.248 221.692 421.487 226.255C423.755 230.79 424.903 235.997 424.931 241.876V244.689ZM409.939 242.128C409.939 236.053 408.918 231.448 406.874 228.312C404.858 225.149 401.961 223.567 398.182 223.567C390.791 223.567 386.886 229.11 386.466 240.196L386.424 244.689C386.424 250.68 387.418 255.285 389.405 258.505C391.393 261.724 394.346 263.334 398.266 263.334C401.989 263.334 404.858 261.752 406.874 258.589C408.89 255.425 409.911 250.876 409.939 244.941V242.128ZM483.636 274H468.98V248.469H447.271V274H432.531V212.859H447.271V237.131H468.98V212.859H483.636V274ZM545.196 212.859V274H530.457V224.239H516.726L515.718 244.773C515.298 251.856 514.318 257.511 512.778 261.738C511.239 265.965 509.041 269.059 506.186 271.019C503.358 272.95 499.495 273.944 494.596 274H490.648V262.662L492.706 262.452C495.646 262.032 497.773 260.241 499.089 257.077C500.405 253.886 501.258 248.525 501.65 240.994L502.7 212.859H545.196ZM589.876 262.578H569.678L566.15 274H550.403L572.827 212.859H586.685L609.276 274H593.445L589.876 262.578ZM573.205 251.198H586.349L579.756 229.992L573.205 251.198ZM649.631 212.859H664.37V274H649.631V235.451L627.669 274H612.93V212.859H627.669V251.45L649.631 212.859ZM654.292 196.398C654.292 200.234 652.878 203.341 650.051 205.721C647.223 208.1 643.458 209.29 638.755 209.29C634.052 209.29 630.286 208.1 627.459 205.721C624.632 203.341 623.218 200.234 623.218 196.398H632.834C632.834 198.078 633.352 199.394 634.388 200.346C635.451 201.27 636.907 201.731 638.755 201.731C640.603 201.731 642.03 201.284 643.038 200.388C644.074 199.464 644.592 198.134 644.592 196.398H654.292ZM724.503 274H709.848V248.469H688.138V274H673.398V212.859H688.138V237.131H709.848V212.859H724.503V274Z" fill="white"/>
<path d="M163.254 111.244C162.887 119.21 160.738 126.259 156.808 132.391C152.877 138.47 147.348 143.187 140.22 146.541C133.145 149.895 125.048 151.572 115.929 151.572C100.887 151.572 89.043 146.672 80.3955 136.872C71.748 127.071 67.4243 113.235 67.4243 95.3638V89.7036C67.4243 78.4881 69.3634 68.6877 73.2417 60.3022C77.1724 51.8644 82.8063 45.3657 90.1436 40.8062C97.4808 36.1942 105.971 33.8882 115.614 33.8882C129.503 33.8882 140.666 37.5568 149.104 44.894C157.541 52.1789 162.337 62.2414 163.49 75.0815H135.975C135.765 68.1112 134.01 63.1061 130.708 60.0664C127.406 57.0267 122.375 55.5068 115.614 55.5068C108.749 55.5068 103.717 58.0749 100.521 63.2109C97.3236 68.347 95.6465 76.549 95.4893 87.8169V95.9141C95.4893 108.125 97.0091 116.851 100.049 122.092C103.141 127.333 108.434 129.954 115.929 129.954C122.27 129.954 127.118 128.46 130.472 125.473C133.826 122.485 135.608 117.742 135.818 111.244H163.254ZM212.544 35.5391L238.094 115.174L263.564 35.5391H299.884V150H272.212V123.271L274.885 68.5566L247.213 150H228.975L201.224 68.478L203.897 123.271V150H176.304V35.5391H212.544ZM414.423 95.1279C414.423 106.291 412.353 116.17 408.213 124.765C404.073 133.36 398.177 139.99 390.525 144.654C382.926 149.266 374.252 151.572 364.504 151.572C354.756 151.572 346.108 149.345 338.562 144.89C331.015 140.383 325.119 133.963 320.874 125.63C316.681 117.297 314.48 107.732 314.27 96.936V90.4897C314.27 79.2743 316.314 69.3952 320.402 60.8525C324.542 52.2575 330.438 45.6278 338.09 40.9634C345.794 36.299 354.546 33.9668 364.347 33.9668C374.042 33.9668 382.69 36.2728 390.289 40.8848C397.888 45.4967 403.784 52.0741 407.977 60.6167C412.222 69.1069 414.371 78.855 414.423 89.8608V95.1279ZM386.358 90.3325C386.358 78.9598 384.445 70.3385 380.62 64.4688C376.846 58.5465 371.422 55.5854 364.347 55.5854C350.511 55.5854 343.2 65.9624 342.414 86.7163L342.335 95.1279C342.335 106.343 344.195 114.965 347.917 120.992C351.638 127.019 357.167 130.032 364.504 130.032C371.474 130.032 376.846 127.071 380.62 121.149C384.393 115.227 386.306 106.71 386.358 95.5996V90.3325ZM511.747 56.8433H477.393V150H449.799V56.8433H416.074V35.5391H511.747V56.8433ZM551.053 111.165V150H523.46V35.5391H569.134C577.887 35.5391 585.617 37.1637 592.325 40.4131C599.086 43.61 604.301 48.1958 607.969 54.1704C611.69 60.0926 613.551 66.8271 613.551 74.374C613.551 85.5371 609.542 94.4728 601.523 101.181C593.557 107.837 582.603 111.165 568.663 111.165H551.053ZM551.053 89.8608H569.134C574.48 89.8608 578.542 88.5244 581.319 85.8516C584.149 83.1787 585.564 79.4053 585.564 74.5312C585.564 69.1855 584.123 64.9142 581.241 61.7173C578.358 58.5203 574.428 56.8957 569.449 56.8433H551.053V89.8608ZM695.466 35.5391H723.059V150H695.466V77.833L654.351 150H626.758V35.5391H654.351V107.785L695.466 35.5391Z" fill="white"/>
<defs>
<linearGradient id="paint0_linear_1414:67" x1="458.5" y1="-91" x2="458.5" y2="114" gradientUnits="userSpaceOnUse">
<stop offset="0.380208" stop-color="#DE3209"/>
<stop offset="1" stop-color="#F05430"/>
</linearGradient>
<linearGradient id="paint1_linear_1414:67" x1="1095.5" y1="-58" x2="1095.5" y2="165" gradientUnits="userSpaceOnUse">
<stop offset="0.130208" stop-color="#DE3209"/>
<stop offset="1" stop-color="#EF5835"/>
</linearGradient>
</defs>
</svg>
