<svg width="1055" height="304" viewBox="0 0 1055 304" fill="none" xmlns="http://www.w3.org/2000/svg">
<path d="M913.586 4L54 4C24.1766 4 0 28.1766 0 58V250C0 279.823 24.1766 304 54 304H931.166C931.11 304 931.055 304 931 304C848.157 304 781 235.843 781 153C781 76.0475 838.947 12.6292 913.586 4Z" fill="#E43107"/>
<mask id="mask0_1478:17" style="mask-type:alpha" maskUnits="userSpaceOnUse" x="0" y="4" width="932" height="300">
<path d="M913.586 4L54 4C24.1766 4 0 28.1766 0 58V250C0 279.823 24.1766 304 54 304H931.166C931.11 304 931.055 304 931 304C848.157 304 781 235.843 781 153C781 76.0475 838.947 12.6292 913.586 4Z" fill="#E43107"/>
</mask>
<g mask="url(#mask0_1478:17)">
<ellipse cx="458.5" cy="11.5" rx="620.5" ry="102.5" fill="url(#paint0_linear_1478:17)"/>
</g>
<path d="M783.602 181L0 181V250C0 279.823 24.1766 304 54 304H931C857.713 304 796.702 250.66 783.602 181Z" fill="#3156EA"/>
<circle cx="934" cy="154" r="121" fill="#E43107"/>
<mask id="mask1_1478:17" style="mask-type:alpha" maskUnits="userSpaceOnUse" x="813" y="33" width="242" height="242">
<circle cx="934" cy="154" r="121" fill="#E43107"/>
</mask>
<g mask="url(#mask1_1478:17)">
<ellipse cx="1095.5" cy="53.5" rx="382.5" ry="111.5" fill="url(#paint1_linear_1478:17)"/>
</g>
<path d="M981.892 148.775C986.957 151.379 986.957 158.621 981.892 161.225L901.451 202.583C896.792 204.978 891.25 201.596 891.25 196.358L891.25 113.642C891.25 108.404 896.792 105.022 901.451 107.417L981.892 148.775Z" fill="white"/>
<path d="M162.155 257.749C162.155 255.593 161.385 253.914 159.846 252.71C158.334 251.506 155.66 250.26 151.825 248.973C147.99 247.685 144.854 246.439 142.419 245.235C134.496 241.344 130.535 235.997 130.535 229.194C130.535 225.807 131.515 222.826 133.475 220.25C135.462 217.646 138.262 215.631 141.873 214.203C145.484 212.747 149.544 212.02 154.051 212.02C158.446 212.02 162.379 212.803 165.851 214.371C169.35 215.939 172.065 218.178 173.997 221.09C175.929 223.973 176.895 227.277 176.895 231H162.197C162.197 228.508 161.427 226.577 159.888 225.205C158.376 223.833 156.318 223.147 153.715 223.147C151.083 223.147 148.998 223.735 147.458 224.911C145.946 226.059 145.19 227.529 145.19 229.32C145.19 230.888 146.03 232.316 147.71 233.604C149.39 234.863 152.343 236.179 156.57 237.551C160.798 238.895 164.269 240.35 166.984 241.918C173.591 245.725 176.895 250.974 176.895 257.665C176.895 263.012 174.879 267.211 170.848 270.263C166.816 273.314 161.287 274.84 154.261 274.84C149.306 274.84 144.812 273.958 140.781 272.194C136.778 270.403 133.755 267.967 131.711 264.888C129.695 261.78 128.688 258.211 128.688 254.18H143.469C143.469 257.455 144.309 259.877 145.988 261.444C147.696 262.984 150.453 263.754 154.261 263.754C156.696 263.754 158.614 263.236 160.014 262.2C161.441 261.136 162.155 259.653 162.155 257.749ZM199.192 253.256V274H184.453V212.859H208.851C213.526 212.859 217.655 213.727 221.238 215.463C224.85 217.171 227.635 219.62 229.595 222.812C231.582 225.975 232.576 229.572 232.576 233.604C232.576 239.566 230.435 244.34 226.151 247.923C221.896 251.478 216.045 253.256 208.599 253.256H199.192ZM199.192 241.876H208.851C211.706 241.876 213.876 241.162 215.359 239.734C216.871 238.307 217.627 236.291 217.627 233.688C217.627 230.832 216.857 228.55 215.317 226.843C213.778 225.135 211.678 224.267 209.019 224.239H199.192V241.876ZM292.247 244.689C292.247 250.652 291.141 255.929 288.93 260.521C286.718 265.112 283.569 268.653 279.481 271.145C275.422 273.608 270.789 274.84 265.582 274.84C260.375 274.84 255.756 273.65 251.725 271.271C247.693 268.863 244.544 265.434 242.276 260.982C240.037 256.531 238.861 251.422 238.749 245.655V242.212C238.749 236.221 239.841 230.944 242.024 226.381C244.236 221.79 247.385 218.248 251.473 215.757C255.588 213.265 260.263 212.02 265.498 212.02C270.677 212.02 275.296 213.251 279.355 215.715C283.415 218.178 286.564 221.692 288.804 226.255C291.071 230.79 292.219 235.997 292.247 241.876V244.689ZM277.256 242.128C277.256 236.053 276.234 231.448 274.19 228.312C272.175 225.149 269.277 223.567 265.498 223.567C258.107 223.567 254.202 229.11 253.782 240.196L253.74 244.689C253.74 250.68 254.734 255.285 256.722 258.505C258.709 261.724 261.663 263.334 265.582 263.334C269.305 263.334 272.175 261.752 274.19 258.589C276.206 255.425 277.228 250.876 277.256 244.941V242.128ZM322.565 252.416H314.587V274H299.848V212.859H323.909C331.16 212.859 336.829 214.469 340.916 217.688C345.003 220.908 347.047 225.457 347.047 231.336C347.047 235.591 346.179 239.118 344.443 241.918C342.736 244.717 340.048 246.985 336.381 248.721L349.146 273.37V274H333.357L322.565 252.416ZM314.587 241.036H323.909C326.709 241.036 328.808 240.308 330.208 238.853C331.636 237.369 332.35 235.311 332.35 232.68C332.35 230.048 331.636 227.991 330.208 226.507C328.78 224.995 326.681 224.239 323.909 224.239H314.587V241.036ZM401.847 224.239H383.496V274H368.757V224.239H350.742V212.859H401.847V224.239ZM438.968 257.749C438.968 255.593 438.198 253.914 436.658 252.71C435.146 251.506 432.473 250.26 428.638 248.973C424.802 247.685 421.667 246.439 419.231 245.235C411.309 241.344 407.348 235.997 407.348 229.194C407.348 225.807 408.327 222.826 410.287 220.25C412.275 217.646 415.074 215.631 418.686 214.203C422.297 212.747 426.356 212.02 430.863 212.02C435.258 212.02 439.192 212.803 442.663 214.371C446.162 215.939 448.878 218.178 450.81 221.09C452.741 223.973 453.707 227.277 453.707 231H439.01C439.01 228.508 438.24 226.577 436.7 225.205C435.188 223.833 433.131 223.147 430.527 223.147C427.896 223.147 425.81 223.735 424.271 224.911C422.759 226.059 422.003 227.529 422.003 229.32C422.003 230.888 422.843 232.316 424.522 233.604C426.202 234.863 429.156 236.179 433.383 237.551C437.61 238.895 441.081 240.35 443.797 241.918C450.404 245.725 453.707 250.974 453.707 257.665C453.707 263.012 451.691 267.211 447.66 270.263C443.629 273.314 438.1 274.84 431.073 274.84C426.118 274.84 421.625 273.958 417.594 272.194C413.59 270.403 410.567 267.967 408.523 264.888C406.508 261.78 405.5 258.211 405.5 254.18H420.281C420.281 257.455 421.121 259.877 422.801 261.444C424.508 262.984 427.266 263.754 431.073 263.754C433.509 263.754 435.426 263.236 436.826 262.2C438.254 261.136 438.968 259.653 438.968 257.749ZM497.421 262.662H523.078V274H482.682V212.859H497.421V262.662ZM544.998 274H530.301V212.859H544.998V274ZM578.97 257.371L591.147 212.859H607.608L587.032 274H570.907L550.499 212.859H566.834L578.97 257.371ZM650.021 248.091H626.841V262.662H654.22V274H612.102V212.859H654.304V224.239H626.841V237.131H650.021V248.091Z" fill="white"/>
<path d="M223.323 107.313L236.452 35.5391H263.809L239.518 150H210.902L195.573 84.751L180.558 150H152.021L127.651 35.5391H155.087L168.215 107.313L183.938 35.5391H207.365L223.323 107.313ZM336.133 128.617H298.32L291.717 150H262.237L304.216 35.5391H330.159L372.453 150H342.815L336.133 128.617ZM304.924 107.313H329.53L317.188 67.6133L304.924 107.313ZM461.286 56.8433H426.932V150H399.338V56.8433H365.613V35.5391H461.286V56.8433ZM563.404 111.244C563.037 119.21 560.889 126.259 556.958 132.391C553.027 138.47 547.498 143.187 540.371 146.541C533.295 149.895 525.198 151.572 516.079 151.572C501.038 151.572 489.193 146.672 480.546 136.872C471.898 127.071 467.575 113.235 467.575 95.3638V89.7036C467.575 78.4881 469.514 68.6877 473.392 60.3022C477.323 51.8644 482.957 45.3657 490.294 40.8062C497.631 36.1942 506.121 33.8882 515.765 33.8882C529.653 33.8882 540.816 37.5568 549.254 44.894C557.692 52.1789 562.487 62.2414 563.64 75.0815H536.125C535.916 68.1112 534.16 63.1061 530.858 60.0664C527.557 57.0267 522.525 55.5068 515.765 55.5068C508.899 55.5068 503.868 58.0749 500.671 63.2109C497.474 68.347 495.797 76.549 495.64 87.8169V95.9141C495.64 108.125 497.16 116.851 500.199 122.092C503.291 127.333 508.585 129.954 516.079 129.954C522.421 129.954 527.268 128.46 530.623 125.473C533.977 122.485 535.759 117.742 535.968 111.244H563.404ZM672.126 150H644.69V102.203H604.047V150H576.454V35.5391H604.047V80.9775H644.69V35.5391H672.126V150Z" fill="white"/>
<defs>
<linearGradient id="paint0_linear_1478:17" x1="458.5" y1="-91" x2="458.5" y2="114" gradientUnits="userSpaceOnUse">
<stop offset="0.380208" stop-color="#DE3209"/>
<stop offset="1" stop-color="#F05430"/>
</linearGradient>
<linearGradient id="paint1_linear_1478:17" x1="1095.5" y1="-58" x2="1095.5" y2="165" gradientUnits="userSpaceOnUse">
<stop offset="0.130208" stop-color="#DE3209"/>
<stop offset="1" stop-color="#EF5835"/>
</linearGradient>
</defs>
</svg>
