<svg width="654" height="204" viewBox="0 0 654 204" fill="none" xmlns="http://www.w3.org/2000/svg">
<path d="M0 24C0 10.7452 10.7452 0 24 0H630C643.255 0 654 10.7452 654 24V122H0V24Z" fill="#DD2225"/>
<path d="M0 180C0 193.255 10.7452 204 24 204H630C643.255 204 654 193.255 654 180V122H0V180Z" fill="#0083D4"/>
<path d="M50.7025 65.625L40.5025 56.275V38.85L50.7025 29.5H87.6775V43.95H60.4775L58.7775 45.65V49.475L60.4775 51.175H80.4525L90.6525 60.525V79.65L80.4525 89H40.9275V74.55H70.6775L72.3775 72.85V67.325L70.6775 65.625H50.7025ZM99.5809 29.5H117.856V74.55H142.931V89H99.5809V29.5ZM150.548 29.5H195.598V43.95H168.823V52.45H187.948V66.05H168.823V74.55H196.448V89H150.548V29.5ZM204.503 89V29.5H244.878L255.928 39.7V78.8L244.878 89H204.503ZM222.778 74.55H235.953L237.653 72.85V45.65L235.953 43.95H222.778V74.55ZM299.318 73.7V29.5H317.593V79.65L306.543 89.85H277.643L266.593 79.65V29.5H284.868V73.7L286.568 75.4H297.618L299.318 73.7ZM343.982 72.85V29.5H362.257V78.8L351.207 89H323.582V74.55H342.282L343.982 72.85ZM402.221 89H383.946V43.95H369.921V29.5H416.246V43.95H402.221V89ZM423.892 29.5H468.942V43.95H442.167V52.45H461.292V66.05H442.167V74.55H469.792V89H423.892V29.5Z" fill="url(#paint0_linear_1777_1173)"/>
<path d="M40.1486 165.75L36.5486 162.45V156.3L40.1486 153H53.1986V158.1H43.5986L42.9986 158.7V160.05L43.5986 160.65H50.6486L54.2486 163.95V170.7L50.6486 174H36.6986V168.9H47.1986L47.7986 168.3V166.35L47.1986 165.75H40.1486ZM47.8886 150.6H42.9386L39.7886 146.1H44.5886L45.3386 147.3H45.4886L46.2386 146.1H51.0386L47.8886 150.6ZM71.4998 168.45H63.8498V174H57.3998V153H71.4998L75.0998 156.3V165.15L71.4998 168.45ZM68.6498 158.7L68.0498 158.1H63.8498V163.35H68.0498L68.6498 162.75V158.7ZM85.0057 157.8L84.4057 158.4V168.6L85.0057 169.2H89.5057L90.1057 168.6V158.4L89.5057 157.8H85.0057ZM81.8557 152.7H92.6557L96.5557 156.3V170.7L92.6557 174.3H81.8557L77.9557 170.7V156.3L81.8557 152.7ZM112.32 174L108.87 167.85H106.77V174H100.32V153H114.12L117.72 156.3V163.8L114.72 166.5L118.92 174H112.32ZM111.27 158.7L110.67 158.1H106.77V162.75H110.67L111.27 162.15V158.7ZM131.226 174H124.776V158.1H119.826V153H136.176V158.1H131.226V174ZM144.888 157.8L144.288 158.4V168.6L144.888 169.2H149.388L149.988 168.6V158.4L149.388 157.8H144.888ZM141.738 152.7H152.538L156.438 156.3V170.7L152.538 174.3H141.738L137.838 170.7V156.3L141.738 152.7ZM172.51 174H164.56L157.81 153H164.41L168.46 166.65H168.61L172.66 153H179.26L172.51 174ZM181.355 153H197.255V158.1H187.805V161.1H194.555V165.9H187.805V168.9H197.555V174H181.355V153ZM189.155 146.1H195.305L191.705 150.6H187.055L189.155 146.1ZM221.412 168.45H213.762V174H207.312V153H221.412L225.012 156.3V165.15L221.412 168.45ZM218.562 158.7L217.962 158.1H213.762V163.35H217.962L218.562 162.75V158.7ZM240.318 174L236.868 167.85H234.768V174H228.318V153H242.118L245.718 156.3V163.8L242.718 166.5L246.918 174H240.318ZM239.268 158.7L238.668 158.1H234.768V162.75H238.668L239.268 162.15V158.7ZM249.324 153H265.224V158.1H255.774V161.1H262.524V165.9H255.774V168.9H265.524V174H249.324V153ZM280.517 162.6V153H286.967V174H280.667L274.967 164.4H274.817V174H268.367V153H274.697L280.367 162.6H280.517ZM297.76 157.8L297.16 158.4V168.6L297.76 169.2H302.26L302.86 168.6V158.4L302.26 157.8H297.76ZM294.61 152.7H305.41L309.31 156.3V170.7L305.41 174.3H294.61L290.71 170.7V156.3L294.61 152.7ZM315.774 165.75L312.174 162.45V156.3L315.774 153H328.824V158.1H319.224L318.624 158.7V160.05L319.224 160.65H326.274L329.874 163.95V170.7L326.274 174H312.324V168.9H322.824L323.424 168.3V166.35L322.824 165.75H315.774ZM343.239 174H336.789V167.85L330.039 153H336.639L339.939 160.8H340.089L343.389 153H349.989L343.239 167.85V174ZM364.381 157.8L363.781 158.4V168.6L364.381 169.2H368.881L369.481 168.6V158.4L368.881 157.8H364.381ZM361.231 152.7H372.031L375.931 156.3V170.7L372.031 174.3H361.231L357.331 170.7V156.3L361.231 152.7ZM391.845 162.6V153H398.295V174H391.995L386.295 164.4H386.145V174H379.695V153H386.025L391.695 162.6H391.845ZM402.488 153H408.938V168.9H417.788V174H402.488V153ZM432.626 174H419.576V168.9H422.876V158.1H419.576V153H432.626V158.1H429.326V168.9H432.626V174ZM448.065 162.6V153H454.515V174H448.215L442.515 164.4H442.365V174H435.915V153H442.245L447.915 162.6H448.065ZM458.708 153H474.608V158.1H465.158V161.1H471.908V165.9H465.158V168.9H474.908V174H458.708V153Z" fill="url(#paint1_linear_1777_1173)"/>
<path d="M611.203 96.4074C614.932 99.2039 614.932 104.796 611.203 107.593L527.191 170.589C522.58 174.046 516 170.757 516 164.996L516 39.004C516 33.2426 522.58 29.9541 527.191 33.4113L611.203 96.4074Z" fill="url(#paint2_linear_1777_1173)"/>
<defs>
<linearGradient id="paint0_linear_1777_1173" x1="254.5" y1="29.5036" x2="254.5" y2="89.0791" gradientUnits="userSpaceOnUse">
<stop stop-color="white"/>
<stop offset="0.484275" stop-color="#FBFBFB"/>
<stop offset="0.484375" stop-color="#DCDCDC"/>
<stop offset="0.901042" stop-color="white"/>
</linearGradient>
<linearGradient id="paint1_linear_1777_1173" x1="255.5" y1="152.68" x2="255.5" y2="173.957" gradientUnits="userSpaceOnUse">
<stop stop-color="white"/>
<stop offset="0.484275" stop-color="#FBFBFB"/>
<stop offset="0.484375" stop-color="#DCDCDC"/>
<stop offset="0.901042" stop-color="white"/>
</linearGradient>
<linearGradient id="paint2_linear_1777_1173" x1="527.562" y1="32.0873" x2="527.562" y2="171.913" gradientUnits="userSpaceOnUse">
<stop offset="0.357421" stop-color="white"/>
<stop offset="0.645701" stop-color="#DCDCDC"/>
<stop offset="0.933981" stop-color="white"/>
</linearGradient>
</defs>
</svg>
