<svg width="654" height="204" viewBox="0 0 654 204" fill="none" xmlns="http://www.w3.org/2000/svg">
<path d="M0 24C0 10.7452 10.7452 0 24 0H630C643.255 0 654 10.7452 654 24V122H0V24Z" fill="#DD2225"/>
<path d="M0 180C0 193.255 10.7452 204 24 204H630C643.255 204 654 193.255 654 180V122H0V180Z" fill="#0083D4"/>
<path d="M67.3313 73.88V30.2H85.3913V79.76L74.4713 89.84H45.9113L34.9913 79.76V30.2H53.0513V73.88L54.7313 75.56H65.6513L67.3313 73.88ZM130.771 89L121.111 71.78H115.231V89H97.171V30.2H135.811L145.891 39.44V60.44L137.491 68L149.251 89H130.771ZM127.831 46.16L126.151 44.48H115.231V57.5H126.151L127.831 55.82V46.16ZM191.687 77.24H182.027L174.467 62.54H174.047V89H155.987V30.2H174.047L186.647 54.14H187.067L199.667 30.2H217.727V89H199.667V62.54H199.247L191.687 77.24ZM262.667 77.24H245.867L242.087 89H223.607L242.507 30.2H266.027L284.927 89H266.447L262.667 77.24ZM254.267 49.94L250.487 62.96H258.047L254.267 49.94ZM267.707 10.88V17.6L260.987 23.48H247.547L240.827 17.6V10.88H251.747V12.98L253.007 14.24H255.527L256.787 12.98V10.88H267.707ZM324.447 89L314.787 71.78H308.907V89H290.847V30.2H329.487L339.567 39.44V60.44L331.167 68L342.927 89H324.447ZM321.507 46.16L319.827 44.48H308.907V57.5H319.827L321.507 55.82V46.16ZM383.683 89H347.143V74.72H356.383V44.48H347.143V30.2H383.683V44.48H374.443V74.72H383.683V89ZM417.674 89H404.99V39.608H388.694V29.024H433.97V39.608H417.674V89ZM418.43 94.964C417.87 96.196 417.226 97.484 416.498 98.828C415.826 100.228 415.07 101.656 414.23 103.112C413.446 104.568 412.578 106.052 411.626 107.564H404.318V106.472C404.654 105.352 404.99 104.064 405.326 102.608C405.662 101.152 405.97 99.668 406.25 98.156C406.53 96.644 406.726 95.3 406.838 94.124H418.43V94.964ZM475.558 89H439.018V74.72H448.258V44.48H439.018V30.2H475.558V44.48H466.318V74.72H475.558V89Z" fill="url(#paint0_linear_1777_595)"/>
<path d="M37.7324 167.075L32.0924 161.905V152.27L37.7324 147.1H58.1774V155.09H43.1374L42.1974 156.03V158.145L43.1374 159.085H54.1824L59.8224 164.255V174.83L54.1824 180H32.3274V172.01H48.7774L49.7174 171.07V168.015L48.7774 167.075H37.7324ZM86.8492 171.305H74.8642V180H64.7592V147.1H86.8492L92.4892 152.27V166.135L86.8492 171.305ZM82.3842 156.03L81.4442 155.09H74.8642V163.315H81.4442L82.3842 162.375V156.03ZM108.008 154.62L107.068 155.56V171.54L108.008 172.48H115.058L115.998 171.54V155.56L115.058 154.62H108.008ZM103.073 146.63H119.993L126.103 152.27V174.83L119.993 180.47H103.073L96.9634 174.83V152.27L103.073 146.63ZM150.8 180L145.395 170.365H142.105V180H132V147.1H153.62L159.26 152.27V164.02L154.56 168.25L161.14 180H150.8ZM149.155 156.03L148.215 155.09H142.105V162.375H148.215L149.155 161.435V156.03ZM180.42 180H170.315V155.09H162.56V147.1H188.175V155.09H180.42V180ZM210.498 171.54V147.1H220.603V174.83L214.493 180.47H198.513L192.403 174.83V147.1H202.508V171.54L203.448 172.48H209.558L210.498 171.54ZM245.994 180L240.589 170.365H237.299V180H227.194V147.1H248.814L254.454 152.27V164.02L249.754 168.25L256.334 180H245.994ZM244.349 156.03L243.409 155.09H237.299V162.375H243.409L244.349 161.435V156.03ZM279.138 180H258.693V172.01H263.863V155.09H258.693V147.1H279.138V155.09H273.968V172.01H279.138V180ZM305.463 154.62L304.523 155.56V171.54L305.463 172.48H312.513L313.453 171.54V155.56L312.513 154.62H305.463ZM300.528 146.63H317.448L323.558 152.27V174.83L317.448 180.47H300.528L294.418 174.83V152.27L300.528 146.63ZM348.491 162.14V147.1H358.596V180H348.726L339.796 164.96H339.561V180H329.456V147.1H339.373L348.256 162.14H348.491ZM365.165 147.1H375.27V172.01H389.135V180H365.165V147.1ZM412.381 180H391.936V172.01H397.106V155.09H391.936V147.1H412.381V155.09H407.211V172.01H412.381V180ZM436.57 162.14V147.1H446.675V180H436.805L427.875 164.96H427.64V180H417.535V147.1H427.452L436.335 162.14H436.57ZM453.244 147.1H478.154V155.09H463.349V159.79H473.924V167.31H463.349V172.01H478.624V180H453.244V147.1Z" fill="url(#paint1_linear_1777_595)"/>
<path d="M614.203 96.4074C617.932 99.2039 617.932 104.796 614.203 107.593L530.191 170.589C525.58 174.046 519 170.757 519 164.996L519 39.004C519 33.2426 525.58 29.9541 530.191 33.4113L614.203 96.4074Z" fill="url(#paint2_linear_1777_595)"/>
<defs>
<linearGradient id="paint0_linear_1777_595" x1="254" y1="30.2842" x2="254" y2="89.2518" gradientUnits="userSpaceOnUse">
<stop stop-color="white"/>
<stop offset="0.484275" stop-color="#FBFBFB"/>
<stop offset="0.484375" stop-color="#DCDCDC"/>
<stop offset="0.901042" stop-color="white"/>
</linearGradient>
<linearGradient id="paint1_linear_1777_595" x1="255" y1="146.849" x2="255" y2="179.676" gradientUnits="userSpaceOnUse">
<stop stop-color="white"/>
<stop offset="0.484275" stop-color="#FBFBFB"/>
<stop offset="0.484375" stop-color="#DCDCDC"/>
<stop offset="0.901042" stop-color="white"/>
</linearGradient>
<linearGradient id="paint2_linear_1777_595" x1="530.562" y1="32.0873" x2="530.562" y2="171.913" gradientUnits="userSpaceOnUse">
<stop offset="0.357421" stop-color="white"/>
<stop offset="0.645701" stop-color="#DCDCDC"/>
<stop offset="0.933981" stop-color="white"/>
</linearGradient>
</defs>
</svg>
