<svg width="514" height="160" viewBox="0 0 514 160" fill="none" xmlns="http://www.w3.org/2000/svg">
<path d="M0 18.6885C0 8.36714 8.44498 0 18.8624 0H495.138C505.555 0 514 8.36714 514 18.6885V95H0V18.6885Z" fill="#DD2225"/>
<path d="M0 140.976C0 151.482 8.44498 160 18.8624 160H495.138C505.555 160 514 151.482 514 140.976V95H0V140.976Z" fill="#0083D4"/>
<path d="M87.61 14L93.3233 52.6571H93.7994L100.465 14H120.938L106.655 80H80.9443L75.7071 44.1714H75.231L69.9937 80H44.2835L30 14H50.473L57.1386 52.6571H57.6147L63.3281 14H87.61Z" fill="url(#paint0_linear_0_30)"/>
<path d="M161.389 66.8H142.345L138.06 80H117.111L138.536 14H165.198L186.623 80H165.674L161.389 66.8ZM151.867 36.1571L147.582 50.7714H156.152L151.867 36.1571Z" fill="url(#paint1_linear_0_30)"/>
<path d="M219.085 80H198.612V30.0286H182.9V14H234.797V30.0286H219.085V80Z" fill="url(#paint2_linear_0_30)"/>
<path d="M293.355 63.9714V80H254.314L241.935 68.6857V25.3143L254.314 14H293.355V30.0286H264.312L262.408 31.9143V62.0857L264.312 63.9714H293.355Z" fill="url(#paint3_linear_0_30)"/>
<path d="M323.815 55.0143V80H303.342V14H323.815V38.9857H339.527V14H360V80H339.527V55.0143H323.815Z" fill="url(#paint4_linear_0_30)"/>
<path d="M34.9861 131.75L29 126.25V116L34.9861 110.5H56.6857V119H40.7228L39.7251 120V122.25L40.7228 123.25H52.4455L58.4316 128.75V140L52.4455 145.5H29.2494V137H46.7089L47.7066 136V132.75L46.7089 131.75H34.9861Z" fill="url(#paint5_linear_0_30)"/>
<path d="M87.117 136.25H74.3965V145.5H63.6714V110.5H87.117L93.1031 116V130.75L87.117 136.25ZM82.378 120L81.3803 119H74.3965V127.75H81.3803L82.378 126.75V120Z" fill="url(#paint6_linear_0_30)"/>
<path d="M109.575 118.5L108.577 119.5V136.5L109.575 137.5H117.057L118.055 136.5V119.5L117.057 118.5H109.575ZM104.337 110H122.295L128.78 116V140L122.295 146H104.337L97.8518 140V116L104.337 110Z" fill="url(#paint7_linear_0_30)"/>
<path d="M154.993 145.5L149.256 135.25H145.764V145.5H135.039V110.5H157.986L163.972 116V128.5L158.983 133L165.967 145.5H154.993ZM153.247 120L152.249 119H145.764V126.75H152.249L153.247 125.75V120Z" fill="url(#paint8_linear_0_30)"/>
<path d="M186.429 145.5H175.704V119H167.473V110.5H194.66V119H186.429V145.5Z" fill="url(#paint9_linear_0_30)"/>
<path d="M203.637 131.75L197.651 126.25V116L203.637 110.5H225.337V119H209.374L208.376 120V122.25L209.374 123.25H221.097L227.083 128.75V140L221.097 145.5H197.901V137H215.36L216.358 136V132.75L215.36 131.75H203.637Z" fill="url(#paint10_linear_0_30)"/>
<path d="M243.819 110.5H254.544V137H269.26V145.5H243.819V110.5Z" fill="url(#paint11_linear_0_30)"/>
<path d="M293.933 145.5H272.234V137H277.721V119H272.234V110.5H293.933V119H288.446V137H293.933V145.5Z" fill="url(#paint12_linear_0_30)"/>
<path d="M320.355 145.5H307.135L295.911 110.5H306.886L313.62 133.25H313.87L320.604 110.5H331.578L320.355 145.5Z" fill="url(#paint13_linear_0_30)"/>
<path d="M335.063 110.5H361.501V119H345.788V124H357.012V132H345.788V137H362V145.5H335.063V110.5Z" fill="url(#paint14_linear_0_30)"/>
<path d="M482.745 75.6058C485.752 77.803 485.752 82.197 482.745 84.3942L415.021 133.891C411.304 136.608 406 134.024 406 129.497L406 30.5031C406 25.9763 411.304 23.3925 415.021 26.1089L482.745 75.6058Z" fill="url(#paint15_linear_0_30)"/>
<defs>
<linearGradient id="paint0_linear_0_30" x1="195" y1="28.482" x2="195" y2="68.6043" gradientUnits="userSpaceOnUse">
<stop stop-color="white"/>
<stop offset="0.484275" stop-color="#FBFBFB"/>
<stop offset="0.484375" stop-color="#DCDCDC"/>
<stop offset="0.901042" stop-color="white"/>
</linearGradient>
<linearGradient id="paint1_linear_0_30" x1="195" y1="28.482" x2="195" y2="68.6043" gradientUnits="userSpaceOnUse">
<stop stop-color="white"/>
<stop offset="0.484275" stop-color="#FBFBFB"/>
<stop offset="0.484375" stop-color="#DCDCDC"/>
<stop offset="0.901042" stop-color="white"/>
</linearGradient>
<linearGradient id="paint2_linear_0_30" x1="195" y1="28.482" x2="195" y2="68.6043" gradientUnits="userSpaceOnUse">
<stop stop-color="white"/>
<stop offset="0.484275" stop-color="#FBFBFB"/>
<stop offset="0.484375" stop-color="#DCDCDC"/>
<stop offset="0.901042" stop-color="white"/>
</linearGradient>
<linearGradient id="paint3_linear_0_30" x1="195" y1="28.482" x2="195" y2="68.6043" gradientUnits="userSpaceOnUse">
<stop stop-color="white"/>
<stop offset="0.484275" stop-color="#FBFBFB"/>
<stop offset="0.484375" stop-color="#DCDCDC"/>
<stop offset="0.901042" stop-color="white"/>
</linearGradient>
<linearGradient id="paint4_linear_0_30" x1="195" y1="28.482" x2="195" y2="68.6043" gradientUnits="userSpaceOnUse">
<stop stop-color="white"/>
<stop offset="0.484275" stop-color="#FBFBFB"/>
<stop offset="0.484375" stop-color="#DCDCDC"/>
<stop offset="0.901042" stop-color="white"/>
</linearGradient>
<linearGradient id="paint5_linear_0_30" x1="195.5" y1="117.899" x2="195.5" y2="139.784" gradientUnits="userSpaceOnUse">
<stop stop-color="white"/>
<stop offset="0.484275" stop-color="#FBFBFB"/>
<stop offset="0.484375" stop-color="#DCDCDC"/>
<stop offset="0.901042" stop-color="white"/>
</linearGradient>
<linearGradient id="paint6_linear_0_30" x1="195.5" y1="117.899" x2="195.5" y2="139.784" gradientUnits="userSpaceOnUse">
<stop stop-color="white"/>
<stop offset="0.484275" stop-color="#FBFBFB"/>
<stop offset="0.484375" stop-color="#DCDCDC"/>
<stop offset="0.901042" stop-color="white"/>
</linearGradient>
<linearGradient id="paint7_linear_0_30" x1="195.5" y1="117.899" x2="195.5" y2="139.784" gradientUnits="userSpaceOnUse">
<stop stop-color="white"/>
<stop offset="0.484275" stop-color="#FBFBFB"/>
<stop offset="0.484375" stop-color="#DCDCDC"/>
<stop offset="0.901042" stop-color="white"/>
</linearGradient>
<linearGradient id="paint8_linear_0_30" x1="195.5" y1="117.899" x2="195.5" y2="139.784" gradientUnits="userSpaceOnUse">
<stop stop-color="white"/>
<stop offset="0.484275" stop-color="#FBFBFB"/>
<stop offset="0.484375" stop-color="#DCDCDC"/>
<stop offset="0.901042" stop-color="white"/>
</linearGradient>
<linearGradient id="paint9_linear_0_30" x1="195.5" y1="117.899" x2="195.5" y2="139.784" gradientUnits="userSpaceOnUse">
<stop stop-color="white"/>
<stop offset="0.484275" stop-color="#FBFBFB"/>
<stop offset="0.484375" stop-color="#DCDCDC"/>
<stop offset="0.901042" stop-color="white"/>
</linearGradient>
<linearGradient id="paint10_linear_0_30" x1="195.5" y1="117.899" x2="195.5" y2="139.784" gradientUnits="userSpaceOnUse">
<stop stop-color="white"/>
<stop offset="0.484275" stop-color="#FBFBFB"/>
<stop offset="0.484375" stop-color="#DCDCDC"/>
<stop offset="0.901042" stop-color="white"/>
</linearGradient>
<linearGradient id="paint11_linear_0_30" x1="195.5" y1="117.899" x2="195.5" y2="139.784" gradientUnits="userSpaceOnUse">
<stop stop-color="white"/>
<stop offset="0.484275" stop-color="#FBFBFB"/>
<stop offset="0.484375" stop-color="#DCDCDC"/>
<stop offset="0.901042" stop-color="white"/>
</linearGradient>
<linearGradient id="paint12_linear_0_30" x1="195.5" y1="117.899" x2="195.5" y2="139.784" gradientUnits="userSpaceOnUse">
<stop stop-color="white"/>
<stop offset="0.484275" stop-color="#FBFBFB"/>
<stop offset="0.484375" stop-color="#DCDCDC"/>
<stop offset="0.901042" stop-color="white"/>
</linearGradient>
<linearGradient id="paint13_linear_0_30" x1="195.5" y1="117.899" x2="195.5" y2="139.784" gradientUnits="userSpaceOnUse">
<stop stop-color="white"/>
<stop offset="0.484275" stop-color="#FBFBFB"/>
<stop offset="0.484375" stop-color="#DCDCDC"/>
<stop offset="0.901042" stop-color="white"/>
</linearGradient>
<linearGradient id="paint14_linear_0_30" x1="195.5" y1="117.899" x2="195.5" y2="139.784" gradientUnits="userSpaceOnUse">
<stop stop-color="white"/>
<stop offset="0.484275" stop-color="#FBFBFB"/>
<stop offset="0.484375" stop-color="#DCDCDC"/>
<stop offset="0.901042" stop-color="white"/>
</linearGradient>
<linearGradient id="paint15_linear_0_30" x1="397.466" y1="26.6384" x2="397.466" y2="136.894" gradientUnits="userSpaceOnUse">
<stop offset="0.357421" stop-color="white"/>
<stop offset="0.645701" stop-color="#DCDCDC"/>
<stop offset="0.933981" stop-color="white"/>
</linearGradient>
</defs>
</svg>
