<svg width="654" height="204" viewBox="0 0 654 204" fill="none" xmlns="http://www.w3.org/2000/svg">
<path d="M0 24C0 10.7452 10.7452 0 24 0H630C643.255 0 654 10.7452 654 24V122H0V24Z" fill="#DD2225"/>
<path d="M0 180C0 193.255 10.7452 204 24 204H630C643.255 204 654 193.255 654 180V103H0V180Z" fill="#0083D4"/>
<path d="M44.4327 68V36.584H69.7327V68H63.0887V42.128H51.0767V68H44.4327ZM96.8755 68L94.5875 60.52H83.1475L80.8595 68H73.6875L84.7755 36.452H92.9155L104.048 68H96.8755ZM90.7155 47.628C90.5688 47.1293 90.3782 46.4987 90.1435 45.736C89.9088 44.9733 89.6742 44.196 89.4395 43.404C89.2048 42.612 89.0142 41.9227 88.8675 41.336C88.7208 41.9227 88.5155 42.656 88.2515 43.536C88.0168 44.3867 87.7822 45.208 87.5475 46C87.3422 46.7627 87.1808 47.3053 87.0635 47.628L84.8195 54.932H93.0035L90.7155 47.628ZM118.058 36.584C122.106 36.584 125.054 37.464 126.902 39.224C128.78 40.9547 129.718 43.3453 129.718 46.396C129.718 47.7747 129.513 49.0947 129.102 50.356C128.692 51.588 128.002 52.7027 127.034 53.7C126.096 54.668 124.849 55.4307 123.294 55.988C121.74 56.5453 119.818 56.824 117.53 56.824H114.67V68H108.026V36.584H118.058ZM117.706 42.04H114.67V51.368H116.87C118.132 51.368 119.217 51.2067 120.126 50.884C121.036 50.5613 121.74 50.048 122.238 49.344C122.737 48.64 122.986 47.7307 122.986 46.616C122.986 45.0613 122.561 43.9173 121.71 43.184C120.86 42.4213 119.525 42.04 117.706 42.04ZM154.883 68L152.595 60.52H141.155L138.867 68H131.695L142.783 36.452H150.923L162.055 68H154.883ZM148.723 47.628C148.577 47.1293 148.386 46.4987 148.151 45.736C147.917 44.9733 147.682 44.196 147.447 43.404C147.213 42.612 147.022 41.9227 146.875 41.336C146.729 41.9227 146.523 42.656 146.259 43.536C146.025 44.3867 145.79 45.208 145.555 46C145.35 46.7627 145.189 47.3053 145.071 47.628L142.827 54.932H151.011L148.723 47.628ZM191.29 68H183.722L175.494 54.756L172.678 56.78V68H166.034V36.584H172.678V50.972C173.118 50.356 173.558 49.74 173.998 49.124C174.438 48.508 174.878 47.892 175.318 47.276L183.81 36.584H191.202L180.246 50.488L191.29 68ZM222.906 52.248C222.906 54.6827 222.598 56.8973 221.982 58.892C221.395 60.8573 220.486 62.5587 219.254 63.996C218.051 65.4333 216.496 66.5333 214.59 67.296C212.712 68.0587 210.498 68.44 207.946 68.44C205.394 68.44 203.164 68.0587 201.258 67.296C199.38 66.504 197.826 65.404 196.594 63.996C195.391 62.5587 194.482 60.8427 193.866 58.848C193.279 56.8533 192.986 54.6387 192.986 52.204C192.986 48.948 193.514 46.1173 194.57 43.712C195.655 41.3067 197.298 39.444 199.498 38.124C201.727 36.7747 204.558 36.1 207.99 36.1C211.392 36.1 214.194 36.7747 216.394 38.124C218.594 39.444 220.222 41.3213 221.278 43.756C222.363 46.1613 222.906 48.992 222.906 52.248ZM199.982 52.248C199.982 54.448 200.26 56.34 200.818 57.924C201.375 59.508 202.24 60.7253 203.414 61.576C204.587 62.4267 206.098 62.852 207.946 62.852C209.852 62.852 211.378 62.4267 212.522 61.576C213.695 60.7253 214.546 59.508 215.074 57.924C215.631 56.34 215.91 54.448 215.91 52.248C215.91 48.9333 215.294 46.3373 214.062 44.46C212.83 42.5827 210.806 41.644 207.99 41.644C206.112 41.644 204.587 42.0693 203.414 42.92C202.24 43.7707 201.375 44.988 200.818 46.572C200.26 48.156 199.982 50.048 199.982 52.248ZM224.594 68L235.242 36.452H243.382L254.074 68H246.902L241.006 47.628C240.859 47.1293 240.683 46.4987 240.478 45.736C240.272 44.9733 240.067 44.196 239.862 43.404C239.656 42.612 239.48 41.9227 239.334 41.336C239.187 41.9227 238.996 42.656 238.762 43.536C238.556 44.3867 238.351 45.208 238.146 46C237.97 46.7627 237.823 47.3053 237.706 47.628L231.766 68H224.594ZM285.683 52.248C285.683 54.6827 285.375 56.8973 284.759 58.892C284.172 60.8573 283.263 62.5587 282.031 63.996C280.828 65.4333 279.274 66.5333 277.367 67.296C275.49 68.0587 273.275 68.44 270.723 68.44C268.171 68.44 265.942 68.0587 264.035 67.296C262.158 66.504 260.603 65.404 259.371 63.996C258.168 62.5587 257.259 60.8427 256.643 58.848C256.056 56.8533 255.763 54.6387 255.763 52.204C255.763 48.948 256.291 46.1173 257.347 43.712C258.432 41.3067 260.075 39.444 262.275 38.124C264.504 36.7747 267.335 36.1 270.767 36.1C274.17 36.1 276.971 36.7747 279.171 38.124C281.371 39.444 282.999 41.3213 284.055 43.756C285.14 46.1613 285.683 48.992 285.683 52.248ZM262.759 52.248C262.759 54.448 263.038 56.34 263.595 57.924C264.152 59.508 265.018 60.7253 266.191 61.576C267.364 62.4267 268.875 62.852 270.723 62.852C272.63 62.852 274.155 62.4267 275.299 61.576C276.472 60.7253 277.323 59.508 277.851 57.924C278.408 56.34 278.687 54.448 278.687 52.248C278.687 48.9333 278.071 46.3373 276.839 44.46C275.607 42.5827 273.583 41.644 270.767 41.644C268.89 41.644 267.364 42.0693 266.191 42.92C265.018 43.7707 264.152 44.988 263.595 46.572C263.038 48.156 262.759 50.048 262.759 52.248ZM301.529 49.52L308.085 36.584H315.257L304.829 55.768V68H298.229V55.988L287.801 36.584H295.017L301.529 49.52ZM326.322 54.756V49.3H337.498V54.756H326.322ZM346.87 52.248C346.87 54.6827 346.562 56.8973 345.946 58.892C345.36 60.8573 344.45 62.5587 343.218 63.996C342.016 65.4333 340.461 66.5333 338.554 67.296C336.677 68.0587 334.462 68.44 331.91 68.44C329.358 68.44 327.129 68.0587 325.222 67.296C323.345 66.504 321.79 65.404 320.558 63.996C319.356 62.5587 318.446 60.8427 317.83 58.848C317.244 56.8533 316.95 54.6387 316.95 52.204C316.95 48.948 317.478 46.1173 318.534 43.712C319.62 41.3067 321.262 39.444 323.462 38.124C325.692 36.7747 328.522 36.1 331.954 36.1C335.357 36.1 338.158 36.7747 340.358 38.124C342.558 39.444 344.186 41.3213 345.242 43.756C346.328 46.1613 346.87 48.992 346.87 52.248ZM323.946 52.248C323.946 54.448 324.225 56.34 324.782 57.924C325.34 59.508 326.205 60.7253 327.378 61.576C328.552 62.4267 330.062 62.852 331.91 62.852C333.817 62.852 335.342 62.4267 336.486 61.576C337.66 60.7253 338.51 59.508 339.038 57.924C339.596 56.34 339.874 54.448 339.874 52.248C339.874 48.9333 339.258 46.3373 338.026 44.46C336.794 42.5827 334.77 41.644 331.954 41.644C330.077 41.644 328.552 42.0693 327.378 42.92C326.205 43.7707 325.34 44.988 324.782 46.572C324.225 48.156 323.946 50.048 323.946 52.248ZM388.974 68H382.33V54.448H369.878V68H363.234V36.584H369.878V48.904H382.33V36.584H388.974V68ZM349.858 44.064V43.492L351.926 36.584H359.274V37.024L354.258 44.064H349.858ZM394.001 68V62.764L403.681 51.544L394.397 41.512V36.584H416.969V42.04H406.629C406.043 42.04 405.383 42.0253 404.649 41.996C403.945 41.9667 403.183 41.908 402.361 41.82L410.237 50.532V52.204L401.041 62.764C402.068 62.676 403.007 62.6173 403.857 62.588C404.737 62.5293 405.676 62.5 406.673 62.5H417.365V68H394.001ZM434.486 68H427.842V42.128H419.306V36.584H443.022V42.128H434.486V68ZM465.95 68H447.866V36.584H465.95V42.04H454.51V48.948H465.158V54.404H454.51V62.5H465.95V68Z" fill="url(#paint0_linear_1777_1271)"/>
<path d="M66.3137 168L64.1297 160.86H53.2097L51.0257 168H44.1797L54.7637 137.886H62.5337L73.1597 168H66.3137ZM60.4337 148.554C60.2937 148.078 60.1117 147.476 59.8877 146.748C59.6637 146.02 59.4397 145.278 59.2157 144.522C58.9917 143.766 58.8097 143.108 58.6697 142.548C58.5297 143.108 58.3337 143.808 58.0817 144.648C57.8577 145.46 57.6337 146.244 57.4097 147C57.2137 147.728 57.0597 148.246 56.9477 148.554L54.8057 155.526H62.6177L60.4337 148.554ZM83.7394 155.358V150.15H94.4074V155.358H83.7394ZM103.353 152.964C103.353 155.288 103.059 157.402 102.471 159.306C101.911 161.182 101.043 162.806 99.8674 164.178C98.7194 165.55 97.2354 166.6 95.4154 167.328C93.6234 168.056 91.5094 168.42 89.0734 168.42C86.6374 168.42 84.5094 168.056 82.6894 167.328C80.8974 166.572 79.4134 165.522 78.2374 164.178C77.0894 162.806 76.2214 161.168 75.6334 159.264C75.0734 157.36 74.7934 155.246 74.7934 152.922C74.7934 149.814 75.2974 147.112 76.3054 144.816C77.3414 142.52 78.9094 140.742 81.0094 139.482C83.1374 138.194 85.8394 137.55 89.1154 137.55C92.3634 137.55 95.0374 138.194 97.1374 139.482C99.2374 140.742 100.791 142.534 101.799 144.858C102.835 147.154 103.353 149.856 103.353 152.964ZM81.4714 152.964C81.4714 155.064 81.7374 156.87 82.2694 158.382C82.8014 159.894 83.6274 161.056 84.7474 161.868C85.8674 162.68 87.3094 163.086 89.0734 163.086C90.8934 163.086 92.3494 162.68 93.4414 161.868C94.5614 161.056 95.3734 159.894 95.8774 158.382C96.4094 156.87 96.6754 155.064 96.6754 152.964C96.6754 149.8 96.0874 147.322 94.9114 145.53C93.7354 143.738 91.8034 142.842 89.1154 142.842C87.3234 142.842 85.8674 143.248 84.7474 144.06C83.6274 144.872 82.8014 146.034 82.2694 147.546C81.7374 149.058 81.4714 150.864 81.4714 152.964ZM104.965 168L115.129 137.886H122.899L133.105 168H126.259L120.631 148.554C120.491 148.078 120.323 147.476 120.127 146.748C119.931 146.02 119.735 145.278 119.539 144.522C119.343 143.766 119.175 143.108 119.035 142.548C118.895 143.108 118.713 143.808 118.489 144.648C118.293 145.46 118.097 146.244 117.901 147C117.733 147.728 117.593 148.246 117.481 148.554L111.811 168H104.965ZM170.86 168H164.518V155.064H152.632V168H146.29V138.012H152.632V149.772H164.518V138.012H170.86V168ZM133.522 145.152V144.606L135.496 138.012H142.51V138.432L137.722 145.152H133.522ZM191.114 168L183.89 144.48H183.722C183.75 145.04 183.792 145.88 183.848 147C183.904 148.12 183.96 149.324 184.016 150.612C184.072 151.872 184.1 153.02 184.1 154.056V168H178.43V138.012H187.082L194.18 160.944H194.306L201.824 138.012H210.476V168H204.554V153.804C204.554 152.852 204.568 151.76 204.596 150.528C204.652 149.296 204.694 148.134 204.722 147.042C204.778 145.922 204.82 145.082 204.848 144.522H204.68L196.952 168H191.114ZM236.405 168L234.221 160.86H223.301L221.117 168H214.271L224.855 137.886H232.625L243.251 168H236.405ZM230.525 148.554C230.385 148.078 230.203 147.476 229.979 146.748C229.755 146.02 229.531 145.278 229.307 144.522C229.083 143.766 228.901 143.108 228.761 142.548C228.621 143.108 228.425 143.808 228.173 144.648C227.949 145.46 227.725 146.244 227.501 147C227.305 147.728 227.151 148.246 227.039 148.554L224.897 155.526H232.709L230.525 148.554ZM255.646 168H249.304V143.304H241.156V138.012H263.794V143.304H255.646V168ZM283.82 168L281.636 160.86H270.716L268.532 168H261.686L272.27 137.886H280.04L290.666 168H283.82ZM277.94 148.554C277.8 148.078 277.618 147.476 277.394 146.748C277.17 146.02 276.946 145.278 276.722 144.522C276.498 143.766 276.316 143.108 276.176 142.548C276.036 143.108 275.84 143.808 275.588 144.648C275.364 145.46 275.14 146.244 274.916 147C274.72 147.728 274.566 148.246 274.454 148.554L272.312 155.526H280.124L277.94 148.554ZM310.632 143.22L308.322 145.32V161.28L310.632 163.38H319.452L321.762 161.28V145.32L319.452 143.22H310.632ZM307.902 138.18H322.182L327.642 143.22V163.38L322.182 168.42H307.902L302.442 163.38V143.22L307.902 138.18ZM352.642 157.29V138.6H358.522V168H352.852L340.252 149.31H340.042V168H334.162V138.6H339.832L352.432 157.29H352.642ZM365.662 138.6H371.542V162.96H386.452V168H365.662V138.6ZM405.125 168H389.165V162.96H394.205V143.64H389.165V138.6H405.125V143.64H400.085V162.96H405.125V168ZM429.054 157.29V138.6H434.934V168H429.264L416.664 149.31H416.454V168H410.574V138.6H416.244L428.844 157.29H429.054ZM442.074 138.6H463.914V143.64H447.954V150.78H460.134V155.82H447.954V162.96H464.334V168H442.074V138.6Z" fill="url(#paint1_linear_1777_1271)"/>
<path d="M611.203 96.4074C614.932 99.2039 614.932 104.796 611.203 107.593L527.191 170.589C522.58 174.046 516 170.757 516 164.996L516 39.004C516 33.2426 522.58 29.9541 527.191 33.4113L611.203 96.4074Z" fill="url(#paint2_linear_1777_1271)"/>
<defs>
<linearGradient id="paint0_linear_1777_1271" x1="254.5" y1="37.1906" x2="254.5" y2="68.1942" gradientUnits="userSpaceOnUse">
<stop stop-color="white"/>
<stop offset="0.484275" stop-color="#FBFBFB"/>
<stop offset="0.484375" stop-color="#DCDCDC"/>
<stop offset="0.901042" stop-color="white"/>
</linearGradient>
<linearGradient id="paint1_linear_1777_1271" x1="255" y1="138.532" x2="255" y2="167.712" gradientUnits="userSpaceOnUse">
<stop stop-color="white"/>
<stop offset="0.484275" stop-color="#FBFBFB"/>
<stop offset="0.484375" stop-color="#DCDCDC"/>
<stop offset="0.901042" stop-color="white"/>
</linearGradient>
<linearGradient id="paint2_linear_1777_1271" x1="527.562" y1="32.0873" x2="527.562" y2="171.913" gradientUnits="userSpaceOnUse">
<stop offset="0.357421" stop-color="white"/>
<stop offset="0.645701" stop-color="#DCDCDC"/>
<stop offset="0.933981" stop-color="white"/>
</linearGradient>
</defs>
</svg>
