<svg width="654" height="216" viewBox="0 0 654 216" fill="none" xmlns="http://www.w3.org/2000/svg">
<path d="M0 36C0 22.7452 10.7452 12 24 12H630C643.255 12 654 22.7452 654 36V134H0V36Z" fill="#DD2225"/>
<path d="M0 192C0 205.255 10.7452 216 24 216H630C643.255 216 654 205.255 654 192V134H0V192Z" fill="#0083D4"/>
<path d="M86.8063 82.935V115H60.7913V30.3H86.8063V62.365H88.6213L106.771 30.3H134.601L110.401 71.44L137.021 115H109.191L90.4363 82.935H86.8063ZM192.128 98.06H167.928L162.483 115H135.863L163.088 30.3H196.968L224.193 115H197.573L192.128 98.06ZM180.028 58.735L174.583 77.49H185.473L180.028 58.735ZM265.442 115H239.427V50.87H219.462V30.3H285.407V50.87H265.442V115ZM307.182 81.725L292.662 68.415V43.61L307.182 30.3H359.817V50.87H321.097L318.677 53.29V58.735L321.097 61.155H349.532L364.052 74.465V101.69L349.532 115H293.267V94.43H335.617L338.037 92.01V84.145L335.617 81.725H307.182ZM403.382 49.66L400.962 52.08V93.22L403.382 95.64H421.532L423.952 93.22V52.08L421.532 49.66H403.382ZM390.677 29.09H434.237L449.967 43.61V101.69L434.237 116.21H390.677L374.947 101.69V43.61L390.677 29.09Z" fill="url(#paint0_linear_1777_824)"/>
<path d="M51.6375 181.8V161H60.2375V184.6L55.0375 189.4H41.4375L36.2375 184.6V161H44.8375V181.8L45.6375 182.6H50.8375L51.6375 181.8ZM81.8469 189L77.2469 180.8H74.4469V189H65.8469V161H84.2469L89.0469 165.4V175.4L85.0469 179L90.6469 189H81.8469ZM80.4469 168.6L79.6469 167.8H74.4469V174H79.6469L80.4469 173.2V168.6ZM102.455 178.4V189H93.8547V161H102.455V171.6H109.055V161H117.655V189H109.055V178.4H102.455ZM123.269 161H144.469V167.8H131.869V171.8H140.869V178.2H131.869V182.2H144.869V189H123.269V161ZM164.859 189H147.459V182.2H151.859V167.8H147.459V161H164.859V167.8H160.459V182.2H164.859V189ZM169.245 161H177.845V182.2H189.645V189H169.245V161ZM208.239 181.8V161H216.839V184.6L211.639 189.4H198.039L192.839 184.6V161H201.439V181.8L202.239 182.6H207.439L208.239 181.8ZM237.858 183.4H229.858L228.058 189H219.258L228.258 161H239.458L248.458 189H239.658L237.858 183.4ZM233.858 170.4L232.058 176.6H235.658L233.858 170.4ZM276.084 189H265.484L256.484 161H265.284L270.684 179.2H270.884L276.284 161H285.084L276.084 189ZM287.878 161H309.078V167.8H296.478V171.8H305.478V178.2H296.478V182.2H309.478V189H287.878V161ZM329.269 189L324.669 180.8H321.869V189H313.269V161H331.669L336.469 165.4V175.4L332.469 179L338.069 189H329.269ZM327.869 168.6L327.069 167.8H321.869V174H327.069L327.869 173.2V168.6ZM349.877 178.4V189H341.277V161H349.877V171.6H350.477L356.477 161H365.677L357.677 174.6L366.477 189H357.277L351.077 178.4H349.877ZM377.303 167.4L376.503 168.2V181.8L377.303 182.6H383.303L384.103 181.8V168.2L383.303 167.4H377.303ZM373.103 160.6H387.503L392.703 165.4V184.6L387.503 189.4H373.103L367.903 184.6V165.4L373.103 160.6ZM401.322 178L396.522 173.6V165.4L401.322 161H418.722V167.8H405.922L405.122 168.6V170.4L405.922 171.2H415.322L420.122 175.6V184.6L415.322 189H396.722V182.2H410.722L411.522 181.4V178.8L410.722 178H401.322ZM427.142 178L422.342 173.6V165.4L427.142 161H444.542V167.8H431.742L430.942 168.6V170.4L431.742 171.2H441.142L445.942 175.6V184.6L441.142 189H422.542V182.2H436.542L437.342 181.4V178.8L436.542 178H427.142ZM465.944 183.4H457.944L456.144 189H447.344L456.344 161H467.544L476.544 189H467.744L465.944 183.4ZM461.944 170.4L460.144 176.6H463.744L461.944 170.4Z" fill="url(#paint1_linear_1777_824)"/>
<path d="M611.203 108.407C614.932 111.204 614.932 116.796 611.203 119.593L527.191 182.589C522.58 186.046 516 182.757 516 176.996L516 51.004C516 45.2426 522.58 41.9541 527.191 45.4113L611.203 108.407Z" fill="url(#paint2_linear_1777_824)"/>
<defs>
<linearGradient id="paint0_linear_1777_824" x1="254.5" y1="30.5" x2="254.5" y2="115" gradientUnits="userSpaceOnUse">
<stop stop-color="white"/>
<stop offset="0.484275" stop-color="#FBFBFB"/>
<stop offset="0.484375" stop-color="#DCDCDC"/>
<stop offset="0.901042" stop-color="white"/>
</linearGradient>
<linearGradient id="paint1_linear_1777_824" x1="255" y1="161.094" x2="255" y2="189.058" gradientUnits="userSpaceOnUse">
<stop stop-color="white"/>
<stop offset="0.484275" stop-color="#FBFBFB"/>
<stop offset="0.484375" stop-color="#DCDCDC"/>
<stop offset="0.901042" stop-color="white"/>
</linearGradient>
<linearGradient id="paint2_linear_1777_824" x1="527.562" y1="44.0873" x2="527.562" y2="183.913" gradientUnits="userSpaceOnUse">
<stop offset="0.357421" stop-color="white"/>
<stop offset="0.645701" stop-color="#DCDCDC"/>
<stop offset="0.933981" stop-color="white"/>
</linearGradient>
</defs>
</svg>
