<svg width="654" height="204" viewBox="0 0 654 204" fill="none" xmlns="http://www.w3.org/2000/svg">
<path d="M0 24C0 10.7452 10.7452 0 24 0H630C643.255 0 654 10.7452 654 24V122H0V24Z" fill="#DD2225"/>
<path d="M0 180C0 193.255 10.7452 204 24 204H630C643.255 204 654 193.255 654 180V122H0V180Z" fill="#0083D4"/>
<path d="M42.8079 66.7L31.7679 56.58V37.72L42.8079 27.6H82.8279V43.24H53.3879L51.5479 45.08V49.22L53.3879 51.06H75.0079L86.0479 61.18V81.88L75.0079 92H32.2279V76.36H64.4279L66.2679 74.52V68.54L64.4279 66.7H42.8079ZM95.7115 27.6H144.471V43.24H115.491V52.44H136.191V67.16H115.491V76.36H145.391V92H95.7115V27.6ZM183.593 66.7L172.553 56.58V37.72L183.593 27.6H223.613V43.24H194.173L192.333 45.08V49.22L194.173 51.06H215.793L226.833 61.18V81.88L215.793 92H173.013V76.36H205.213L207.053 74.52V68.54L205.213 66.7H183.593ZM279.737 74.98H256.277V92H236.497V27.6H279.737L290.777 37.72V64.86L279.737 74.98ZM270.997 45.08L269.157 43.24H256.277V59.34H269.157L270.997 57.5V45.08ZM321.155 42.32L319.315 44.16V75.44L321.155 77.28H334.955L336.795 75.44V44.16L334.955 42.32H321.155ZM311.495 26.68H344.615L356.575 37.72V81.88L344.615 92.92H311.495L299.535 81.88V37.72L311.495 26.68ZM404.918 92L394.338 73.14H387.898V92H368.118V27.6H410.438L421.478 37.72V60.72L412.278 69L425.158 92H404.918ZM401.698 45.08L399.858 43.24H387.898V57.5H399.858L401.698 55.66V45.08ZM462.896 92H443.116V43.24H427.936V27.6H478.076V43.24H462.896V92Z" fill="url(#paint0_linear_1777_938)"/>
<path d="M178.362 171.75H165.612V181H154.862V146H178.362L184.362 151.5V166.25L178.362 171.75ZM173.612 155.5L172.612 154.5H165.612V163.25H172.612L173.612 162.25V155.5ZM207.132 174H197.132L194.882 181H183.882L195.132 146H209.132L220.382 181H209.382L207.132 174ZM202.132 157.75L199.882 165.5H204.382L202.132 157.75ZM200.632 139L201.132 139.5H203.132L203.632 139V137.5L203.132 137H201.132L200.632 137.55V139ZM195.132 140.75V135.75L198.632 132.75H205.632L209.132 135.75V140.75L205.632 143.75H198.632L195.132 140.75ZM255.679 162V146H266.429V181H255.929L246.429 165H246.179V181H235.429V146H245.979L255.429 162H255.679ZM273.417 146H299.917V154.5H284.167V159.5H295.417V167.5H284.167V172.5H300.417V181H273.417V146ZM321.655 181H310.905V154.5H302.655V146H329.905V154.5H321.655V181ZM350.903 181H340.153V154.5H331.903V146H359.153V154.5H350.903V181Z" fill="url(#paint1_linear_1777_938)"/>
<path d="M612.203 96.4074C615.932 99.2039 615.932 104.796 612.203 107.593L528.191 170.589C523.58 174.046 517 170.757 517 164.996L517 39.004C517 33.2426 523.58 29.9541 528.191 33.4113L612.203 96.4074Z" fill="url(#paint2_linear_1777_938)"/>
<defs>
<linearGradient id="paint0_linear_1777_938" x1="254" y1="27.259" x2="254" y2="91.6978" gradientUnits="userSpaceOnUse">
<stop stop-color="white"/>
<stop offset="0.484275" stop-color="#FBFBFB"/>
<stop offset="0.484375" stop-color="#DCDCDC"/>
<stop offset="0.901042" stop-color="white"/>
</linearGradient>
<linearGradient id="paint1_linear_1777_938" x1="255" y1="145.727" x2="255" y2="180.986" gradientUnits="userSpaceOnUse">
<stop stop-color="white"/>
<stop offset="0.484275" stop-color="#FBFBFB"/>
<stop offset="0.484375" stop-color="#DCDCDC"/>
<stop offset="0.901042" stop-color="white"/>
</linearGradient>
<linearGradient id="paint2_linear_1777_938" x1="528.562" y1="32.0873" x2="528.562" y2="171.913" gradientUnits="userSpaceOnUse">
<stop offset="0.357421" stop-color="white"/>
<stop offset="0.645701" stop-color="#DCDCDC"/>
<stop offset="0.933981" stop-color="white"/>
</linearGradient>
</defs>
</svg>
