<svg width="654" height="204" viewBox="0 0 654 204" fill="none" xmlns="http://www.w3.org/2000/svg">
<path d="M0 24C0 10.7452 10.7452 0 24 0H630C643.255 0 654 10.7452 654 24V122H0V24Z" fill="#DD2225"/>
<path d="M0 180C0 193.255 10.7452 204 24 204H630C643.255 204 654 193.255 654 180V122H0V180Z" fill="#0083D4"/>
<path d="M61.9163 42.32L60.0763 44.16V75.44L61.9163 77.28H75.7163L77.5563 75.44V44.16L75.7163 42.32H61.9163ZM52.2563 26.68H85.3763L97.3363 37.72V81.88L85.3763 92.92H52.2563L40.2963 81.88V37.72L52.2563 26.68ZM145.679 74.52V66.24H137.399V51.52H164.539V80.96L152.579 92H119.459L107.499 80.96V38.64L119.459 27.6H159.479V43.24H129.119L127.279 45.08V74.52L129.119 76.36H143.839L145.679 74.52ZM175.094 27.6H194.874V76.36H222.014V92H175.094V27.6ZM282.238 100.74V104.42L284.538 106.26H289.138V114.54H278.098L271.658 109.02V99.36L279.018 92H270.738L266.598 79.12H248.198L244.058 92H223.818L244.518 27.6H270.278L290.978 92L282.238 100.74ZM257.398 49.22L253.258 63.48H261.538L257.398 49.22ZM297.461 92V27.6H341.161L353.121 38.64V80.96L341.161 92H297.461ZM317.241 76.36H331.501L333.341 74.52V45.08L331.501 43.24H317.241V76.36ZM400.106 79.12H381.706L377.566 92H357.326L378.026 27.6H403.786L424.486 92H404.246L400.106 79.12ZM390.906 49.22L386.766 63.48H395.046L390.906 49.22ZM447.529 74.52V27.6H467.309V80.96L455.349 92H425.449V76.36H445.689L447.529 74.52Z" fill="url(#paint0_linear_1777_1052)"/>
<path d="M48.5878 167.325L41.7478 161.055V149.37L48.5878 143.1H73.3828V152.79H55.1428L54.0028 153.93V156.495L55.1428 157.635H68.5378L75.3778 163.905V176.73L68.5378 183H42.0328V173.31H61.9828L63.1228 172.17V168.465L61.9828 167.325H48.5878ZM108.155 172.455H93.62V183H81.365V143.1H108.155L114.995 149.37V166.185L108.155 172.455ZM102.74 153.93L101.6 152.79H93.62V162.765H101.6L102.74 161.625V153.93ZM133.816 152.22L132.676 153.36V172.74L133.816 173.88H142.366L143.506 172.74V153.36L142.366 152.22H133.816ZM127.831 142.53H148.351L155.761 149.37V176.73L148.351 183.57H127.831L120.421 176.73V149.37L127.831 142.53ZM185.713 183L179.158 171.315H175.168V183H162.913V143.1H189.133L195.973 149.37V163.62L190.273 168.75L198.253 183H185.713ZM183.718 153.93L182.578 152.79H175.168V161.625H182.578L183.718 160.485V153.93ZM221.634 183H209.379V152.79H199.974V143.1H231.039V152.79H221.634V183ZM260.118 152.22L258.978 153.36V172.74L260.118 173.88H268.668L269.808 172.74V153.36L268.668 152.22H260.118ZM254.133 142.53H274.653L282.063 149.37V176.73L274.653 183.57H254.133L246.723 176.73V149.37L254.133 142.53ZM312.3 161.34V143.1H324.555V183H312.585L301.755 164.76H301.47V183H289.215V143.1H301.242L312.015 161.34H312.3ZM332.521 143.1H344.776V173.31H361.591V183H332.521V143.1ZM389.784 183H364.989V173.31H371.259V152.79H364.989V143.1H389.784V152.79H383.514V173.31H389.784V183ZM419.119 161.34V143.1H431.374V183H419.404L408.574 164.76H408.289V183H396.034V143.1H408.061L418.834 161.34H419.119ZM439.341 143.1H469.551V152.79H451.596V158.49H464.421V167.61H451.596V173.31H470.121V183H439.341V143.1Z" fill="url(#paint1_linear_1777_1052)"/>
<path d="M612.203 96.4074C615.932 99.2039 615.932 104.796 612.203 107.593L528.191 170.589C523.58 174.046 517 170.757 517 164.996L517 39.004C517 33.2426 523.58 29.9541 528.191 33.4113L612.203 96.4074Z" fill="url(#paint2_linear_1777_1052)"/>
<defs>
<linearGradient id="paint0_linear_1777_1052" x1="254.5" y1="27.259" x2="254.5" y2="91.6978" gradientUnits="userSpaceOnUse">
<stop stop-color="white"/>
<stop offset="0.484275" stop-color="#FBFBFB"/>
<stop offset="0.484375" stop-color="#DCDCDC"/>
<stop offset="0.901042" stop-color="white"/>
</linearGradient>
<linearGradient id="paint1_linear_1777_1052" x1="255.5" y1="143.482" x2="255.5" y2="183.604" gradientUnits="userSpaceOnUse">
<stop stop-color="white"/>
<stop offset="0.484275" stop-color="#FBFBFB"/>
<stop offset="0.484375" stop-color="#DCDCDC"/>
<stop offset="0.901042" stop-color="white"/>
</linearGradient>
<linearGradient id="paint2_linear_1777_1052" x1="528.562" y1="32.0873" x2="528.562" y2="171.913" gradientUnits="userSpaceOnUse">
<stop offset="0.357421" stop-color="white"/>
<stop offset="0.645701" stop-color="#DCDCDC"/>
<stop offset="0.933981" stop-color="white"/>
</linearGradient>
</defs>
</svg>
