<svg width="654" height="216" viewBox="0 0 654 216" fill="none" xmlns="http://www.w3.org/2000/svg">
<path d="M0 36C0 22.7452 10.7452 12 24 12H630C643.255 12 654 22.7452 654 36V134H0V36Z" fill="#DD2225"/>
<path d="M0 192C0 205.255 10.7452 216 24 216H630C643.255 216 654 205.255 654 192V134H0V192Z" fill="#0083D4"/>
<path d="M155.659 115H123.594L96.3691 30.3H122.989L139.324 85.355H139.929L156.264 30.3H182.884L155.659 115ZM191.335 30.3H255.465V50.87H217.35V62.97H244.575V82.33H217.35V94.43H256.675V115H191.335V30.3ZM289.922 92.01V30.3H315.937V100.48L300.207 115H260.882V94.43H287.502L289.922 92.01ZM379.509 98.06H355.309L349.864 115H323.244L350.469 30.3H384.349L411.574 115H384.954L379.509 98.06ZM367.409 58.735L361.964 77.49H372.854L367.409 58.735Z" fill="url(#paint0_linear_1770_332)"/>
<path d="M34.2032 190V158.5H55.5782L61.4282 163.9V184.6L55.5782 190H34.2032ZM43.8782 182.35H50.8532L51.7532 181.45V167.05L50.8532 166.15H43.8782V182.35ZM67.0743 158.5H90.9243V166.15H76.7493V170.65H86.8743V177.85H76.7493V182.35H91.3743V190H67.0743V158.5ZM99.6888 177.625L94.2888 172.675V163.45L99.6888 158.5H119.264V166.15H104.864L103.964 167.05V169.075L104.864 169.975H115.439L120.839 174.925V185.05L115.439 190H94.5138V182.35H110.264L111.164 181.45V178.525L110.264 177.625H99.6888ZM146.716 181.675H135.241V190H125.566V158.5H146.716L152.116 163.45V176.725L146.716 181.675ZM142.441 167.05L141.541 166.15H135.241V174.025H141.541L142.441 173.125V167.05ZM166.974 165.7L166.074 166.6V181.9L166.974 182.8H173.724L174.624 181.9V166.6L173.724 165.7H166.974ZM162.249 158.05H178.449L184.299 163.45V185.05L178.449 190.45H162.249L156.399 185.05V163.45L162.249 158.05ZM207.945 190L202.77 180.775H199.62V190H189.945V158.5H210.645L216.045 163.45V174.7L211.545 178.75L217.845 190H207.945ZM206.37 167.05L205.47 166.15H199.62V173.125H205.47L206.37 172.225V167.05ZM236.304 190H226.629V166.15H219.204V158.5H243.729V166.15H236.304V190ZM256.799 165.7L255.899 166.6V181.9L256.799 182.8H263.549L264.449 181.9V166.6L263.549 165.7H256.799ZM252.074 158.05H268.274L274.124 163.45V185.05L268.274 190.45H252.074L246.224 185.05V163.45L252.074 158.05ZM300.041 165.7L299.141 166.6V181.9L300.041 182.8H306.791L307.691 181.9V166.6L306.791 165.7H300.041ZM295.316 158.05H311.516L317.366 163.45V185.05L311.516 190.45H295.316L289.466 185.05V163.45L295.316 158.05ZM341.237 172.9V158.5H350.912V190H341.462L332.912 175.6H332.687V190H323.012V158.5H332.507L341.012 172.9H341.237ZM357.201 158.5H366.876V182.35H380.151V190H357.201V158.5ZM402.409 190H382.834V182.35H387.784V166.15H382.834V158.5H402.409V166.15H397.459V182.35H402.409V190ZM425.568 172.9V158.5H435.243V190H425.793L417.243 175.6H417.018V190H407.343V158.5H416.838L425.343 172.9H425.568ZM441.532 158.5H465.382V166.15H451.207V170.65H461.332V177.85H451.207V182.35H465.832V190H441.532V158.5Z" fill="url(#paint1_linear_1770_332)"/>
<path d="M611.535 108.4C615.268 111.2 615.268 116.8 611.535 119.6L527.45 182.674C522.836 186.136 516.25 182.843 516.25 177.075L516.25 50.9252C516.25 45.1567 522.836 41.864 527.45 45.3256L611.535 108.4Z" fill="url(#paint2_linear_1770_332)"/>
<defs>
<linearGradient id="paint0_linear_1770_332" x1="254" y1="30.5" x2="254" y2="115" gradientUnits="userSpaceOnUse">
<stop stop-color="white"/>
<stop offset="0.484275" stop-color="#FBFBFB"/>
<stop offset="0.484375" stop-color="#DCDCDC"/>
<stop offset="0.901042" stop-color="white"/>
</linearGradient>
<linearGradient id="paint1_linear_1770_332" x1="249" y1="158.41" x2="249" y2="190.022" gradientUnits="userSpaceOnUse">
<stop stop-color="white"/>
<stop offset="0.484275" stop-color="#FBFBFB"/>
<stop offset="0.484375" stop-color="#DCDCDC"/>
<stop offset="0.901042" stop-color="white"/>
</linearGradient>
<linearGradient id="paint2_linear_1770_332" x1="505.655" y1="46" x2="505.655" y2="186.5" gradientUnits="userSpaceOnUse">
<stop offset="0.357421" stop-color="white"/>
<stop offset="0.645701" stop-color="#DCDCDC"/>
<stop offset="0.933981" stop-color="white"/>
</linearGradient>
</defs>
</svg>
