<svg width="654" height="204" viewBox="0 0 654 204" fill="none" xmlns="http://www.w3.org/2000/svg">
<path d="M0 24C0 10.7452 10.7452 0 24 0H630C643.255 0 654 10.7452 654 24V122H0V24Z" fill="#DD2225"/>
<path d="M0 180C0 193.255 10.7452 204 24 204H630C643.255 204 654 193.255 654 180V122H0V180Z" fill="#0083D4"/>
<path d="M79.8824 110.1V84L83.0324 67.8H96.0824L99.2324 84V110.1H79.8824ZM80.7824 47.1H98.3324V62.4H80.7824V47.1ZM148.729 93H124.879L104.629 30H124.429L136.579 70.95H137.029L149.179 30H168.979L148.729 93ZM175.265 30H222.965V45.3H194.615V54.3H214.865V68.7H194.615V77.7H223.865V93H175.265V30ZM253.136 30H272.486V77.7H299.036V93H253.136V30ZM326.022 44.4L324.222 46.2V76.8L326.022 78.6H339.522L341.322 76.8V46.2L339.522 44.4H326.022ZM316.572 29.1H348.972L360.672 39.9V83.1L348.972 93.9H316.572L304.872 83.1V39.9L316.572 29.1ZM380.064 68.25L369.264 58.35V39.9L380.064 30H419.214V45.3H390.414L388.614 47.1V51.15L390.414 52.95H411.564L422.364 62.85V83.1L411.564 93H369.714V77.7H401.214L403.014 75.9V70.05L401.214 68.25H380.064Z" fill="url(#paint0_linear_1770_176)"/>
<path d="M42.1523 178V147.2H63.0523L68.7723 152.48V172.72L63.0523 178H42.1523ZM51.6123 170.52H58.4323L59.3123 169.64V155.56L58.4323 154.68H51.6123V170.52ZM74.2929 147.2H97.6129V154.68H83.7529V159.08H93.6529V166.12H83.7529V170.52H98.0529V178H74.2929V147.2ZM122.903 169.86H111.683V178H102.223V147.2H122.903L128.183 152.04V165.02L122.903 169.86ZM118.723 155.56L117.843 154.68H111.683V162.38H117.843L118.723 161.5V155.56ZM142.711 154.24L141.831 155.12V170.08L142.711 170.96H149.311L150.191 170.08V155.12L149.311 154.24H142.711ZM138.091 146.76H153.931L159.651 152.04V173.16L153.931 178.44H138.091L132.371 173.16V152.04L138.091 146.76ZM182.772 178L177.712 168.98H174.632V178H165.172V147.2H185.412L190.692 152.04V163.04L186.292 167L192.452 178H182.772ZM181.232 155.56L180.352 154.68H174.632V161.5H180.352L181.232 160.62V155.56ZM210.5 178H201.04V154.68H193.78V147.2H217.76V154.68H210.5V178ZM221.719 147.2H245.039V154.68H231.179V159.08H241.079V166.12H231.179V170.52H245.479V178H221.719V147.2ZM253.608 165.9L248.328 161.06V152.04L253.608 147.2H272.748V154.68H258.668L257.788 155.56V157.54L258.668 158.42H269.008L274.288 163.26V173.16L269.008 178H248.548V170.52H263.948L264.828 169.64V166.78L263.948 165.9H253.608ZM298.731 154.24L297.851 155.12V170.08L298.731 170.96H305.331L306.211 170.08V155.12L305.331 154.24H298.731ZM294.111 146.76H309.951L315.671 152.04V173.16L309.951 178.44H294.111L288.391 173.16V152.04L294.111 146.76ZM339.011 161.28V147.2H348.471V178H339.231L330.871 163.92H330.651V178H321.191V147.2H330.475L338.791 161.28H339.011ZM354.621 147.2H364.081V170.52H377.061V178H354.621V147.2ZM398.824 178H379.684V170.52H384.524V154.68H379.684V147.2H398.824V154.68H393.984V170.52H398.824V178ZM421.468 161.28V147.2H430.928V178H421.688L413.328 163.92H413.108V178H403.648V147.2H412.932L421.248 161.28H421.468ZM437.078 147.2H460.398V154.68H446.538V159.08H456.438V166.12H446.538V170.52H460.838V178H437.078V147.2Z" fill="url(#paint1_linear_1770_176)"/>
<path d="M604.203 96.4074C607.932 99.2039 607.932 104.796 604.203 107.593L520.191 170.589C515.58 174.046 509 170.757 509 164.996L509 39.004C509 33.2426 515.58 29.9541 520.191 33.4113L604.203 96.4074Z" fill="url(#paint2_linear_1770_176)"/>
<defs>
<linearGradient id="paint0_linear_1770_176" x1="250" y1="29.8201" x2="250" y2="93.0432" gradientUnits="userSpaceOnUse">
<stop stop-color="white"/>
<stop offset="0.484275" stop-color="#FBFBFB"/>
<stop offset="0.484375" stop-color="#DCDCDC"/>
<stop offset="0.901042" stop-color="white"/>
</linearGradient>
<linearGradient id="paint1_linear_1770_176" x1="250.5" y1="147.191" x2="250.5" y2="178.194" gradientUnits="userSpaceOnUse">
<stop stop-color="white"/>
<stop offset="0.484275" stop-color="#FBFBFB"/>
<stop offset="0.484375" stop-color="#DCDCDC"/>
<stop offset="0.901042" stop-color="white"/>
</linearGradient>
<linearGradient id="paint2_linear_1770_176" x1="563.203" y1="32" x2="563.203" y2="171.825" gradientUnits="userSpaceOnUse">
<stop offset="0.357421" stop-color="white"/>
<stop offset="0.645701" stop-color="#DCDCDC"/>
<stop offset="0.933981" stop-color="white"/>
</linearGradient>
</defs>
</svg>
