<svg width="654" height="204" viewBox="0 0 654 204" fill="none" xmlns="http://www.w3.org/2000/svg">
<path d="M0 24C0 10.7452 10.7452 0 24 0H630C643.255 0 654 10.7452 654 24V122H0V24Z" fill="#DD2225"/>
<path d="M0 180C0 193.255 10.7452 204 24 204H630C643.255 204 654 193.255 654 180V122H0V180Z" fill="#0083D4"/>
<path d="M43.5097 66.8L32.9497 57.12V39.08L43.5097 29.4H81.7897V44.36H53.6297L51.8697 46.12V50.08L53.6297 51.84H74.3097L84.8697 61.52V81.32L74.3097 91H33.3897V76.04H64.1897L65.9497 74.28V68.56L64.1897 66.8H43.5097ZM94.1131 29.4H113.033V76.04H138.993V91H94.1131V29.4ZM146.879 29.4H193.519V44.36H165.799V53.16H185.599V67.24H165.799V76.04H194.399V91H146.879V29.4ZM202.738 91V29.4H244.538L255.978 39.96V80.44L244.538 91H202.738ZM221.658 76.04H235.298L237.058 74.28V46.12L235.298 44.36H221.658V76.04ZM300.899 75.16V29.4H319.819V81.32L308.379 91.88H278.459L267.019 81.32V29.4H285.939V75.16L287.699 76.92H299.139L300.899 75.16ZM347.141 74.28V29.4H366.061V80.44L354.621 91H326.021V76.04H345.381L347.141 74.28ZM407.434 91H388.514V44.36H373.994V29.4H421.954V44.36H407.434V91ZM429.871 29.4H476.511V44.36H448.791V53.16H468.591V67.24H448.791V76.04H477.391V91H429.871V29.4Z" fill="url(#paint0_linear_1773_446)"/>
<path d="M40.8277 167.775L33.7477 161.285V149.19L40.8277 142.7H66.4927V152.73H47.6127L46.4327 153.91V156.565L47.6127 157.745H61.4777L68.5577 164.235V177.51L61.4777 184H34.0427V173.97H54.6927L55.8727 172.79V168.955L54.6927 167.775H40.8277ZM102.485 173.085H87.44V184H74.755V142.7H102.485L109.565 149.19V166.595L102.485 173.085ZM96.88 153.91L95.7 152.73H87.44V163.055H95.7L96.88 161.875V153.91ZM129.047 152.14L127.867 153.32V173.38L129.047 174.56H137.897L139.077 173.38V153.32L137.897 152.14H129.047ZM122.852 142.11H144.092L151.762 149.19V177.51L144.092 184.59H122.852L115.182 177.51V149.19L122.852 142.11ZM182.764 184L175.979 171.905H171.849V184H159.164V142.7H186.304L193.384 149.19V163.94L187.484 169.25L195.744 184H182.764ZM180.699 153.91L179.519 152.73H171.849V161.875H179.519L180.699 160.695V153.91ZM219.946 184H207.261V152.73H197.526V142.7H229.681V152.73H219.946V184ZM259.78 152.14L258.6 153.32V173.38L259.78 174.56H268.63L269.81 173.38V153.32L268.63 152.14H259.78ZM253.585 142.11H274.825L282.495 149.19V177.51L274.825 184.59H253.585L245.915 177.51V149.19L253.585 142.11ZM313.793 161.58V142.7H326.478V184H314.088L302.878 165.12H302.583V184H289.898V142.7H302.347L313.498 161.58H313.793ZM334.724 142.7H347.409V173.97H364.814V184H334.724V142.7ZM393.996 184H368.331V173.97H374.821V152.73H368.331V142.7H393.996V152.73H387.506V173.97H393.996V184ZM424.36 161.58V142.7H437.045V184H424.655L413.445 165.12H413.15V184H400.465V142.7H412.914L424.065 161.58H424.36ZM445.291 142.7H476.561V152.73H457.976V158.63H471.251V168.07H457.976V173.97H477.151V184H445.291V142.7Z" fill="url(#paint1_linear_1773_446)"/>
<path d="M612.203 96.4074C615.932 99.2039 615.932 104.796 612.203 107.593L528.191 170.589C523.58 174.046 517 170.757 517 164.996L517 39.004C517 33.2426 523.58 29.9541 528.191 33.4113L612.203 96.4074Z" fill="url(#paint2_linear_1773_446)"/>
<defs>
<linearGradient id="paint0_linear_1773_446" x1="254.5" y1="29.1619" x2="254.5" y2="90.5612" gradientUnits="userSpaceOnUse">
<stop stop-color="white"/>
<stop offset="0.484275" stop-color="#FBFBFB"/>
<stop offset="0.484375" stop-color="#DCDCDC"/>
<stop offset="0.901042" stop-color="white"/>
</linearGradient>
<linearGradient id="paint1_linear_1773_446" x1="255" y1="142.921" x2="255" y2="184.259" gradientUnits="userSpaceOnUse">
<stop stop-color="white"/>
<stop offset="0.484275" stop-color="#FBFBFB"/>
<stop offset="0.484375" stop-color="#DCDCDC"/>
<stop offset="0.901042" stop-color="white"/>
</linearGradient>
<linearGradient id="paint2_linear_1773_446" x1="528.562" y1="32.0873" x2="528.562" y2="171.913" gradientUnits="userSpaceOnUse">
<stop offset="0.357421" stop-color="white"/>
<stop offset="0.645701" stop-color="#DCDCDC"/>
<stop offset="0.933981" stop-color="white"/>
</linearGradient>
</defs>
</svg>
