<svg width="654" height="204" viewBox="0 0 654 204" fill="none" xmlns="http://www.w3.org/2000/svg">
<path d="M0 24C0 10.7452 10.7452 0 24 0H630C643.255 0 654 10.7452 654 24V122H0V24Z" fill="#DD2225"/>
<path d="M0 180C0 193.255 10.7452 204 24 204H630C643.255 204 654 193.255 654 180V122H0V180Z" fill="#0083D4"/>
<path d="M48.76 66.225L41.44 59.515V47.01L48.76 40.3H75.295V50.67H55.775L54.555 51.89V54.635L55.775 55.855H70.11L77.43 62.565V76.29L70.11 83H41.745V72.63H63.095L64.315 71.41V67.445L63.095 66.225H48.76ZM115.862 72.63V83H90.8524L82.9224 75.68V47.62L90.8524 40.3H115.862V50.67H97.2574L96.0374 51.89V71.41L97.2574 72.63H115.862ZM135.375 66.835V83H122.26V40.3H135.375V56.465H145.44V40.3H158.555V83H145.44V66.835H135.375ZM191.212 74.46H179.012L176.267 83H162.847L176.572 40.3H193.652L207.377 83H193.957L191.212 74.46ZM185.112 54.635L182.367 64.09H187.857L185.112 54.635ZM234.565 72.02V40.3H247.68V76.29L239.75 83.61H219.01L211.08 76.29V40.3H224.195V72.02L225.415 73.24H233.345L234.565 72.02ZM256.234 40.3H288.564V50.67H269.349V56.77H283.074V66.53H269.349V72.63H289.174V83H256.234V40.3ZM319.66 59.82V40.3H332.775V83H319.965L308.375 63.48H308.07V83H294.955V40.3H307.826L319.355 59.82H319.66ZM360.849 66.225L353.529 59.515V47.01L360.849 40.3H387.384V50.67H367.864L366.644 51.89V54.635L367.864 55.855H382.199L389.519 62.565V76.29L382.199 83H353.834V72.63H375.184L376.404 71.41V67.445L375.184 66.225H360.849ZM420.631 83H394.096V72.63H400.806V50.67H394.096V40.3H420.631V50.67H413.921V72.63H420.631V83ZM427.32 40.3H459.65V50.67H440.435V56.77H454.16V66.53H440.435V72.63H460.26V83H427.32V40.3Z" fill="url(#paint0_linear_1755_118)"/>
<path d="M53.24 152.76L52.12 153.88V172.92L53.24 174.04H61.64L62.76 172.92V153.88L61.64 152.76H53.24ZM47.36 143.24H67.52L74.8 149.96V176.84L67.52 183.56H47.36L40.08 176.84V149.96L47.36 143.24ZM104.506 161.72V143.8H116.546V183H104.786L94.1463 165.08H93.8663V183H81.8263V143.8H93.6423L104.226 161.72H104.506ZM124.373 143.8H136.413V173.48H152.933V183H124.373V143.8ZM180.631 183H156.271V173.48H162.431V153.32H156.271V143.8H180.631V153.32H174.471V173.48H180.631V183ZM209.452 161.72V143.8H221.492V183H209.732L199.092 165.08H198.812V183H186.772V143.8H198.588L209.172 161.72H209.452ZM229.318 143.8H258.998V153.32H241.358V158.92H253.958V167.88H241.358V173.48H259.558V183H229.318V143.8ZM282.812 167.6L276.092 161.44V149.96L282.812 143.8H307.172V153.32H289.252L288.132 154.44V156.96L289.252 158.08H302.412L309.132 164.24V176.84L302.412 183H276.372V173.48H295.972L297.092 172.36V168.72L295.972 167.6H282.812ZM341.334 172.64H327.054V183H315.014V143.8H341.334L348.054 149.96V166.48L341.334 172.64ZM336.014 154.44L334.894 153.32H327.054V163.12H334.894L336.014 162V154.44ZM366.545 152.76L365.425 153.88V172.92L366.545 174.04H374.945L376.065 172.92V153.88L374.945 152.76H366.545ZM360.665 143.24H380.825L388.105 149.96V176.84L380.825 183.56H360.665L353.385 176.84V149.96L360.665 143.24ZM417.531 183L411.091 171.52H407.171V183H395.131V143.8H420.891L427.611 149.96V163.96L422.011 169L429.851 183H417.531ZM415.571 154.44L414.451 153.32H407.171V162H414.451L415.571 160.88V154.44ZM452.822 183H440.782V153.32H431.542V143.8H462.062V153.32H452.822V183Z" fill="url(#paint1_linear_1755_118)"/>
<path d="M611.535 96.4004C615.268 99.2004 615.268 104.8 611.535 107.6L527.45 170.674C522.836 174.136 516.25 170.843 516.25 165.075L516.25 38.9252C516.25 33.1567 522.836 29.864 527.45 33.3256L611.535 96.4004Z" fill="url(#paint2_linear_1755_118)"/>
<defs>
<linearGradient id="paint0_linear_1755_118" x1="250.5" y1="40.3597" x2="250.5" y2="82.9137" gradientUnits="userSpaceOnUse">
<stop stop-color="white"/>
<stop offset="0.484275" stop-color="#FBFBFB"/>
<stop offset="0.484375" stop-color="#DCDCDC"/>
<stop offset="0.901042" stop-color="white"/>
</linearGradient>
<linearGradient id="paint1_linear_1755_118" x1="250.5" y1="144.043" x2="250.5" y2="182.95" gradientUnits="userSpaceOnUse">
<stop stop-color="white"/>
<stop offset="0.484275" stop-color="#FBFBFB"/>
<stop offset="0.484375" stop-color="#DCDCDC"/>
<stop offset="0.901042" stop-color="white"/>
</linearGradient>
<linearGradient id="paint2_linear_1755_118" x1="505.655" y1="34" x2="505.655" y2="174.5" gradientUnits="userSpaceOnUse">
<stop offset="0.357421" stop-color="white"/>
<stop offset="0.645701" stop-color="#DCDCDC"/>
<stop offset="0.933981" stop-color="white"/>
</linearGradient>
</defs>
</svg>
